  0
SECTION
  2
HEADER
  9
$ACADVER
  1
AC1006
  9
$EXTMIN
 10
0.000000
 20
0.000000
 30
0.000000
  9
$EXTMAX
 10
637.000000
 20
1252.000000
 30
0.000000
  0
ENDSEC
  0
SECTION
  2
ENTITIES
  0
POLYLINE
  8
0
 66
1
 70
1
  0
VERTEX
  8
0
 10
39.000000
 20
1196.547115
 42
0.000000
  0
VERTEX
  8
0
 10
39.000000
 20
1183.094230
 42
0.000000
  0
VERTEX
  8
0
 10
44.250000
 20
1183.625499
 42
0.010287
  0
VERTEX
  8
0
 10
66.618805
 20
1186.355050
 42
0.002951
  0
VERTEX
  8
0
 10
101.142303
 20
1191.498656
 42
0.000776
  0
VERTEX
  8
0
 10
138.151852
 20
1197.294964
 42
0.088555
  0
VERTEX
  8
0
 10
142.788783
 20
1198.901673
 42
0.299565
  0
VERTEX
  8
0
 10
143.129861
 20
1199.559268
 42
0.102192
  0
VERTEX
  8
0
 10
142.788599
 20
1200.634545
 42
0.044915
  0
VERTEX
  8
0
 10
141.660163
 20
1202.281281
 42
0.010445
  0
VERTEX
  8
0
 10
139.468397
 20
1204.823926
 42
0.000000
  0
VERTEX
  8
0
 10
134.814661
 20
1210.000000
 42
0.000000
  0
VERTEX
  8
0
 10
86.907331
 20
1210.000000
 42
0.000000
  0
VERTEX
  8
0
 10
39.000000
 20
1210.000000
 42
0.000000
  0
SEQEND
  0
POLYLINE
  8
0
 66
1
 70
1
  0
VERTEX
  8
0
 10
183.000000
 20
1208.580367
 42
0.213901
  0
VERTEX
  8
0
 10
183.295824
 20
1207.920506
 42
0.041955
  0
VERTEX
  8
0
 10
184.361119
 20
1207.120647
 42
0.036799
  0
VERTEX
  8
0
 10
185.886979
 20
1206.313406
 42
0.023958
  0
VERTEX
  8
0
 10
187.750000
 20
1205.601208
 42
0.032397
  0
VERTEX
  8
0
 10
212.568580
 20
1199.198879
 42
0.008160
  0
VERTEX
  8
0
 10
253.713470
 20
1192.078022
 42
0.002211
  0
VERTEX
  8
0
 10
298.046514
 20
1185.349179
 42
0.457715
  0
VERTEX
  8
0
 10
301.000000
 20
1187.899589
 42
0.159579
  0
VERTEX
  8
0
 10
300.519842
 20
1189.365734
 42
0.005817
  0
VERTEX
  8
0
 10
296.948870
 20
1194.116045
 42
0.010943
  0
VERTEX
  8
0
 10
292.766948
 20
1199.307305
 42
0.010641
  0
VERTEX
  8
0
 10
288.323652
 20
1204.360184
 42
0.000000
  0
VERTEX
  8
0
 10
283.147305
 20
1210.000000
 42
0.000000
  0
VERTEX
  8
0
 10
233.073652
 20
1210.000000
 42
0.000846
  0
VERTEX
  8
0
 10
205.313312
 20
1209.953042
 42
0.006240
  0
VERTEX
  8
0
 10
192.068061
 20
1209.742912
 42
0.004879
  0
VERTEX
  8
0
 10
183.808054
 20
1209.428048
 42
0.400265
  0
SEQEND
  0
POLYLINE
  8
0
 66
1
 70
1
  0
VERTEX
  8
0
 10
326.025028
 20
1202.462698
 42
0.012843
  0
VERTEX
  8
0
 10
331.202439
 20
1197.503593
 42
0.059374
  0
VERTEX
  8
0
 10
334.572797
 20
1195.099642
 42
0.101565
  0
VERTEX
  8
0
 10
337.462266
 20
1194.210482
 42
0.085708
  0
VERTEX
  8
0
 10
340.658056
 20
1194.450313
 42
0.113866
  0
VERTEX
  8
0
 10
343.397844
 20
1195.851215
 42
0.008401
  0
VERTEX
  8
0
 10
349.797415
 20
1201.421383
 42
0.005873
  0
VERTEX
  8
0
 10
356.210551
 20
1207.333412
 42
0.206431
  0
VERTEX
  8
0
 10
357.000000
 20
1209.164062
 42
0.399402
  0
VERTEX
  8
0
 10
356.677658
 20
1209.503220
 42
0.001844
  0
VERTEX
  8
0
 10
351.352664
 20
1209.754443
 42
0.006789
  0
VERTEX
  8
0
 10
345.146729
 20
1209.939917
 42
0.004075
  0
VERTEX
  8
0
 10
337.775028
 20
1210.000000
 42
0.000000
  0
VERTEX
  8
0
 10
318.550055
 20
1210.000000
 42
0.000000
  0
SEQEND
  0
POLYLINE
  8
0
 66
1
 70
1
  0
VERTEX
  8
0
 10
421.166667
 20
1209.118081
 42
0.021117
  0
VERTEX
  8
0
 10
421.461691
 20
1208.427215
 42
0.000044
  0
VERTEX
  8
0
 10
426.473493
 20
1197.942717
 42
0.000308
  0
VERTEX
  8
0
 10
432.121766
 20
1186.148133
 42
0.000192
  0
VERTEX
  8
0
 10
438.764375
 20
1172.312727
 42
0.000000
  0
VERTEX
  8
0
 10
456.028749
 20
1136.389292
 42
0.000000
  0
VERTEX
  8
0
 10
459.514897
 20
1119.944646
 42
0.000425
  0
VERTEX
  8
0
 10
464.981235
 20
1094.266719
 42
0.002719
  0
VERTEX
  8
0
 10
467.832308
 20
1081.275544
 42
0.005377
  0
VERTEX
  8
0
 10
469.810568
 20
1072.910675
 42
0.009618
  0
VERTEX
  8
0
 10
471.641743
 20
1066.088068
 42
0.012847
  0
VERTEX
  8
0
 10
474.585247
 20
1056.807938
 42
0.036372
  0
VERTEX
  8
0
 10
477.264255
 20
1050.568264
 42
0.053775
  0
VERTEX
  8
0
 10
480.011397
 20
1046.426996
 42
0.101824
  0
VERTEX
  8
0
 10
483.125446
 20
1043.936002
 42
0.070784
  0
VERTEX
  8
0
 10
487.216091
 20
1042.532976
 42
0.047086
  0
VERTEX
  8
0
 10
492.159561
 20
1042.062054
 42
0.046338
  0
VERTEX
  8
0
 10
497.210734
 20
1042.526745
 42
0.060550
  0
VERTEX
  8
0
 10
501.631161
 20
1043.919864
 42
0.034711
  0
VERTEX
  8
0
 10
506.790193
 20
1046.709172
 42
0.005579
  0
VERTEX
  8
0
 10
516.389478
 20
1052.946298
 42
0.005992
  0
VERTEX
  8
0
 10
527.782254
 20
1060.729465
 42
0.004649
  0
VERTEX
  8
0
 10
540.000000
 20
1069.463263
 42
-0.001830
  0
VERTEX
  8
0
 10
545.456842
 20
1073.410741
 42
-0.001351
  0
VERTEX
  8
0
 10
551.524099
 20
1077.741270
 42
-0.001365
  0
VERTEX
  8
0
 10
557.280288
 20
1081.802764
 42
-0.003061
  0
VERTEX
  8
0
 10
561.677783
 20
1084.847634
 42
0.027304
  0
VERTEX
  8
0
 10
572.361730
 20
1093.038709
 42
0.069583
  0
VERTEX
  8
0
 10
578.808436
 20
1100.342111
 42
0.086627
  0
VERTEX
  8
0
 10
582.192315
 20
1108.097846
 42
0.062387
  0
VERTEX
  8
0
 10
583.268582
 20
1117.500000
 42
0.045264
  0
VERTEX
  8
0
 10
582.426313
 20
1125.802325
 42
0.028540
  0
VERTEX
  8
0
 10
580.027030
 20
1135.252472
 42
0.022116
  0
VERTEX
  8
0
 10
575.867588
 20
1146.649955
 42
0.010218
  0
VERTEX
  8
0
 10
569.510118
 20
1161.095639
 42
-0.010101
  0
VERTEX
  8
0
 10
566.350384
 20
1168.270738
 42
-0.005870
  0
VERTEX
  8
0
 10
562.833711
 20
1177.002277
 42
-0.005866
  0
VERTEX
  8
0
 10
559.513526
 20
1185.839016
 42
-0.009848
  0
VERTEX
  8
0
 10
556.959261
 20
1193.345639
 42
0.000000
  0
VERTEX
  8
0
 10
551.655903
 20
1210.000000
 42
0.000000
  0
VERTEX
  8
0
 10
486.244618
 20
1210.000000
 42
0.001186
  0
VERTEX
  8
0
 10
460.508893
 20
1209.938941
 42
0.002201
  0
VERTEX
  8
0
 10
439.626451
 20
1209.747903
 42
0.000221
  0
VERTEX
  8
0
 10
421.421882
 20
1209.493139
 42
0.519889
  0
SEQEND
  0
POLYLINE
  8
0
 66
1
 70
1
  0
VERTEX
  8
0
 10
389.402309
 20
1194.130290
 42
0.019432
  0
VERTEX
  8
0
 10
387.062542
 20
1193.165405
 42
0.010067
  0
VERTEX
  8
0
 10
384.215137
 20
1191.789493
 42
0.009994
  0
VERTEX
  8
0
 10
381.342002
 20
1190.256069
 42
0.014957
  0
VERTEX
  8
0
 10
378.902309
 20
1188.793151
 42
0.039485
  0
VERTEX
  8
0
 10
373.734024
 20
1184.872432
 42
0.021344
  0
VERTEX
  8
0
 10
368.000770
 20
1179.306398
 42
0.015510
  0
VERTEX
  8
0
 10
362.999436
 20
1173.678266
 42
0.175644
  0
VERTEX
  8
0
 10
362.000000
 20
1170.920976
 42
0.218850
  0
VERTEX
  8
0
 10
363.020675
 20
1168.700760
 42
0.040450
  0
VERTEX
  8
0
 10
366.756377
 20
1165.987708
 42
0.038888
  0
VERTEX
  8
0
 10
371.768163
 20
1163.444829
 42
0.035102
  0
VERTEX
  8
0
 10
377.286075
 20
1161.606314
 42
0.006672
  0
VERTEX
  8
0
 10
387.457672
 20
1159.137611
 42
0.001003
  0
VERTEX
  8
0
 10
407.939099
 20
1154.498346
 42
0.000051
  0
VERTEX
  8
0
 10
431.277203
 20
1149.263680
 42
0.255097
  0
VERTEX
  8
0
 10
431.721185
 20
1149.390867
 42
0.334250
  0
VERTEX
  8
0
 10
431.750049
 20
1149.585656
 42
0.000665
  0
VERTEX
  8
0
 10
430.161801
 20
1152.497272
 42
0.004002
  0
VERTEX
  8
0
 10
428.325456
 20
1155.790217
 42
0.002425
  0
VERTEX
  8
0
 10
426.102043
 20
1159.659495
 42
0.011365
  0
VERTEX
  8
0
 10
419.807009
 20
1169.946872
 42
0.008726
  0
VERTEX
  8
0
 10
412.484580
 20
1180.899275
 42
0.005284
  0
VERTEX
  8
0
 10
405.454391
 20
1190.802393
 42
0.090963
  0
VERTEX
  8
0
 10
402.589571
 20
1193.533268
 42
0.065772
  0
VERTEX
  8
0
 10
399.732280
 20
1194.908868
 42
0.068128
  0
VERTEX
  8
0
 10
396.649996
 20
1195.473848
 42
0.060832
  0
VERTEX
  8
0
 10
393.240128
 20
1195.213261
 42
0.038642
  0
SEQEND
  0
POLYLINE
  8
0
 66
1
 70
1
  0
VERTEX
  8
0
 10
123.000000
 20
1178.973273
 42
0.013207
  0
VERTEX
  8
0
 10
97.720657
 20
1176.871793
 42
0.019548
  0
VERTEX
  8
0
 10
75.725361
 20
1173.582557
 42
0.021461
  0
VERTEX
  8
0
 10
58.183270
 20
1169.466909
 42
0.079713
  0
VERTEX
  8
0
 10
47.906850
 20
1164.723399
 42
0.032222
  0
VERTEX
  8
0
 10
46.141918
 20
1163.365011
 42
0.079664
  0
VERTEX
  8
0
 10
45.103693
 20
1162.110707
 42
0.081237
  0
VERTEX
  8
0
 10
44.521123
 20
1160.610095
 42
0.034502
  0
VERTEX
  8
0
 10
44.220876
 20
1158.467356
 42
0.036815
  0
VERTEX
  8
0
 10
44.227067
 20
1156.623442
 42
0.032858
  0
VERTEX
  8
0
 10
44.499379
 20
1154.727412
 42
0.033528
  0
VERTEX
  8
0
 10
45.007959
 20
1152.927443
 42
0.043714
  0
VERTEX
  8
0
 10
45.720876
 20
1151.372042
 42
0.069655
  0
VERTEX
  8
0
 10
49.197164
 20
1146.857899
 42
0.005131
  0
VERTEX
  8
0
 10
60.487691
 20
1136.014163
 42
0.006467
  0
VERTEX
  8
0
 10
75.212650
 20
1122.514305
 42
0.003501
  0
VERTEX
  8
0
 10
93.657454
 20
1106.268827
 42
-0.001772
  0
VERTEX
  8
0
 10
102.936552
 20
1098.152958
 42
-0.001588
  0
VERTEX
  8
0
 10
112.504429
 20
1089.670343
 42
-0.001592
  0
VERTEX
  8
0
 10
121.045816
 20
1082.000217
 42
-0.004985
  0
VERTEX
  8
0
 10
126.719520
 20
1076.768827
 42
0.020816
  0
VERTEX
  8
0
 10
135.720509
 20
1068.981937
 42
0.016125
  0
VERTEX
  8
0
 10
146.123360
 20
1061.247380
 42
0.015915
  0
VERTEX
  8
0
 10
156.071181
 20
1054.797130
 42
0.051105
  0
VERTEX
  8
0
 10
163.201658
 20
1051.428851
 42
0.033106
  0
VERTEX
  8
0
 10
166.874114
 20
1050.400608
 42
0.054684
  0
VERTEX
  8
0
 10
170.076723
 20
1050.087196
 42
0.048426
  0
VERTEX
  8
0
 10
173.533455
 20
1050.463680
 42
0.020430
  0
VERTEX
  8
0
 10
178.068499
 20
1051.602926
 42
0.067900
  0
VERTEX
  8
0
 10
182.000396
 20
1053.370900
 42
0.037657
  0
VERTEX
  8
0
 10
186.247590
 20
1056.489975
 42
0.015826
  0
VERTEX
  8
0
 10
192.694995
 20
1062.381299
 42
0.001740
  0
VERTEX
  8
0
 10
207.000000
 20
1076.405595
 42
-0.002816
  0
VERTEX
  8
0
 10
216.365087
 20
1085.547440
 42
-0.003644
  0
VERTEX
  8
0
 10
225.065625
 20
1093.823778
 42
-0.002764
  0
VERTEX
  8
0
 10
232.440666
 20
1100.661360
 42
-0.032250
  0
VERTEX
  8
0
 10
235.500000
 20
1103.123174
 42
0.002195
  0
VERTEX
  8
0
 10
238.517978
 20
1105.266394
 42
0.000288
  0
VERTEX
  8
0
 10
244.906250
 20
1109.850932
 42
0.000335
  0
VERTEX
  8
0
 10
252.475970
 20
1115.297639
 42
0.000280
  0
VERTEX
  8
0
 10
260.500000
 20
1121.086241
 42
-0.000876
  0
VERTEX
  8
0
 10
268.591458
 20
1126.908837
 42
-0.000996
  0
VERTEX
  8
0
 10
276.364965
 20
1132.458564
 42
-0.000903
  0
VERTEX
  8
0
 10
282.985751
 20
1137.147461
 42
-0.005570
  0
VERTEX
  8
0
 10
286.423285
 20
1139.515737
 42
0.037589
  0
VERTEX
  8
0
 10
291.154344
 20
1143.242974
 42
0.073431
  0
VERTEX
  8
0
 10
294.173039
 20
1146.962334
 42
0.099220
  0
VERTEX
  8
0
 10
295.439308
 20
1150.571925
 42
0.133866
  0
VERTEX
  8
0
 10
295.004557
 20
1153.988999
 42
0.203341
  0
VERTEX
  8
0
 10
287.130049
 20
1161.730577
 42
0.031874
  0
VERTEX
  8
0
 10
265.953653
 20
1168.559467
 42
0.028616
  0
VERTEX
  8
0
 10
236.834287
 20
1174.190055
 42
0.015462
  0
VERTEX
  8
0
 10
200.500000
 20
1177.940943
 42
0.009667
  0
VERTEX
  8
0
 10
182.739986
 20
1178.876241
 42
0.004991
  0
VERTEX
  8
0
 10
160.499452
 20
1179.394556
 42
0.004932
  0
VERTEX
  8
0
 10
138.768890
 20
1179.469646
 42
0.012530
  0
SEQEND
  0
POLYLINE
  8
0
 66
1
 70
1
  0
VERTEX
  8
0
 10
356.608981
 20
1139.270138
 42
0.000000
  0
VERTEX
  8
0
 10
353.717961
 20
1138.839940
 42
0.000000
  0
VERTEX
  8
0
 10
354.309378
 20
1096.169970
 42
0.002442
  0
VERTEX
  8
0
 10
354.847995
 20
1067.438219
 42
0.006958
  0
VERTEX
  8
0
 10
355.599078
 20
1047.442868
 42
0.009120
  0
VERTEX
  8
0
 10
356.761103
 20
1030.798307
 42
0.008053
  0
VERTEX
  8
0
 10
358.567446
 20
1013.500000
 42
0.013480
  0
VERTEX
  8
0
 10
360.953550
 20
997.397232
 42
0.024646
  0
VERTEX
  8
0
 10
363.893796
 20
984.452551
 42
0.023216
  0
VERTEX
  8
0
 10
367.025818
 20
974.971387
 42
0.310794
  0
VERTEX
  8
0
 10
369.891010
 20
973.000000
 42
0.164572
  0
VERTEX
  8
0
 10
374.628028
 20
974.602563
 42
0.013432
  0
VERTEX
  8
0
 10
384.953596
 20
982.940516
 42
0.014466
  0
VERTEX
  8
0
 10
398.313813
 20
995.019885
 42
0.006180
  0
VERTEX
  8
0
 10
415.500000
 20
1011.898904
 42
0.008159
  0
VERTEX
  8
0
 10
429.211682
 20
1026.160605
 42
0.024523
  0
VERTEX
  8
0
 10
437.913493
 20
1036.483679
 42
0.035067
  0
VERTEX
  8
0
 10
443.644878
 20
1045.207943
 42
0.044462
  0
VERTEX
  8
0
 10
447.595157
 20
1054.000000
 42
0.062998
  0
VERTEX
  8
0
 10
449.215173
 20
1061.692050
 42
0.023270
  0
VERTEX
  8
0
 10
449.605990
 20
1072.785879
 42
0.023555
  0
VERTEX
  8
0
 10
448.933958
 20
1084.276579
 42
0.042895
  0
VERTEX
  8
0
 10
447.148098
 20
1093.500000
 42
0.035078
  0
VERTEX
  8
0
 10
442.724470
 20
1105.727850
 42
0.053421
  0
VERTEX
  8
0
 10
437.079791
 20
1115.496007
 42
0.060110
  0
VERTEX
  8
0
 10
430.083209
 20
1122.994265
 42
0.063732
  0
VERTEX
  8
0
 10
421.632235
 20
1128.442446
 42
0.044915
  0
VERTEX
  8
0
 10
407.253196
 20
1133.782088
 42
0.025203
  0
VERTEX
  8
0
 10
389.030505
 20
1137.769138
 42
0.025226
  0
VERTEX
  8
0
 10
370.820848
 20
1139.864513
 42
0.053011
  0
SEQEND
  0
POLYLINE
  8
0
 66
1
 70
1
  0
VERTEX
  8
0
 10
313.455978
 20
1131.085818
 42
0.032979
  0
VERTEX
  8
0
 10
311.893383
 20
1130.590119
 42
0.009574
  0
VERTEX
  8
0
 10
309.556568
 20
1129.623356
 42
0.009580
  0
VERTEX
  8
0
 10
306.959553
 20
1128.430495
 42
0.010100
  0
VERTEX
  8
0
 10
304.455978
 20
1127.158963
 42
0.036124
  0
VERTEX
  8
0
 10
297.067965
 20
1122.502806
 42
0.002858
  0
VERTEX
  8
0
 10
278.473126
 20
1108.649896
 42
0.003422
  0
VERTEX
  8
0
 10
260.248363
 20
1094.713346
 42
0.025578
  0
VERTEX
  8
0
 10
252.000000
 20
1087.611674
 42
-0.009050
  0
VERTEX
  8
0
 10
249.397006
 20
1085.216327
 42
-0.001719
  0
VERTEX
  8
0
 10
244.562500
 20
1080.956058
 42
-0.001834
  0
VERTEX
  8
0
 10
238.881310
 20
1076.020939
 42
-0.001684
  0
VERTEX
  8
0
 10
233.000000
 20
1070.984137
 42
0.009364
  0
VERTEX
  8
0
 10
219.929226
 20
1059.437518
 42
0.010723
  0
VERTEX
  8
0
 10
207.889704
 20
1047.908595
 42
0.010986
  0
VERTEX
  8
0
 10
198.039649
 20
1037.620325
 42
0.040227
  0
VERTEX
  8
0
 10
192.501675
 20
1030.503242
 42
0.029141
  0
VERTEX
  8
0
 10
189.764530
 20
1025.751228
 42
0.035607
  0
VERTEX
  8
0
 10
187.800125
 20
1021.014557
 42
0.039826
  0
VERTEX
  8
0
 10
186.738564
 20
1016.720155
 42
0.088130
  0
VERTEX
  8
0
 10
186.782547
 20
1013.357202
 42
0.202407
  0
VERTEX
  8
0
 10
191.806072
 20
1005.826796
 42
0.035329
  0
VERTEX
  8
0
 10
207.007650
 20
997.274734
 42
0.031111
  0
VERTEX
  8
0
 10
228.469886
 20
988.711919
 42
0.017533
  0
VERTEX
  8
0
 10
255.407776
 20
980.897052
 42
0.010721
  0
VERTEX
  8
0
 10
274.588364
 20
976.489876
 42
0.005925
  0
VERTEX
  8
0
 10
298.187160
 20
971.888639
 42
0.005918
  0
VERTEX
  8
0
 10
321.556602
 20
967.904163
 42
0.012316
  0
VERTEX
  8
0
 10
339.876268
 20
965.464210
 42
0.000000
  0
VERTEX
  8
0
 10
346.252537
 20
964.774316
 42
0.000000
  0
VERTEX
  8
0
 10
345.580855
 20
982.637158
 42
0.006546
  0
VERTEX
  8
0
 10
343.692301
 20
1019.871746
 42
0.007699
  0
VERTEX
  8
0
 10
340.899197
 20
1055.078793
 42
0.008185
  0
VERTEX
  8
0
 10
337.227802
 20
1088.037390
 42
0.010214
  0
VERTEX
  8
0
 10
332.694373
 20
1118.500000
 42
0.000000
  0
VERTEX
  8
0
 10
330.487410
 20
1131.500000
 42
0.000000
  0
VERTEX
  8
0
 10
323.493705
 20
1131.667392
 42
0.010404
  0
VERTEX
  8
0
 10
320.592877
 20
1131.676451
 42
0.010048
  0
VERTEX
  8
0
 10
317.660219
 20
1131.565604
 42
0.010012
  0
VERTEX
  8
0
 10
315.083212
 20
1131.364453
 42
0.035848
  0
SEQEND
  0
POLYLINE
  8
0
 66
1
 70
1
  0
VERTEX
  8
0
 10
39.000000
 20
1109.240567
 42
0.000000
  0
VERTEX
  8
0
 10
39.000000
 20
1089.297409
 42
0.000000
  0
VERTEX
  8
0
 10
47.250000
 20
1085.735011
 42
-0.001917
  0
VERTEX
  8
0
 10
51.461302
 20
1083.897353
 42
-0.000634
  0
VERTEX
  8
0
 10
57.629687
 20
1081.168139
 42
-0.000632
  0
VERTEX
  8
0
 10
64.460743
 20
1078.125022
 42
-0.000717
  0
VERTEX
  8
0
 10
71.000000
 20
1075.190729
 42
0.002725
  0
VERTEX
  8
0
 10
77.300864
 20
1072.393751
 42
0.003027
  0
VERTEX
  8
0
 10
83.415625
 20
1069.763168
 42
0.002801
  0
VERTEX
  8
0
 10
88.656809
 20
1067.580442
 42
0.015742
  0
VERTEX
  8
0
 10
91.500000
 20
1066.518273
 42
0.028307
  0
VERTEX
  8
0
 10
96.372332
 20
1065.172709
 42
0.024621
  0
VERTEX
  8
0
 10
101.597698
 20
1064.310038
 42
0.017407
  0
VERTEX
  8
0
 10
106.171504
 20
1063.945312
 42
0.427386
  0
VERTEX
  8
0
 10
107.000000
 20
1064.737528
 42
0.190802
  0
VERTEX
  8
0
 10
106.751798
 20
1065.364269
 42
0.005481
  0
VERTEX
  8
0
 10
104.725203
 20
1067.474837
 42
0.010361
  0
VERTEX
  8
0
 10
102.223666
 20
1069.920038
 42
0.006860
  0
VERTEX
  8
0
 10
99.256011
 20
1072.627431
 42
-0.002661
  0
VERTEX
  8
0
 10
90.162966
 20
1080.784176
 42
-0.003189
  0
VERTEX
  8
0
 10
81.693564
 20
1088.562248
 42
-0.002527
  0
VERTEX
  8
0
 10
71.887515
 20
1097.776718
 42
-0.000951
  0
VERTEX
  8
0
 10
58.250000
 20
1110.771291
 42
0.000000
  0
VERTEX
  8
0
 10
39.000000
 20
1129.183726
 42
0.000000
  0
SEQEND
  0
POLYLINE
  8
0
 66
1
 70
1
  0
VERTEX
  8
0
 10
583.500000
 20
1074.672268
 42
0.009754
  0
VERTEX
  8
0
 10
570.255959
 20
1066.554703
 42
0.002807
  0
VERTEX
  8
0
 10
550.089009
 20
1053.485938
 42
0.002105
  0
VERTEX
  8
0
 10
530.135711
 20
1040.275465
 42
0.021702
  0
VERTEX
  8
0
 10
522.170097
 20
1034.438033
 42
0.330955
  0
VERTEX
  8
0
 10
522.113408
 20
1034.221237
 42
0.015753
  0
VERTEX
  8
0
 10
522.434869
 20
1033.491540
 42
0.020623
  0
VERTEX
  8
0
 10
522.908935
 20
1032.597821
 42
0.012775
  0
VERTEX
  8
0
 10
523.534716
 20
1031.587361
 42
0.085196
  0
VERTEX
  8
0
 10
526.313379
 20
1028.604795
 42
0.016935
  0
VERTEX
  8
0
 10
532.281175
 20
1024.371945
 42
0.018078
  0
VERTEX
  8
0
 10
539.422577
 20
1020.023827
 42
0.019434
  0
VERTEX
  8
0
 10
546.692165
 20
1016.313791
 42
0.012766
  0
VERTEX
  8
0
 10
556.033495
 20
1012.281493
 42
0.002555
  0
VERTEX
  8
0
 10
572.905473
 20
1005.603970
 42
0.000261
  0
VERTEX
  8
0
 10
591.909914
 20
998.205971
 42
0.297353
  0
VERTEX
  8
0
 10
592.706983
 20
998.373649
 42
0.198481
  0
VERTEX
  8
0
 10
592.835493
 20
998.683173
 42
0.000083
  0
VERTEX
  8
0
 10
592.853184
 20
1010.531759
 42
0.001208
  0
VERTEX
  8
0
 10
592.838846
 20
1023.718364
 42
0.000732
  0
VERTEX
  8
0
 10
592.761348
 20
1039.319616
 42
0.000000
  0
VERTEX
  8
0
 10
592.500000
 20
1079.949870
 42
0.000000
  0
SEQEND
  0
POLYLINE
  8
0
 66
1
 70
1
  0
VERTEX
  8
0
 10
39.000000
 20
1048.062770
 42
0.004056
  0
VERTEX
  8
0
 10
39.102661
 20
1035.406795
 42
0.098742
  0
VERTEX
  8
0
 10
39.843879
 20
1031.980839
 42
0.253876
  0
VERTEX
  8
0
 10
41.809668
 20
1030.443706
 42
0.040598
  0
VERTEX
  8
0
 10
46.842916
 20
1030.013655
 42
-0.044456
  0
VERTEX
  8
0
 10
52.322766
 20
1029.502901
 42
-0.009473
  0
VERTEX
  8
0
 10
61.711003
 20
1027.592623
 42
-0.010114
  0
VERTEX
  8
0
 10
72.237621
 20
1025.017614
 42
-0.011251
  0
VERTEX
  8
0
 10
82.281353
 20
1022.100818
 42
0.019325
  0
VERTEX
  8
0
 10
99.965894
 20
1017.273238
 42
0.031810
  0
VERTEX
  8
0
 10
115.254341
 20
1014.739354
 42
0.038327
  0
VERTEX
  8
0
 10
127.785499
 20
1014.438165
 42
0.090948
  0
VERTEX
  8
0
 10
136.824676
 20
1016.592635
 42
0.000000
  0
VERTEX
  8
0
 10
141.149352
 20
1018.500000
 42
0.000000
  0
VERTEX
  8
0
 10
138.823991
 20
1022.000000
 42
0.065245
  0
VERTEX
  8
0
 10
137.073838
 20
1024.008676
 42
0.032122
  0
VERTEX
  8
0
 10
134.391435
 20
1026.088529
 42
0.022070
  0
VERTEX
  8
0
 10
130.440596
 20
1028.517252
 42
0.007503
  0
VERTEX
  8
0
 10
124.499315
 20
1031.701887
 42
0.015255
  0
VERTEX
  8
0
 10
111.802545
 20
1037.780909
 42
0.010906
  0
VERTEX
  8
0
 10
97.259454
 20
1043.830661
 42
0.006919
  0
VERTEX
  8
0
 10
77.044491
 20
1051.406485
 42
0.001788
  0
VERTEX
  8
0
 10
44.250000
 20
1063.049493
 42
0.000000
  0
VERTEX
  8
0
 10
39.000000
 20
1064.892277
 42
0.000000
  0
SEQEND
  0
POLYLINE
  8
0
 66
1
 70
1
  0
VERTEX
  8
0
 10
463.897471
 20
1015.624643
 42
0.031257
  0
VERTEX
  8
0
 10
459.784595
 20
1013.857791
 42
0.009613
  0
VERTEX
  8
0
 10
453.815345
 20
1010.693228
 42
0.005289
  0
VERTEX
  8
0
 10
447.856347
 20
1007.302863
 42
0.122956
  0
VERTEX
  8
0
 10
446.470411
 20
1005.952123
 42
-0.084025
  0
VERTEX
  8
0
 10
445.887133
 20
1005.288740
 42
-0.000844
  0
VERTEX
  8
0
 10
440.988707
 20
1001.325772
 42
-0.002725
  0
VERTEX
  8
0
 10
435.304442
 20
996.793781
 42
-0.001761
  0
VERTEX
  8
0
 10
428.676446
 20
991.605930
 42
0.005678
  0
VERTEX
  8
0
 10
410.948719
 20
977.504780
 42
0.021584
  0
VERTEX
  8
0
 10
400.375311
 20
968.109572
 42
0.034632
  0
VERTEX
  8
0
 10
393.984272
 20
960.995845
 42
0.093169
  0
VERTEX
  8
0
 10
390.875617
 20
954.979184
 42
0.073722
  0
VERTEX
  8
0
 10
390.330022
 20
951.214409
 42
0.104204
  0
VERTEX
  8
0
 10
391.037135
 20
947.911707
 42
0.097663
  0
VERTEX
  8
0
 10
393.068743
 20
945.025161
 42
0.058244
  0
VERTEX
  8
0
 10
396.433314
 20
942.486212
 42
0.065284
  0
VERTEX
  8
0
 10
401.678581
 20
940.270353
 42
0.001282
  0
VERTEX
  8
0
 10
429.856727
 20
932.569979
 42
0.003479
  0
VERTEX
  8
0
 10
457.417230
 20
925.319693
 42
0.008308
  0
VERTEX
  8
0
 10
478.000000
 20
920.420696
 42
0.035538
  0
VERTEX
  8
0
 10
488.167959
 20
918.925469
 42
0.028674
  0
VERTEX
  8
0
 10
499.209713
 20
918.730796
 42
0.028302
  0
VERTEX
  8
0
 10
509.073211
 20
919.683531
 42
0.105338
  0
VERTEX
  8
0
 10
514.874179
 20
921.885501
 42
0.310256
  0
VERTEX
  8
0
 10
515.792737
 20
924.079912
 42
0.015683
  0
VERTEX
  8
0
 10
513.878020
 20
932.020510
 42
0.021620
  0
VERTEX
  8
0
 10
510.839367
 20
941.467266
 42
0.016617
  0
VERTEX
  8
0
 10
506.742628
 20
951.500000
 42
-0.004204
  0
VERTEX
  8
0
 10
504.434206
 20
956.775167
 42
-0.001940
  0
VERTEX
  8
0
 10
501.515316
 20
963.675000
 42
-0.001921
  0
VERTEX
  8
0
 10
498.502414
 20
970.953217
 42
-0.002667
  0
VERTEX
  8
0
 10
495.862400
 20
977.500000
 42
0.013921
  0
VERTEX
  8
0
 10
489.831466
 20
991.536397
 42
0.025944
  0
VERTEX
  8
0
 10
484.056265
 20
1002.481344
 42
0.031911
  0
VERTEX
  8
0
 10
478.582955
 20
1010.461015
 42
0.088283
  0
VERTEX
  8
0
 10
473.525117
 20
1014.984477
 42
0.028877
  0
VERTEX
  8
0
 10
470.986514
 20
1016.357632
 42
0.093195
  0
VERTEX
  8
0
 10
469.136624
 20
1016.834417
 42
0.082796
  0
VERTEX
  8
0
 10
467.120479
 20
1016.634530
 42
0.019808
  0
SEQEND
  0
POLYLINE
  8
0
 66
1
 70
1
  0
VERTEX
  8
0
 10
39.000000
 20
982.096305
 42
0.000000
  0
VERTEX
  8
0
 10
39.000000
 20
956.154506
 42
0.000000
  0
VERTEX
  8
0
 10
48.750000
 20
949.432527
 42
-0.004869
  0
VERTEX
  8
0
 10
52.765923
 20
946.605730
 42
-0.004714
  0
VERTEX
  8
0
 10
56.769941
 20
943.670974
 42
-0.004661
  0
VERTEX
  8
0
 10
60.244648
 20
941.022625
 42
-0.017275
  0
VERTEX
  8
0
 10
62.360436
 20
939.258104
 42
0.072087
  0
VERTEX
  8
0
 10
69.611658
 20
934.447614
 42
0.126043
  0
VERTEX
  8
0
 10
76.645665
 20
933.087155
 42
0.120248
  0
VERTEX
  8
0
 10
83.698832
 20
935.261669
 42
0.062220
  0
VERTEX
  8
0
 10
91.014744
 20
940.971104
 42
0.029515
  0
VERTEX
  8
0
 10
93.266386
 20
943.513511
 42
0.007955
  0
VERTEX
  8
0
 10
96.527486
 20
947.804171
 42
0.008027
  0
VERTEX
  8
0
 10
100.081217
 20
952.803805
 42
0.008235
  0
VERTEX
  8
0
 10
103.441672
 20
957.872883
 42
0.004178
  0
VERTEX
  8
0
 10
108.434294
 20
965.825882
 42
0.037973
  0
VERTEX
  8
0
 10
110.311131
 20
969.463570
 42
0.068409
  0
VERTEX
  8
0
 10
111.133679
 20
972.508913
 42
0.028994
  0
VERTEX
  8
0
 10
111.426928
 20
976.738171
 42
0.000000
  0
VERTEX
  8
0
 10
111.500000
 20
983.230576
 42
0.000000
  0
VERTEX
  8
0
 10
105.304574
 20
987.500968
 42
0.040983
  0
VERTEX
  8
0
 10
98.287064
 20
991.533628
 42
0.025287
  0
VERTEX
  8
0
 10
89.473501
 20
995.147155
 42
0.019223
  0
VERTEX
  8
0
 10
77.991454
 20
998.700088
 42
0.008369
  0
VERTEX
  8
0
 10
62.500000
 20
1002.571814
 42
-0.000021
  0
VERTEX
  8
0
 10
55.057465
 20
1004.300426
 42
-0.000030
  0
VERTEX
  8
0
 10
48.420312
 20
1005.842698
 42
-0.000017
  0
VERTEX
  8
0
 10
42.819649
 20
1007.144681
 42
-0.000416
  0
VERTEX
  8
0
 10
41.250000
 20
1007.511013
 42
0.000000
  0
VERTEX
  8
0
 10
39.000000
 20
1008.038104
 42
0.000000
  0
SEQEND
  0
POLYLINE
  8
0
 66
1
 70
1
  0
VERTEX
  8
0
 10
511.000000
 20
987.538095
 42
0.078505
  0
VERTEX
  8
0
 10
511.841078
 20
982.214259
 42
0.019825
  0
VERTEX
  8
0
 10
514.881663
 20
973.962057
 42
0.017222
  0
VERTEX
  8
0
 10
519.579159
 20
963.640725
 42
0.009413
  0
VERTEX
  8
0
 10
526.006126
 20
951.306903
 42
0.002836
  0
VERTEX
  8
0
 10
534.593411
 20
935.768351
 42
0.009587
  0
VERTEX
  8
0
 10
540.453128
 20
925.760945
 42
0.011440
  0
VERTEX
  8
0
 10
544.737506
 20
919.102721
 42
0.091537
  0
VERTEX
  8
0
 10
547.285862
 20
916.512328
 42
0.109583
  0
VERTEX
  8
0
 10
549.168598
 20
915.732431
 42
0.025612
  0
VERTEX
  8
0
 10
552.580185
 20
915.309948
 42
0.015532
  0
VERTEX
  8
0
 10
557.989232
 20
915.088408
 42
0.003251
  0
VERTEX
  8
0
 10
567.472506
 20
915.056442
 42
0.004959
  0
VERTEX
  8
0
 10
575.225337
 20
915.157606
 42
0.008759
  0
VERTEX
  8
0
 10
581.619716
 20
915.416607
 42
0.008674
  0
VERTEX
  8
0
 10
586.595377
 20
915.792224
 42
0.059057
  0
VERTEX
  8
0
 10
589.000000
 20
916.306442
 42
0.000000
  0
VERTEX
  8
0
 10
592.500000
 20
917.500000
 42
0.000000
  0
VERTEX
  8
0
 10
592.788775
 20
926.239180
 42
0.000000
  0
VERTEX
  8
0
 10
593.077550
 20
934.978360
 42
0.000000
  0
VERTEX
  8
0
 10
575.788775
 20
947.820660
 42
0.005084
  0
VERTEX
  8
0
 10
553.206453
 20
964.241408
 42
0.008034
  0
VERTEX
  8
0
 10
533.478718
 20
977.809842
 42
0.004258
  0
VERTEX
  8
0
 10
516.810174
 20
988.680536
 42
0.143315
  0
VERTEX
  8
0
 10
512.301351
 20
990.000000
 42
0.182358
  0
VERTEX
  8
0
 10
511.804463
 20
989.812544
 42
0.091008
  0
VERTEX
  8
0
 10
511.382149
 20
989.277048
 42
0.070875
  0
VERTEX
  8
0
 10
511.096087
 20
988.480413
 42
0.050852
  0
SEQEND
  0
POLYLINE
  8
0
 66
1
 70
1
  0
VERTEX
  8
0
 10
553.569263
 20
988.680101
 42
0.114973
  0
VERTEX
  8
0
 10
554.559034
 20
987.218815
 42
0.010363
  0
VERTEX
  8
0
 10
557.886015
 20
984.266619
 42
0.012376
  0
VERTEX
  8
0
 10
562.228431
 20
980.752879
 42
0.007626
  0
VERTEX
  8
0
 10
567.500000
 20
976.825479
 42
0.012432
  0
VERTEX
  8
0
 10
572.794943
 20
973.201550
 42
0.003017
  0
VERTEX
  8
0
 10
581.723858
 20
967.487329
 42
0.000569
  0
VERTEX
  8
0
 10
591.569688
 20
961.285388
 42
0.141172
  0
VERTEX
  8
0
 10
592.560323
 20
961.000000
 42
0.393141
  0
VERTEX
  8
0
 10
592.737750
 20
961.165012
 42
0.003371
  0
VERTEX
  8
0
 10
592.870845
 20
963.186801
 42
0.009212
  0
VERTEX
  8
0
 10
592.968392
 20
965.589950
 42
0.005536
  0
VERTEX
  8
0
 10
593.000000
 20
968.444430
 42
0.000000
  0
VERTEX
  8
0
 10
593.000000
 20
975.888859
 42
0.000000
  0
VERTEX
  8
0
 10
581.397176
 20
979.510935
 42
-0.006573
  0
VERTEX
  8
0
 10
576.383512
 20
981.148692
 42
-0.004936
  0
VERTEX
  8
0
 10
570.908735
 20
983.077615
 42
-0.004990
  0
VERTEX
  8
0
 10
565.792806
 20
984.995091
 42
-0.011414
  0
VERTEX
  8
0
 10
561.985174
 20
986.566505
 42
0.002087
  0
VERTEX
  8
0
 10
556.105490
 20
989.122417
 42
0.039979
  0
VERTEX
  8
0
 10
554.215336
 20
989.761341
 42
0.347008
  0
VERTEX
  8
0
 10
553.615770
 20
989.492180
 42
0.215032
  0
SEQEND
  0
POLYLINE
  8
0
 66
1
 70
1
  0
VERTEX
  8
0
 10
181.180540
 20
977.943143
 42
0.200899
  0
VERTEX
  8
0
 10
179.715810
 20
976.500271
 42
0.200064
  0
VERTEX
  8
0
 10
179.712759
 20
974.440942
 42
0.078118
  0
VERTEX
  8
0
 10
181.592420
 20
971.370672
 42
0.016280
  0
VERTEX
  8
0
 10
185.854549
 20
966.682456
 42
0.034437
  0
VERTEX
  8
0
 10
191.386155
 20
961.716533
 42
0.035932
  0
VERTEX
  8
0
 10
197.472242
 20
957.633764
 42
0.031465
  0
VERTEX
  8
0
 10
204.763885
 20
954.056093
 42
0.017724
  0
VERTEX
  8
0
 10
214.000000
 20
950.602882
 42
0.019135
  0
VERTEX
  8
0
 10
226.889764
 20
946.839361
 42
0.024035
  0
VERTEX
  8
0
 10
239.089236
 20
944.394895
 42
0.022791
  0
VERTEX
  8
0
 10
251.979637
 20
943.047865
 42
0.014676
  0
VERTEX
  8
0
 10
267.000000
 20
942.609216
 42
0.003606
  0
VERTEX
  8
0
 10
277.286465
 20
942.685008
 42
0.016582
  0
VERTEX
  8
0
 10
283.242327
 20
942.969572
 42
0.027703
  0
VERTEX
  8
0
 10
287.515808
 20
943.555665
 42
0.031970
  0
VERTEX
  8
0
 10
291.493848
 20
944.595212
 42
0.016709
  0
VERTEX
  8
0
 10
294.166494
 20
945.579713
 42
0.038359
  0
VERTEX
  8
0
 10
296.084081
 20
946.537035
 42
0.052969
  0
VERTEX
  8
0
 10
297.328791
 20
947.474563
 42
0.158598
  0
VERTEX
  8
0
 10
297.837628
 20
948.395388
 42
0.125142
  0
VERTEX
  8
0
 10
297.737726
 20
950.094280
 42
0.176635
  0
VERTEX
  8
0
 10
296.819606
 20
951.283658
 42
0.082471
  0
VERTEX
  8
0
 10
294.713877
 20
952.171889
 42
0.014166
  0
VERTEX
  8
0
 10
290.453706
 20
953.063313
 42
-0.015558
  0
VERTEX
  8
0
 10
278.861693
 20
955.522600
 42
-0.000979
  0
VERTEX
  8
0
 10
244.984828
 20
963.889247
 42
-0.001087
  0
VERTEX
  8
0
 10
211.412121
 20
972.328131
 42
-0.013193
  0
VERTEX
  8
0
 10
198.627011
 20
975.932916
 42
0.009794
  0
VERTEX
  8
0
 10
191.850214
 20
977.893471
 42
0.036845
  0
VERTEX
  8
0
 10
187.507559
 20
978.721323
 42
0.057994
  0
VERTEX
  8
0
 10
184.223865
 20
978.717575
 42
0.066187
  0
SEQEND
  0
POLYLINE
  8
0
 66
1
 70
1
  0
VERTEX
  8
0
 10
132.201005
 20
951.558858
 42
0.002817
  0
VERTEX
  8
0
 10
125.917293
 20
943.878141
 42
0.003852
  0
VERTEX
  8
0
 10
120.350877
 20
936.885958
 42
0.002530
  0
VERTEX
  8
0
 10
115.756255
 20
930.960842
 42
0.044349
  0
VERTEX
  8
0
 10
114.452885
 20
928.908889
 42
0.000000
  0
VERTEX
  8
0
 10
112.793536
 20
925.700063
 42
0.000000
  0
VERTEX
  8
0
 10
120.646768
 20
926.301477
 42
0.036926
  0
VERTEX
  8
0
 10
130.877350
 20
927.850313
 42
0.012862
  0
VERTEX
  8
0
 10
145.326275
 20
931.536562
 42
0.008622
  0
VERTEX
  8
0
 10
159.461592
 20
935.797258
 42
0.118785
  0
VERTEX
  8
0
 10
164.000000
 20
938.557766
 42
0.172224
  0
VERTEX
  8
0
 10
166.367401
 20
943.499412
 42
0.100537
  0
VERTEX
  8
0
 10
165.738933
 20
950.113362
 42
0.075205
  0
VERTEX
  8
0
 10
162.133127
 20
957.669105
 42
0.046994
  0
VERTEX
  8
0
 10
155.885124
 20
965.250000
 42
0.007613
  0
VERTEX
  8
0
 10
153.623572
 20
967.453246
 42
0.011233
  0
VERTEX
  8
0
 10
151.567066
 20
969.310938
 42
0.006668
  0
VERTEX
  8
0
 10
149.802192
 20
970.793995
 42
0.173075
  0
VERTEX
  8
0
 10
149.224889
 20
971.000000
 42
0.215168
  0
VERTEX
  8
0
 10
148.617775
 20
970.726055
 42
0.000962
  0
VERTEX
  8
0
 10
143.838390
 20
965.289164
 42
0.004299
  0
VERTEX
  8
0
 10
138.436255
 20
959.011887
 42
0.002672
  0
SEQEND
  0
POLYLINE
  8
0
 66
1
 70
1
  0
VERTEX
  8
0
 10
340.331605
 20
936.953797
 42
0.022582
  0
VERTEX
  8
0
 10
338.235098
 20
936.441250
 42
0.007648
  0
VERTEX
  8
0
 10
335.234017
 20
935.512170
 42
0.007588
  0
VERTEX
  8
0
 10
331.944249
 20
934.382791
 42
0.008647
  0
VERTEX
  8
0
 10
328.831605
 20
933.199928
 42
-0.029546
  0
VERTEX
  8
0
 10
318.771566
 20
929.850691
 42
-0.028024
  0
VERTEX
  8
0
 10
308.208346
 20
927.640327
 42
-0.013597
  0
VERTEX
  8
0
 10
292.282898
 20
925.670774
 42
-0.001787
  0
VERTEX
  8
0
 10
258.352407
 20
922.530668
 42
0.006197
  0
VERTEX
  8
0
 10
245.564655
 20
921.233370
 42
0.012676
  0
VERTEX
  8
0
 10
235.580720
 20
919.838148
 42
0.015804
  0
VERTEX
  8
0
 10
227.909653
 20
918.316626
 42
0.042117
  0
VERTEX
  8
0
 10
222.602406
 20
916.607234
 42
0.118727
  0
VERTEX
  8
0
 10
220.332961
 20
914.945146
 42
0.311379
  0
VERTEX
  8
0
 10
220.144186
 20
913.036714
 42
0.071278
  0
VERTEX
  8
0
 10
222.440355
 20
910.000183
 42
0.004222
  0
VERTEX
  8
0
 10
230.717178
 20
901.932686
 42
0.019703
  0
VERTEX
  8
0
 10
253.853595
 20
881.445380
 42
0.042957
  0
VERTEX
  8
0
 10
273.405804
 20
868.083797
 42
0.036598
  0
VERTEX
  8
0
 10
296.831440
 20
857.042279
 42
0.010950
  0
VERTEX
  8
0
 10
334.000000
 20
843.668206
 42
0.009668
  0
VERTEX
  8
0
 10
347.157913
 20
839.537885
 42
0.019911
  0
VERTEX
  8
0
 10
357.625077
 20
836.920727
 42
0.024318
  0
VERTEX
  8
0
 10
366.745294
 20
835.481012
 42
0.026992
  0
VERTEX
  8
0
 10
375.649191
 20
835.000000
 42
0.007847
  0
VERTEX
  8
0
 10
381.128726
 20
835.086001
 42
0.067179
  0
VERTEX
  8
0
 10
383.543029
 20
835.489365
 42
0.092239
  0
VERTEX
  8
0
 10
385.453477
 20
836.492863
 42
0.020759
  0
VERTEX
  8
0
 10
388.252609
 20
838.894550
 42
0.000000
  0
VERTEX
  8
0
 10
392.427772
 20
842.789101
 42
0.000000
  0
VERTEX
  8
0
 10
385.631986
 20
864.644550
 42
0.003433
  0
VERTEX
  8
0
 10
380.209155
 20
881.671275
 42
0.007955
  0
VERTEX
  8
0
 10
375.849421
 20
894.353599
 42
0.010308
  0
VERTEX
  8
0
 10
371.935576
 20
904.515602
 42
0.014025
  0
VERTEX
  8
0
 10
367.963202
 20
913.500000
 42
0.015025
  0
VERTEX
  8
0
 10
364.193522
 20
920.841045
 42
0.017700
  0
VERTEX
  8
0
 10
360.177733
 20
927.542862
 42
0.017056
  0
VERTEX
  8
0
 10
356.425470
 20
932.919055
 42
0.091941
  0
VERTEX
  8
0
 10
353.813673
 20
935.322986
 42
0.066900
  0
VERTEX
  8
0
 10
351.124433
 20
936.546615
 42
0.043286
  0
VERTEX
  8
0
 10
347.773077
 20
937.250056
 42
0.040395
  0
VERTEX
  8
0
 10
344.072529
 20
937.396784
 42
0.038394
  0
SEQEND
  0
POLYLINE
  8
0
 66
1
 70
1
  0
VERTEX
  8
0
 10
389.121611
 20
925.646532
 42
0.208578
  0
VERTEX
  8
0
 10
388.446802
 20
923.312694
 42
0.024931
  0
VERTEX
  8
0
 10
389.429280
 20
917.902698
 42
0.019418
  0
VERTEX
  8
0
 10
391.627143
 20
909.909342
 42
0.005546
  0
VERTEX
  8
0
 10
395.652279
 20
897.691684
 42
0.015688
  0
VERTEX
  8
0
 10
400.660516
 20
884.415110
 42
0.027494
  0
VERTEX
  8
0
 10
405.736407
 20
873.828002
 42
0.030982
  0
VERTEX
  8
0
 10
411.460646
 20
864.777997
 42
0.028496
  0
VERTEX
  8
0
 10
418.409812
 20
856.235439
 42
0.017924
  0
VERTEX
  8
0
 10
423.557707
 20
850.986980
 42
0.042734
  0
VERTEX
  8
0
 10
427.821944
 20
847.582094
 42
0.058645
  0
VERTEX
  8
0
 10
431.612956
 20
845.650482
 42
0.088752
  0
VERTEX
  8
0
 10
435.248684
 20
845.000000
 42
0.112735
  0
VERTEX
  8
0
 10
441.067886
 20
846.328940
 42
0.008376
  0
VERTEX
  8
0
 10
455.723061
 20
853.695890
 42
0.012594
  0
VERTEX
  8
0
 10
470.383811
 20
861.852916
 42
0.030348
  0
VERTEX
  8
0
 10
480.671378
 20
868.794717
 42
0.022783
  0
VERTEX
  8
0
 10
492.568250
 20
878.811849
 42
0.104763
  0
VERTEX
  8
0
 10
497.752814
 20
886.125848
 42
0.194866
  0
VERTEX
  8
0
 10
497.898159
 20
892.451969
 42
0.116561
  0
VERTEX
  8
0
 10
493.626799
 20
898.776356
 42
0.048242
  0
VERTEX
  8
0
 10
489.328733
 20
902.032264
 42
0.055211
  0
VERTEX
  8
0
 10
484.670299
 20
904.234373
 42
0.046100
  0
VERTEX
  8
0
 10
478.980246
 20
905.621616
 42
0.021709
  0
VERTEX
  8
0
 10
471.447994
 20
906.404684
 42
-0.016938
  0
VERTEX
  8
0
 10
467.290892
 20
906.796824
 42
-0.010819
  0
VERTEX
  8
0
 10
462.490811
 20
907.520134
 42
-0.010818
  0
VERTEX
  8
0
 10
457.725250
 20
908.450655
 42
-0.016900
  0
VERTEX
  8
0
 10
453.673707
 20
909.477701
 42
0.011517
  0
VERTEX
  8
0
 10
449.603083
 20
910.556345
 42
0.006144
  0
VERTEX
  8
0
 10
444.524821
 20
911.711738
 42
0.006112
  0
VERTEX
  8
0
 10
439.307086
 20
912.765065
 42
0.009473
  0
VERTEX
  8
0
 10
434.776870
 20
913.533514
 42
-0.004778
  0
VERTEX
  8
0
 10
425.846283
 20
914.962255
 42
-0.027386
  0
VERTEX
  8
0
 10
421.170623
 20
916.022327
 42
-0.027518
  0
VERTEX
  8
0
 10
416.647961
 20
917.585277
 42
-0.004853
  0
VERTEX
  8
0
 10
408.361729
 20
921.063874
 42
0.007825
  0
VERTEX
  8
0
 10
399.664345
 20
924.654419
 42
0.035526
  0
VERTEX
  8
0
 10
394.438037
 20
926.298903
 42
0.068419
  0
VERTEX
  8
0
 10
391.101265
 20
926.624265
 42
0.212789
  0
SEQEND
  0
POLYLINE
  8
0
 66
1
 70
1
  0
VERTEX
  8
0
 10
175.000000
 20
909.312215
 42
0.014473
  0
VERTEX
  8
0
 10
172.856122
 20
909.012154
 42
0.001716
  0
VERTEX
  8
0
 10
168.121875
 20
908.192493
 42
0.002050
  0
VERTEX
  8
0
 10
162.499836
 20
907.175456
 42
0.001680
  0
VERTEX
  8
0
 10
156.500000
 20
906.043794
 42
-0.003589
  0
VERTEX
  8
0
 10
150.305349
 20
904.899867
 42
-0.003592
  0
VERTEX
  8
0
 10
144.096396
 20
903.845278
 42
-0.003513
  0
VERTEX
  8
0
 10
138.664514
 20
903.001899
 42
-0.014231
  0
VERTEX
  8
0
 10
135.338795
 20
902.605782
 42
0.037546
  0
VERTEX
  8
0
 10
129.070189
 20
901.561040
 42
0.014099
  0
VERTEX
  8
0
 10
120.479583
 20
899.198324
 42
0.013520
  0
VERTEX
  8
0
 10
112.181139
 20
896.414795
 42
0.050262
  0
VERTEX
  8
0
 10
107.225074
 20
894.013945
 42
0.061911
  0
VERTEX
  8
0
 10
104.940633
 20
892.184617
 42
0.071527
  0
VERTEX
  8
0
 10
103.300694
 20
889.931174
 42
0.069682
  0
VERTEX
  8
0
 10
102.332859
 20
887.256204
 42
0.054763
  0
VERTEX
  8
0
 10
102.029035
 20
884.184900
 42
0.060613
  0
VERTEX
  8
0
 10
102.589384
 20
879.961019
 42
0.007302
  0
VERTEX
  8
0
 10
105.077066
 20
870.886806
 42
0.009144
  0
VERTEX
  8
0
 10
107.901808
 20
861.770246
 42
0.028608
  0
VERTEX
  8
0
 10
110.257592
 20
855.802162
 42
0.067935
  0
VERTEX
  8
0
 10
119.148521
 20
841.894912
 42
0.022844
  0
VERTEX
  8
0
 10
135.604946
 20
824.235800
 42
0.021080
  0
VERTEX
  8
0
 10
156.794702
 20
805.165458
 42
0.016940
  0
VERTEX
  8
0
 10
181.083780
 20
786.439821
 42
0.008479
  0
VERTEX
  8
0
 10
196.603690
 20
775.686208
 42
0.003761
  0
VERTEX
  8
0
 10
217.423843
 20
762.002061
 42
0.000746
  0
VERTEX
  8
0
 10
239.548130
 20
747.744715
 42
0.143715
  0
VERTEX
  8
0
 10
242.085563
 20
747.000000
 42
0.133810
  0
VERTEX
  8
0
 10
244.242169
 20
747.587673
 42
0.058250
  0
VERTEX
  8
0
 10
246.628031
 20
749.395581
 42
0.054189
  0
VERTEX
  8
0
 10
248.759224
 20
751.937626
 42
0.062356
  0
VERTEX
  8
0
 10
250.177609
 20
754.765637
 42
0.049887
  0
VERTEX
  8
0
 10
250.733894
 20
757.032496
 42
0.015148
  0
VERTEX
  8
0
 10
251.125105
 20
760.553354
 42
0.013493
  0
VERTEX
  8
0
 10
251.358625
 20
764.923694
 42
0.008674
  0
VERTEX
  8
0
 10
251.404567
 20
770.000000
 42
0.017672
  0
VERTEX
  8
0
 10
251.080773
 20
777.415175
 42
0.016838
  0
VERTEX
  8
0
 10
250.232841
 20
784.910266
 42
0.010393
  0
VERTEX
  8
0
 10
248.538159
 20
794.956724
 42
0.002325
  0
VERTEX
  8
0
 10
245.212354
 20
812.015451
 42
0.006840
  0
VERTEX
  8
0
 10
239.159738
 20
840.290788
 42
0.029728
  0
VERTEX
  8
0
 10
234.358913
 20
856.738335
 42
0.040490
  0
VERTEX
  8
0
 10
228.389265
 20
869.950553
 42
0.021026
  0
VERTEX
  8
0
 10
218.964073
 20
885.415090
 42
0.022437
  0
VERTEX
  8
0
 10
213.110820
 20
893.371442
 42
0.037712
  0
VERTEX
  8
0
 10
207.433085
 20
899.411076
 42
0.044091
  0
VERTEX
  8
0
 10
201.651949
 20
903.831164
 42
0.052437
  0
VERTEX
  8
0
 10
195.500000
 20
906.878052
 42
0.037681
  0
VERTEX
  8
0
 10
191.012469
 20
908.167259
 42
0.021563
  0
VERTEX
  8
0
 10
185.447074
 20
909.072859
 42
0.021521
  0
VERTEX
  8
0
 10
179.787252
 20
909.499006
 42
0.035573
  0
SEQEND
  0
POLYLINE
  8
0
 66
1
 70
1
  0
VERTEX
  8
0
 10
573.500000
 20
895.019149
 42
0.029700
  0
VERTEX
  8
0
 10
564.878837
 20
892.581967
 42
0.068639
  0
VERTEX
  8
0
 10
558.897236
 20
889.528803
 42
0.087593
  0
VERTEX
  8
0
 10
554.870205
 20
885.514976
 42
0.078351
  0
VERTEX
  8
0
 10
552.269751
 20
880.211987
 42
0.059724
  0
VERTEX
  8
0
 10
550.850563
 20
872.423057
 42
0.015553
  0
VERTEX
  8
0
 10
550.470482
 20
859.680134
 42
0.016144
  0
VERTEX
  8
0
 10
550.903949
 20
846.772900
 42
0.047347
  0
VERTEX
  8
0
 10
552.324025
 20
838.000000
 42
0.025737
  0
VERTEX
  8
0
 10
554.287580
 20
831.796907
 42
0.028422
  0
VERTEX
  8
0
 10
556.824520
 20
826.036599
 42
0.025885
  0
VERTEX
  8
0
 10
559.449733
 20
821.487963
 42
0.204101
  0
VERTEX
  8
0
 10
561.425751
 20
820.156524
 42
0.186714
  0
VERTEX
  8
0
 10
562.658151
 20
820.379414
 42
0.030315
  0
VERTEX
  8
0
 10
564.691106
 20
821.796395
 42
0.024098
  0
VERTEX
  8
0
 10
567.365679
 20
824.130424
 42
0.008992
  0
VERTEX
  8
0
 10
570.897632
 20
827.650257
 42
0.015110
  0
VERTEX
  8
0
 10
575.516638
 20
832.719929
 42
0.038618
  0
VERTEX
  8
0
 10
578.447958
 20
836.727655
 42
0.028017
  0
VERTEX
  8
0
 10
581.217587
 20
841.818168
 42
0.005013
  0
VERTEX
  8
0
 10
585.750000
 20
851.642752
 42
0.000000
  0
VERTEX
  8
0
 10
593.000000
 20
867.781479
 42
0.000000
  0
VERTEX
  8
0
 10
593.000000
 20
880.355556
 42
0.003316
  0
VERTEX
  8
0
 10
592.948622
 20
888.101810
 42
0.035288
  0
VERTEX
  8
0
 10
592.684859
 20
891.241555
 42
0.099192
  0
VERTEX
  8
0
 10
592.058223
 20
892.947128
 42
0.133170
  0
VERTEX
  8
0
 10
590.865820
 20
894.071811
 42
0.087078
  0
VERTEX
  8
0
 10
587.946206
 20
895.031828
 42
0.022370
  0
VERTEX
  8
0
 10
582.985530
 20
895.525700
 42
0.023657
  0
VERTEX
  8
0
 10
577.725707
 20
895.563529
 42
0.044032
  0
SEQEND
  0
POLYLINE
  8
0
 66
1
 70
1
  0
VERTEX
  8
0
 10
39.223882
 20
879.523183
 42
0.000000
  0
VERTEX
  8
0
 10
39.500000
 20
863.760662
 42
0.000000
  0
VERTEX
  8
0
 10
61.000000
 20
857.403927
 42
0.000366
  0
VERTEX
  8
0
 10
69.270880
 20
854.965121
 42
0.000595
  0
VERTEX
  8
0
 10
76.298611
 20
852.907551
 42
0.000063
  0
VERTEX
  8
0
 10
82.581881
 20
851.076924
 42
0.055751
  0
VERTEX
  8
0
 10
82.888889
 20
851.023595
 42
0.477476
  0
VERTEX
  8
0
 10
83.602285
 20
851.804168
 42
0.009935
  0
VERTEX
  8
0
 10
82.584333
 20
857.722318
 42
0.018322
  0
VERTEX
  8
0
 10
81.216753
 20
863.647171
 42
0.051429
  0
VERTEX
  8
0
 10
79.694070
 20
867.617021
 42
-0.017936
  0
VERTEX
  8
0
 10
78.613592
 20
869.953460
 42
-0.009920
  0
VERTEX
  8
0
 10
77.454807
 20
872.876305
 42
-0.009881
  0
VERTEX
  8
0
 10
76.396646
 20
875.888290
 42
-0.015665
  0
VERTEX
  8
0
 10
75.623217
 20
878.511092
 42
0.066270
  0
VERTEX
  8
0
 10
72.543385
 20
886.051174
 42
0.122209
  0
VERTEX
  8
0
 10
67.991403
 20
890.808549
 42
0.097431
  0
VERTEX
  8
0
 10
60.979711
 20
893.528103
 42
0.032108
  0
VERTEX
  8
0
 10
49.941339
 20
894.764630
 42
0.000000
  0
VERTEX
  8
0
 10
38.947763
 20
895.285704
 42
0.000000
  0
SEQEND
  0
POLYLINE
  8
0
 66
1
 70
1
  0
VERTEX
  8
0
 10
509.500000
 20
864.687426
 42
0.030710
  0
VERTEX
  8
0
 10
492.132452
 20
856.405497
 42
0.023481
  0
VERTEX
  8
0
 10
474.222215
 20
845.342598
 42
0.023478
  0
VERTEX
  8
0
 10
458.806360
 20
833.690778
 42
0.070133
  0
VERTEX
  8
0
 10
449.945588
 20
823.919874
 42
0.016083
  0
VERTEX
  8
0
 10
446.998803
 20
819.265195
 42
0.256257
  0
VERTEX
  8
0
 10
446.943774
 20
817.461905
 42
0.193511
  0
VERTEX
  8
0
 10
448.451507
 20
816.146735
 42
0.009061
  0
VERTEX
  8
0
 10
455.000000
 20
813.999351
 42
0.014977
  0
VERTEX
  8
0
 10
471.552273
 20
809.439811
 42
0.012205
  0
VERTEX
  8
0
 10
489.515115
 20
805.527795
 42
0.012516
  0
VERTEX
  8
0
 10
506.764863
 20
802.655531
 42
0.022580
  0
VERTEX
  8
0
 10
521.027122
 20
801.299194
 42
0.000000
  0
VERTEX
  8
0
 10
532.554245
 20
800.726258
 42
0.000000
  0
VERTEX
  8
0
 10
533.774449
 20
803.404316
 42
0.091594
  0
VERTEX
  8
0
 10
536.553874
 20
814.528179
 42
0.040915
  0
VERTEX
  8
0
 10
536.256783
 20
829.672961
 42
0.038861
  0
VERTEX
  8
0
 10
533.297233
 20
846.022120
 42
0.043813
  0
VERTEX
  8
0
 10
527.909654
 20
861.045079
 42
0.007654
  0
VERTEX
  8
0
 10
525.810274
 20
865.422217
 42
0.078967
  0
VERTEX
  8
0
 10
524.649960
 20
867.047073
 42
0.151721
  0
VERTEX
  8
0
 10
523.322151
 20
867.758583
 42
0.050656
  0
VERTEX
  8
0
 10
521.101962
 20
867.957923
 42
0.052244
  0
VERTEX
  8
0
 10
519.199513
 20
867.736101
 42
0.013575
  0
VERTEX
  8
0
 10
516.208076
 20
866.979858
 42
0.013652
  0
VERTEX
  8
0
 10
512.827039
 20
865.926328
 42
0.013550
  0
SEQEND
  0
POLYLINE
  8
0
 66
1
 70
1
  0
VERTEX
  8
0
 10
266.157728
 20
832.250000
 42
0.058435
  0
VERTEX
  8
0
 10
264.440613
 20
813.713766
 42
0.035954
  0
VERTEX
  8
0
 10
266.549188
 20
791.872059
 42
0.034078
  0
VERTEX
  8
0
 10
272.050493
 20
769.020653
 42
0.035163
  0
VERTEX
  8
0
 10
280.562602
 20
747.375090
 42
0.035050
  0
VERTEX
  8
0
 10
285.544513
 20
738.573088
 42
0.113512
  0
VERTEX
  8
0
 10
290.382093
 20
733.978653
 42
0.136430
  0
VERTEX
  8
0
 10
296.192300
 20
732.418182
 42
0.060533
  0
VERTEX
  8
0
 10
304.129513
 20
733.453634
 42
0.038927
  0
VERTEX
  8
0
 10
313.025521
 20
736.485407
 42
0.023361
  0
VERTEX
  8
0
 10
323.065659
 20
741.372359
 42
0.015383
  0
VERTEX
  8
0
 10
336.254666
 20
749.108182
 42
0.004543
  0
VERTEX
  8
0
 10
355.971571
 20
761.754722
 42
0.013027
  0
VERTEX
  8
0
 10
374.201203
 20
774.372683
 42
0.019804
  0
VERTEX
  8
0
 10
389.285982
 20
786.350846
 42
0.021941
  0
VERTEX
  8
0
 10
400.597487
 20
796.985883
 42
0.080776
  0
VERTEX
  8
0
 10
406.212251
 20
805.000000
 42
0.000000
  0
VERTEX
  8
0
 10
407.902654
 20
808.500000
 42
0.000000
  0
VERTEX
  8
0
 10
404.340328
 20
810.653997
 42
0.065846
  0
VERTEX
  8
0
 10
397.813792
 20
813.508784
 42
0.016051
  0
VERTEX
  8
0
 10
386.402378
 20
816.407242
 42
0.016824
  0
VERTEX
  8
0
 10
373.553832
 20
818.785027
 42
0.021050
  0
VERTEX
  8
0
 10
361.500000
 20
820.082806
 42
-0.009187
  0
VERTEX
  8
0
 10
337.896702
 20
822.059020
 42
-0.022420
  0
VERTEX
  8
0
 10
320.639185
 20
824.609670
 42
-0.025798
  0
VERTEX
  8
0
 10
305.173300
 20
828.446164
 42
-0.016475
  0
VERTEX
  8
0
 10
287.630941
 20
834.409514
 42
0.018302
  0
VERTEX
  8
0
 10
284.067748
 20
835.606280
 42
0.025033
  0
VERTEX
  8
0
 10
280.778264
 20
836.402124
 42
0.025722
  0
VERTEX
  8
0
 10
277.497615
 20
836.850687
 42
0.021117
  0
VERTEX
  8
0
 10
273.963805
 20
837.000000
 42
0.000000
  0
VERTEX
  8
0
 10
267.165728
 20
837.000000
 42
0.000000
  0
SEQEND
  0
POLYLINE
  8
0
 66
1
 70
1
  0
VERTEX
  8
0
 10
49.155176
 20
816.195615
 42
0.000000
  0
VERTEX
  8
0
 10
38.810353
 20
814.595236
 42
0.000000
  0
VERTEX
  8
0
 10
39.464735
 20
808.047618
 42
0.039057
  0
VERTEX
  8
0
 10
42.410687
 20
791.642930
 42
0.012566
  0
VERTEX
  8
0
 10
49.269104
 20
767.871831
 42
0.012127
  0
VERTEX
  8
0
 10
58.480465
 20
741.003360
 42
0.011342
  0
VERTEX
  8
0
 10
69.178691
 20
714.000000
 42
0.002667
  0
VERTEX
  8
0
 10
74.968630
 20
700.502602
 42
0.016957
  0
VERTEX
  8
0
 10
78.176413
 20
693.767160
 42
0.033760
  0
VERTEX
  8
0
 10
80.710965
 20
689.594700
 42
0.051179
  0
VERTEX
  8
0
 10
83.494509
 20
686.392965
 42
0.030480
  0
VERTEX
  8
0
 10
87.514741
 20
683.061759
 42
0.041880
  0
VERTEX
  8
0
 10
91.521717
 20
680.619966
 42
0.047629
  0
VERTEX
  8
0
 10
95.391268
 20
679.126255
 42
0.069954
  0
VERTEX
  8
0
 10
99.000000
 20
678.641510
 42
0.042891
  0
VERTEX
  8
0
 10
101.034119
 20
678.828941
 42
0.006827
  0
VERTEX
  8
0
 10
104.965770
 20
679.590240
 42
0.007520
  0
VERTEX
  8
0
 10
109.583722
 20
680.622708
 42
0.006522
  0
VERTEX
  8
0
 10
114.394111
 20
681.840979
 42
-0.023728
  0
VERTEX
  8
0
 10
132.539252
 20
685.777553
 42
-0.012196
  0
VERTEX
  8
0
 10
155.571780
 20
689.065645
 42
-0.009035
  0
VERTEX
  8
0
 10
185.798049
 20
692.078281
 42
-0.003621
  0
VERTEX
  8
0
 10
227.250000
 20
695.152617
 42
0.000000
  0
VERTEX
  8
0
 10
261.000000
 20
697.410093
 42
0.000000
  0
VERTEX
  8
0
 10
260.993411
 20
701.455046
 42
0.091259
  0
VERTEX
  8
0
 10
260.072570
 20
706.412864
 42
0.104143
  0
VERTEX
  8
0
 10
257.459476
 20
710.461131
 42
0.064716
  0
VERTEX
  8
0
 10
252.375950
 20
714.413100
 42
0.016642
  0
VERTEX
  8
0
 10
243.221051
 20
719.394007
 42
-0.016539
  0
VERTEX
  8
0
 10
225.178467
 20
729.205624
 42
-0.012431
  0
VERTEX
  8
0
 10
205.985456
 20
741.132240
 42
-0.010475
  0
VERTEX
  8
0
 10
184.335506
 20
756.001676
 42
-0.005926
  0
VERTEX
  8
0
 10
158.704602
 20
774.871629
 42
-0.000015
  0
VERTEX
  8
0
 10
147.791930
 20
783.107461
 42
-0.000014
  0
VERTEX
  8
0
 10
136.672602
 20
791.500244
 42
-0.000014
  0
VERTEX
  8
0
 10
126.827861
 20
798.931826
 42
-0.000048
  0
VERTEX
  8
0
 10
120.500000
 20
803.709818
 42
0.016357
  0
VERTEX
  8
0
 10
109.141859
 20
811.718175
 42
0.066532
  0
VERTEX
  8
0
 10
101.540124
 20
815.376615
 42
0.062717
  0
VERTEX
  8
0
 10
93.029048
 20
817.017077
 42
0.013507
  0
VERTEX
  8
0
 10
78.000000
 20
817.590367
 42
0.005554
  0
VERTEX
  8
0
 10
69.002648
 20
817.590422
 42
0.009304
  0
VERTEX
  8
0
 10
61.442771
 20
817.365758
 42
0.010920
  0
VERTEX
  8
0
 10
54.931811
 20
816.908227
 42
0.015374
  0
SEQEND
  0
POLYLINE
  8
0
 66
1
 70
1
  0
VERTEX
  8
0
 10
453.000000
 20
789.357813
 42
0.051800
  0
VERTEX
  8
0
 10
453.102811
 20
788.368090
 42
0.006463
  0
VERTEX
  8
0
 10
453.574768
 20
786.256973
 42
0.007558
  0
VERTEX
  8
0
 10
454.207445
 20
783.758198
 42
0.006197
  0
VERTEX
  8
0
 10
454.956658
 20
781.107813
 42
-0.010499
  0
VERTEX
  8
0
 10
455.909217
 20
777.623852
 42
-0.003064
  0
VERTEX
  8
0
 10
457.229108
 20
772.224825
 42
-0.003077
  0
VERTEX
  8
0
 10
458.640768
 20
766.126694
 42
-0.003292
  0
VERTEX
  8
0
 10
459.945014
 20
760.146910
 42
0.003498
  0
VERTEX
  8
0
 10
461.260485
 20
754.127605
 42
0.003147
  0
VERTEX
  8
0
 10
462.705978
 20
747.910636
 42
0.003154
  0
VERTEX
  8
0
 10
464.072668
 20
742.351124
 42
0.009932
  0
VERTEX
  8
0
 10
465.086761
 20
738.646910
 42
0.025907
  0
VERTEX
  8
0
 10
467.294749
 20
732.382843
 42
0.016441
  0
VERTEX
  8
0
 10
470.475825
 20
725.327253
 42
0.010087
  0
VERTEX
  8
0
 10
473.811699
 20
718.866405
 42
0.178768
  0
VERTEX
  8
0
 10
475.547415
 20
717.343432
 42
0.219714
  0
VERTEX
  8
0
 10
477.232619
 20
717.455068
 42
0.004175
  0
VERTEX
  8
0
 10
485.106501
 20
721.828989
 42
0.010819
  0
VERTEX
  8
0
 10
492.786322
 20
726.401671
 42
0.022739
  0
VERTEX
  8
0
 10
498.500000
 20
730.345504
 42
0.010699
  0
VERTEX
  8
0
 10
500.417830
 20
731.868085
 42
0.004466
  0
VERTEX
  8
0
 10
502.940625
 20
733.998812
 42
0.004416
  0
VERTEX
  8
0
 10
505.601480
 20
736.328369
 42
0.005707
  0
VERTEX
  8
0
 10
508.000000
 20
738.515596
 42
-0.012105
  0
VERTEX
  8
0
 10
510.767232
 20
740.974955
 42
-0.004819
  0
VERTEX
  8
0
 10
514.675000
 20
744.218050
 42
-0.004766
  0
VERTEX
  8
0
 10
518.959880
 20
747.637546
 42
-0.005977
  0
VERTEX
  8
0
 10
523.000000
 20
750.722007
 42
0.012877
  0
VERTEX
  8
0
 10
531.507934
 20
757.405284
 42
0.037162
  0
VERTEX
  8
0
 10
536.908349
 20
762.599115
 42
0.056075
  0
VERTEX
  8
0
 10
539.998075
 20
766.940106
 42
0.127316
  0
VERTEX
  8
0
 10
541.000000
 20
770.811115
 42
0.144963
  0
VERTEX
  8
0
 10
540.698857
 20
771.827978
 42
0.078111
  0
VERTEX
  8
0
 10
539.818133
 20
772.808668
 42
0.050742
  0
VERTEX
  8
0
 10
538.285514
 20
773.816627
 42
0.018526
  0
VERTEX
  8
0
 10
535.937054
 20
774.931733
 42
0.037265
  0
VERTEX
  8
0
 10
525.369497
 20
778.572200
 42
0.010547
  0
VERTEX
  8
0
 10
508.440151
 20
782.646516
 42
0.010532
  0
VERTEX
  8
0
 10
489.000003
 20
786.466311
 42
0.010739
  0
VERTEX
  8
0
 10
469.541536
 20
789.436581
 42
0.002773
  0
VERTEX
  8
0
 10
459.577689
 20
790.683069
 42
0.030928
  0
VERTEX
  8
0
 10
455.583869
 20
790.911258
 42
0.110886
  0
VERTEX
  8
0
 10
453.707231
 20
790.480496
 42
0.288718
  0
SEQEND
  0
POLYLINE
  8
0
 66
1
 70
1
  0
VERTEX
  8
0
 10
423.878823
 20
781.645872
 42
0.048073
  0
VERTEX
  8
0
 10
405.316124
 20
771.811931
 42
0.011930
  0
VERTEX
  8
0
 10
377.028171
 20
752.162499
 42
0.012443
  0
VERTEX
  8
0
 10
346.572014
 20
728.727188
 42
0.014824
  0
VERTEX
  8
0
 10
319.092977
 20
705.089934
 42
0.011527
  0
VERTEX
  8
0
 10
312.071720
 20
698.375282
 42
0.014102
  0
VERTEX
  8
0
 10
305.837921
 20
691.769865
 42
0.009052
  0
VERTEX
  8
0
 10
300.794887
 20
685.904522
 42
0.178186
  0
VERTEX
  8
0
 10
300.015922
 20
683.698084
 42
0.240328
  0
VERTEX
  8
0
 10
300.369870
 20
683.026432
 42
0.006595
  0
VERTEX
  8
0
 10
303.180302
 20
681.100001
 42
0.012228
  0
VERTEX
  8
0
 10
306.650787
 20
678.908409
 42
0.007914
  0
VERTEX
  8
0
 10
310.765922
 20
676.535963
 42
0.006871
  0
VERTEX
  8
0
 10
317.186403
 20
673.083238
 42
0.034440
  0
VERTEX
  8
0
 10
320.927295
 20
671.453740
 42
0.048677
  0
VERTEX
  8
0
 10
324.239967
 20
670.626634
 42
0.023219
  0
VERTEX
  8
0
 10
328.612874
 20
670.183588
 42
0.019953
  0
VERTEX
  8
0
 10
332.342125
 20
670.128981
 42
0.021718
  0
VERTEX
  8
0
 10
335.959120
 20
670.377821
 42
0.020577
  0
VERTEX
  8
0
 10
339.707344
 20
670.956839
 42
0.014805
  0
VERTEX
  8
0
 10
343.836378
 20
671.897625
 42
-0.020739
  0
VERTEX
  8
0
 10
348.907854
 20
672.990016
 42
-0.023033
  0
VERTEX
  8
0
 10
353.878168
 20
673.612676
 42
-0.015565
  0
VERTEX
  8
0
 10
360.272772
 20
673.916263
 42
-0.004078
  0
VERTEX
  8
0
 10
370.539868
 20
674.000000
 42
0.004411
  0
VERTEX
  8
0
 10
381.800498
 20
674.099347
 42
0.019752
  0
VERTEX
  8
0
 10
388.385812
 20
674.476063
 42
0.023705
  0
VERTEX
  8
0
 10
394.351267
 20
675.341335
 42
0.008340
  0
VERTEX
  8
0
 10
402.816364
 20
677.129003
 42
0.008199
  0
VERTEX
  8
0
 10
408.407920
 20
678.504464
 42
0.008457
  0
VERTEX
  8
0
 10
413.893630
 20
680.049353
 42
0.008237
  0
VERTEX
  8
0
 10
418.598810
 20
681.545654
 42
0.035384
  0
VERTEX
  8
0
 10
421.310886
 20
682.676702
 42
0.056610
  0
VERTEX
  8
0
 10
426.857274
 20
686.302190
 42
0.019397
  0
VERTEX
  8
0
 10
434.017620
 20
692.720900
 42
0.019476
  0
VERTEX
  8
0
 10
440.675909
 20
699.695165
 42
0.054494
  0
VERTEX
  8
0
 10
444.566599
 20
705.210091
 42
0.027854
  0
VERTEX
  8
0
 10
446.285116
 20
708.769296
 42
0.061035
  0
VERTEX
  8
0
 10
447.097306
 20
711.678891
 42
0.033827
  0
VERTEX
  8
0
 10
447.423095
 20
715.610959
 42
0.003879
  0
VERTEX
  8
0
 10
447.487800
 20
724.500000
 42
0.007375
  0
VERTEX
  8
0
 10
447.352135
 20
733.408303
 42
0.030485
  0
VERTEX
  8
0
 10
446.863264
 20
738.769894
 42
0.026924
  0
VERTEX
  8
0
 10
445.702603
 20
744.332165
 42
0.004885
  0
VERTEX
  8
0
 10
442.896027
 20
754.500000
 42
0.006690
  0
VERTEX
  8
0
 10
439.674135
 20
765.200304
 42
0.021863
  0
VERTEX
  8
0
 10
437.142513
 20
772.145016
 42
0.032500
  0
VERTEX
  8
0
 10
434.681826
 20
777.133330
 42
0.044423
  0
VERTEX
  8
0
 10
431.804862
 20
781.231881
 42
0.000000
  0
VERTEX
  8
0
 10
429.500000
 20
783.963762
 42
0.000000
  0
SEQEND
  0
POLYLINE
  8
0
 66
1
 70
1
  0
VERTEX
  8
0
 10
581.000000
 20
735.250000
 42
0.090238
  0
VERTEX
  8
0
 10
581.196921
 20
734.167762
 42
0.007949
  0
VERTEX
  8
0
 10
582.222320
 20
731.569423
 42
0.010202
  0
VERTEX
  8
0
 10
583.567450
 20
728.492864
 42
0.007768
  0
VERTEX
  8
0
 10
585.161089
 20
725.177822
 42
-0.010718
  0
VERTEX
  8
0
 10
586.883783
 20
721.539505
 42
-0.008160
  0
VERTEX
  8
0
 10
588.619111
 20
717.485548
 42
-0.008261
  0
VERTEX
  8
0
 10
590.121659
 20
713.630138
 42
-0.019105
  0
VERTEX
  8
0
 10
591.089847
 20
710.677822
 42
0.000000
  0
VERTEX
  8
0
 10
592.857515
 20
704.500000
 42
0.000000
  0
VERTEX
  8
0
 10
592.928758
 20
718.207846
 42
0.000000
  0
VERTEX
  8
0
 10
593.000000
 20
731.915692
 42
0.000000
  0
VERTEX
  8
0
 10
588.662142
 20
734.457846
 42
0.023226
  0
VERTEX
  8
0
 10
585.272189
 20
736.238440
 42
0.083741
  0
VERTEX
  8
0
 10
582.928283
 20
736.887419
 42
0.201422
  0
VERTEX
  8
0
 10
581.576973
 20
736.477532
 42
0.223296
  0
SEQEND
  0
POLYLINE
  8
0
 66
1
 70
1
  0
VERTEX
  8
0
 10
539.030010
 20
726.308927
 42
0.040767
  0
VERTEX
  8
0
 10
531.300865
 20
721.499758
 42
0.011896
  0
VERTEX
  8
0
 10
520.241431
 20
712.883283
 42
0.012422
  0
VERTEX
  8
0
 10
509.024831
 20
703.232462
 42
0.021418
  0
VERTEX
  8
0
 10
500.255024
 20
694.588395
 42
0.013910
  0
VERTEX
  8
0
 10
495.202900
 20
688.850989
 42
0.122155
  0
VERTEX
  8
0
 10
493.738779
 20
685.828096
 42
0.146468
  0
VERTEX
  8
0
 10
493.997930
 20
682.710277
 42
0.022820
  0
VERTEX
  8
0
 10
496.544072
 20
677.000000
 42
0.034839
  0
VERTEX
  8
0
 10
498.675968
 20
673.400416
 42
0.051655
  0
VERTEX
  8
0
 10
501.056975
 20
670.616672
 42
0.034724
  0
VERTEX
  8
0
 10
504.596689
 20
667.691762
 42
0.007895
  0
VERTEX
  8
0
 10
511.000000
 20
663.260341
 42
-0.052468
  0
VERTEX
  8
0
 10
520.750551
 20
655.140102
 42
-0.011521
  0
VERTEX
  8
0
 10
535.610571
 20
639.140701
 42
-0.012383
  0
VERTEX
  8
0
 10
549.944367
 20
622.146774
 42
-0.035932
  0
VERTEX
  8
0
 10
558.672657
 20
609.500000
 42
0.018635
  0
VERTEX
  8
0
 10
560.397999
 20
606.805403
 42
0.010355
  0
VERTEX
  8
0
 10
562.688848
 20
603.646875
 42
0.010316
  0
VERTEX
  8
0
 10
565.143331
 20
600.541381
 42
0.016402
  0
VERTEX
  8
0
 10
567.382535
 20
598.000000
 42
-0.018751
  0
VERTEX
  8
0
 10
569.933122
 20
595.077658
 42
-0.006032
  0
VERTEX
  8
0
 10
573.497761
 20
590.559899
 42
-0.006007
  0
VERTEX
  8
0
 10
577.346384
 20
585.433063
 42
-0.006694
  0
VERTEX
  8
0
 10
580.931694
 20
580.395401
 42
0.004612
  0
VERTEX
  8
0
 10
589.898987
 20
567.683883
 42
0.441669
  0
VERTEX
  8
0
 10
591.885095
 20
567.453677
 42
0.219266
  0
VERTEX
  8
0
 10
593.022302
 20
569.981966
 42
0.002095
  0
VERTEX
  8
0
 10
592.748856
 20
590.685135
 42
0.002411
  0
VERTEX
  8
0
 10
592.403627
 20
606.221083
 42
0.017292
  0
VERTEX
  8
0
 10
591.941571
 20
613.710273
 42
0.027582
  0
VERTEX
  8
0
 10
591.030957
 20
619.680971
 42
0.011983
  0
VERTEX
  8
0
 10
589.196377
 20
627.500000
 42
0.007312
  0
VERTEX
  8
0
 10
586.313252
 20
637.956104
 42
0.004315
  0
VERTEX
  8
0
 10
582.580428
 20
650.360572
 42
0.003506
  0
VERTEX
  8
0
 10
577.803536
 20
665.379033
 42
0.001838
  0
VERTEX
  8
0
 10
571.660867
 20
684.000000
 42
-0.001651
  0
VERTEX
  8
0
 10
569.320293
 20
691.086332
 42
-0.001320
  0
VERTEX
  8
0
 10
566.843483
 20
698.737500
 42
-0.001334
  0
VERTEX
  8
0
 10
564.588852
 20
705.830596
 42
-0.003381
  0
VERTEX
  8
0
 10
562.999201
 20
711.000000
 42
0.005717
  0
VERTEX
  8
0
 10
561.644993
 20
715.331641
 42
0.005589
  0
VERTEX
  8
0
 10
560.182222
 20
719.664062
 42
0.005517
  0
VERTEX
  8
0
 10
558.813921
 20
723.437983
 42
0.020881
  0
VERTEX
  8
0
 10
557.834737
 20
725.750000
 42
0.019563
  0
VERTEX
  8
0
 10
556.473199
 20
728.355763
 42
0.123874
  0
VERTEX
  8
0
 10
555.443018
 20
729.424342
 42
0.121408
  0
VERTEX
  8
0
 10
554.020383
 20
729.888798
 42
0.018485
  0
VERTEX
  8
0
 10
551.013517
 20
730.000000
 42
0.038235
  0
VERTEX
  8
0
 10
548.338488
 20
729.795142
 42
0.036498
  0
VERTEX
  8
0
 10
545.682715
 20
729.184986
 42
0.029840
  0
VERTEX
  8
0
 10
542.710896
 20
728.071630
 42
0.014248
  0
SEQEND
  0
POLYLINE
  8
0
 66
1
 70
1
  0
VERTEX
  8
0
 10
194.000000
 20
675.407966
 42
0.011971
  0
VERTEX
  8
0
 10
181.573554
 20
673.149521
 42
0.006163
  0
VERTEX
  8
0
 10
166.126957
 20
669.759381
 42
0.005956
  0
VERTEX
  8
0
 10
149.668204
 20
665.726621
 42
0.006769
  0
VERTEX
  8
0
 10
134.000000
 20
661.462131
 42
0.001440
  0
VERTEX
  8
0
 10
120.144516
 20
657.445587
 42
0.012544
  0
VERTEX
  8
0
 10
114.040920
 20
655.489628
 42
0.021599
  0
VERTEX
  8
0
 10
110.681383
 20
654.154028
 42
0.295477
  0
VERTEX
  8
0
 10
110.000000
 20
653.101674
 42
0.203391
  0
VERTEX
  8
0
 10
110.855043
 20
651.086666
 42
0.034459
  0
VERTEX
  8
0
 10
114.123363
 20
648.337775
 42
0.034766
  0
VERTEX
  8
0
 10
118.462899
 20
645.611708
 42
0.032590
  0
VERTEX
  8
0
 10
123.231163
 20
643.446598
 42
-0.004069
  0
VERTEX
  8
0
 10
126.589507
 20
642.147066
 42
-0.002182
  0
VERTEX
  8
0
 10
130.714779
 20
640.491181
 42
-0.002172
  0
VERTEX
  8
0
 10
134.908585
 20
638.765230
 42
-0.003400
  0
VERTEX
  8
0
 10
138.500000
 20
637.240175
 42
0.017224
  0
VERTEX
  8
0
 10
162.578630
 20
627.792204
 42
0.034752
  0
VERTEX
  8
0
 10
182.216080
 20
622.357368
 42
0.045042
  0
VERTEX
  8
0
 10
197.685241
 20
620.640999
 42
0.118378
  0
VERTEX
  8
0
 10
208.517767
 20
623.008601
 42
0.076443
  0
VERTEX
  8
0
 10
216.428549
 20
628.460576
 42
0.054159
  0
VERTEX
  8
0
 10
223.440205
 20
636.675045
 42
0.049070
  0
VERTEX
  8
0
 10
229.141273
 20
647.103576
 42
0.040399
  0
VERTEX
  8
0
 10
233.150143
 20
659.141248
 42
0.018574
  0
VERTEX
  8
0
 10
234.527503
 20
665.813299
 42
0.080275
  0
VERTEX
  8
0
 10
234.552625
 20
669.847412
 42
0.134877
  0
VERTEX
  8
0
 10
233.327649
 20
672.574956
 42
0.097390
  0
VERTEX
  8
0
 10
230.735513
 20
674.698591
 42
0.102490
  0
VERTEX
  8
0
 10
225.776224
 20
676.167388
 42
0.016093
  0
VERTEX
  8
0
 10
215.546298
 20
676.694598
 42
0.018672
  0
VERTEX
  8
0
 10
204.209070
 20
676.490142
 42
0.025123
  0
SEQEND
  0
POLYLINE
  8
0
 66
1
 70
1
  0
VERTEX
  8
0
 10
266.000000
 20
670.394345
 42
-0.038644
  0
VERTEX
  8
0
 10
265.647307
 20
665.837801
 42
-0.022148
  0
VERTEX
  8
0
 10
264.557914
 20
660.429992
 42
-0.019986
  0
VERTEX
  8
0
 10
262.818523
 20
654.449657
 42
-0.015841
  0
VERTEX
  8
0
 10
260.480698
 20
648.137230
 42
0.010060
  0
VERTEX
  8
0
 10
259.529634
 20
645.657634
 42
0.015569
  0
VERTEX
  8
0
 10
258.819089
 20
643.477011
 42
0.009866
  0
VERTEX
  8
0
 10
258.330609
 20
641.670827
 42
0.263292
  0
VERTEX
  8
0
 10
258.459058
 20
641.207608
 42
0.392832
  0
VERTEX
  8
0
 10
258.905062
 20
641.191199
 42
0.002750
  0
VERTEX
  8
0
 10
262.013404
 20
643.902878
 42
0.008308
  0
VERTEX
  8
0
 10
265.605205
 20
647.178978
 42
0.004994
  0
VERTEX
  8
0
 10
269.762955
 20
651.178999
 42
-0.004522
  0
VERTEX
  8
0
 10
274.039473
 20
655.301061
 42
-0.006006
  0
VERTEX
  8
0
 10
278.006930
 20
658.967247
 42
-0.004363
  0
VERTEX
  8
0
 10
281.386509
 20
661.962688
 42
-0.058736
  0
VERTEX
  8
0
 10
282.750000
 20
662.893804
 42
0.028016
  0
VERTEX
  8
0
 10
283.611382
 20
663.407603
 42
0.035684
  0
VERTEX
  8
0
 10
284.339063
 20
663.978428
 42
0.038557
  0
VERTEX
  8
0
 10
284.855113
 20
664.524436
 42
0.171688
  0
VERTEX
  8
0
 10
285.000000
 20
664.933945
 42
0.272555
  0
VERTEX
  8
0
 10
284.521282
 20
665.746913
 42
0.001511
  0
VERTEX
  8
0
 10
276.329050
 20
670.258678
 42
0.002656
  0
VERTEX
  8
0
 10
268.371705
 20
674.555046
 42
0.123056
  0
VERTEX
  8
0
 10
266.591154
 20
675.000000
 42
0.360530
  0
VERTEX
  8
0
 10
266.357357
 20
674.806232
 42
0.014761
  0
VERTEX
  8
0
 10
266.173651
 20
673.647089
 42
0.019866
  0
VERTEX
  8
0
 10
266.042565
 20
672.160116
 42
0.012051
  0
SEQEND
  0
POLYLINE
  8
0
 66
1
 70
1
  0
VERTEX
  8
0
 10
419.000000
 20
664.511603
 42
0.007012
  0
VERTEX
  8
0
 10
415.476696
 20
663.755151
 42
0.001699
  0
VERTEX
  8
0
 10
409.674329
 20
662.403232
 42
0.001742
  0
VERTEX
  8
0
 10
403.028710
 20
660.806548
 42
0.001731
  0
VERTEX
  8
0
 10
396.380695
 20
659.160354
 42
-0.007245
  0
VERTEX
  8
0
 10
388.591980
 20
657.322608
 42
-0.010538
  0
VERTEX
  8
0
 10
381.668944
 20
655.946986
 42
-0.011897
  0
VERTEX
  8
0
 10
375.469453
 20
655.001912
 42
-0.016560
  0
VERTEX
  8
0
 10
369.880695
 20
654.472937
 42
0.007701
  0
VERTEX
  8
0
 10
361.687436
 20
653.843661
 42
0.011951
  0
VERTEX
  8
0
 10
354.645110
 20
653.023372
 42
0.012607
  0
VERTEX
  8
0
 10
347.934744
 20
651.905505
 42
0.010095
  0
VERTEX
  8
0
 10
340.769331
 20
650.374695
 42
0.000000
  0
VERTEX
  8
0
 10
334.038662
 20
648.794036
 42
0.000000
  0
VERTEX
  8
0
 10
329.982543
 20
636.326524
 42
0.009992
  0
VERTEX
  8
0
 10
328.017575
 20
629.849511
 42
0.015237
  0
VERTEX
  8
0
 10
326.597787
 20
624.148951
 42
0.016120
  0
VERTEX
  8
0
 10
325.583852
 20
618.620471
 42
0.013351
  0
VERTEX
  8
0
 10
324.852731
 20
612.679506
 42
0.019362
  0
VERTEX
  8
0
 10
324.331935
 20
603.557208
 42
0.009209
  0
VERTEX
  8
0
 10
324.333195
 20
591.792851
 42
0.007181
  0
VERTEX
  8
0
 10
324.703653
 20
580.531801
 42
0.058107
  0
VERTEX
  8
0
 10
325.542609
 20
575.440975
 42
0.188660
  0
VERTEX
  8
0
 10
326.532987
 20
574.144528
 42
0.030823
  0
VERTEX
  8
0
 10
329.384192
 20
572.646056
 42
0.019255
  0
VERTEX
  8
0
 10
334.195722
 20
570.703299
 42
0.003980
  0
VERTEX
  8
0
 10
342.816690
 20
567.680020
 42
0.005356
  0
VERTEX
  8
0
 10
355.424262
 20
563.521345
 42
0.003629
  0
VERTEX
  8
0
 10
369.871306
 20
559.042096
 42
0.003506
  0
VERTEX
  8
0
 10
385.075622
 20
554.564844
 42
0.003753
  0
VERTEX
  8
0
 10
400.000000
 20
550.404497
 42
0.016675
  0
VERTEX
  8
0
 10
404.842102
 20
549.265608
 42
0.021675
  0
VERTEX
  8
0
 10
409.344317
 20
548.565275
 42
0.018495
  0
VERTEX
  8
0
 10
414.413057
 20
548.189567
 42
0.008224
  0
VERTEX
  8
0
 10
421.113436
 20
548.051821
 42
0.000000
  0
VERTEX
  8
0
 10
433.726873
 20
548.000000
 42
0.000000
  0
VERTEX
  8
0
 10
436.281037
 20
553.750000
 42
0.009303
  0
VERTEX
  8
0
 10
437.333919
 20
556.244353
 42
0.007297
  0
VERTEX
  8
0
 10
438.385367
 20
558.985937
 42
0.007387
  0
VERTEX
  8
0
 10
439.288671
 20
561.565356
 42
0.017936
  0
VERTEX
  8
0
 10
439.858014
 20
563.500000
 42
0.060555
  0
VERTEX
  8
0
 10
440.981868
 20
572.138196
 42
0.001501
  0
VERTEX
  8
0
 10
441.197883
 20
612.051840
 42
0.001165
  0
VERTEX
  8
0
 10
441.201166
 20
652.668566
 42
0.081561
  0
VERTEX
  8
0
 10
440.089073
 20
659.346775
 42
0.122772
  0
VERTEX
  8
0
 10
437.617852
 20
663.184499
 42
0.129263
  0
VERTEX
  8
0
 10
433.678203
 20
665.322838
 42
0.082572
  0
VERTEX
  8
0
 10
427.729857
 20
665.772239
 42
0.027032
  0
SEQEND
  0
POLYLINE
  8
0
 66
1
 70
1
  0
VERTEX
  8
0
 10
469.685998
 20
660.946263
 42
0.092564
  0
VERTEX
  8
0
 10
465.709451
 20
654.054627
 42
0.040689
  0
VERTEX
  8
0
 10
463.017831
 20
643.830004
 42
0.026045
  0
VERTEX
  8
0
 10
461.142797
 20
628.786008
 42
0.007612
  0
VERTEX
  8
0
 10
459.821141
 20
605.500000
 42
0.001043
  0
VERTEX
  8
0
 10
458.975299
 20
584.036774
 42
0.007323
  0
VERTEX
  8
0
 10
458.738185
 20
573.573513
 42
0.013581
  0
VERTEX
  8
0
 10
458.883174
 20
566.002715
 42
0.010360
  0
VERTEX
  8
0
 10
459.438408
 20
557.731684
 42
0.005104
  0
VERTEX
  8
0
 10
460.000690
 20
552.009922
 42
0.043690
  0
VERTEX
  8
0
 10
460.500193
 20
549.487389
 42
0.117048
  0
VERTEX
  8
0
 10
461.232681
 20
548.195661
 42
0.157540
  0
VERTEX
  8
0
 10
462.398887
 20
547.544248
 42
0.013333
  0
VERTEX
  8
0
 10
467.347366
 20
546.693658
 42
0.000324
  0
VERTEX
  8
0
 10
490.298361
 20
543.391145
 42
0.000614
  0
VERTEX
  8
0
 10
512.170886
 20
540.285676
 42
0.005261
  0
VERTEX
  8
0
 10
521.973766
 20
539.011165
 42
0.020438
  0
VERTEX
  8
0
 10
531.523937
 20
538.265726
 42
0.009300
  0
VERTEX
  8
0
 10
544.049748
 20
538.034886
 42
0.008481
  0
VERTEX
  8
0
 10
556.111099
 20
538.241575
 42
0.038204
  0
VERTEX
  8
0
 10
563.113510
 20
539.018270
 42
0.033704
  0
VERTEX
  8
0
 10
567.764594
 20
540.226807
 42
0.028263
  0
VERTEX
  8
0
 10
572.501832
 20
542.108549
 42
0.027218
  0
VERTEX
  8
0
 10
576.485999
 20
544.228766
 42
0.122674
  0
VERTEX
  8
0
 10
578.332345
 20
546.083242
 42
0.303909
  0
VERTEX
  8
0
 10
578.250035
 20
547.695610
 42
0.004872
  0
VERTEX
  8
0
 10
572.445249
 20
555.318358
 42
0.007086
  0
VERTEX
  8
0
 10
563.418390
 20
566.601926
 42
0.001366
  0
VERTEX
  8
0
 10
546.732831
 20
586.750966
 42
-0.001205
  0
VERTEX
  8
0
 10
533.974625
 20
602.147328
 42
-0.001652
  0
VERTEX
  8
0
 10
522.573076
 20
616.067612
 42
-0.001062
  0
VERTEX
  8
0
 10
513.055632
 20
627.817059
 42
-0.019514
  0
VERTEX
  8
0
 10
510.190541
 20
631.667724
 42
0.013524
  0
VERTEX
  8
0
 10
508.379661
 20
634.163393
 42
0.009847
  0
VERTEX
  8
0
 10
506.238383
 20
636.841598
 42
0.009961
  0
VERTEX
  8
0
 10
504.105324
 20
639.302952
 42
0.021474
  0
VERTEX
  8
0
 10
502.347407
 20
641.090907
 42
0.012018
  0
VERTEX
  8
0
 10
496.874185
 20
645.958443
 42
0.002103
  0
VERTEX
  8
0
 10
486.310132
 20
654.832088
 42
0.000270
  0
VERTEX
  8
0
 10
474.432307
 20
664.713543
 42
0.175099
  0
VERTEX
  8
0
 10
473.639399
 20
665.000000
 42
0.197108
  0
VERTEX
  8
0
 10
473.341112
 20
664.877657
 42
0.004869
  0
VERTEX
  8
0
 10
472.278622
 20
663.809215
 42
0.009802
  0
VERTEX
  8
0
 10
471.050783
 20
662.499818
 42
0.006429
  0
SEQEND
  0
POLYLINE
  8
0
 66
1
 70
1
  0
VERTEX
  8
0
 10
299.257958
 20
645.499879
 42
0.045411
  0
VERTEX
  8
0
 10
285.226859
 20
638.580421
 42
0.025827
  0
VERTEX
  8
0
 10
269.602671
 20
627.878578
 42
0.025867
  0
VERTEX
  8
0
 10
255.283007
 20
615.721006
 42
0.048881
  0
VERTEX
  8
0
 10
245.333520
 20
604.318903
 42
0.014888
  0
VERTEX
  8
0
 10
243.659654
 20
601.819005
 42
0.022561
  0
VERTEX
  8
0
 10
242.370619
 20
599.541991
 42
0.019256
  0
VERTEX
  8
0
 10
241.502402
 20
597.656387
 42
0.241162
  0
VERTEX
  8
0
 10
241.563479
 20
596.897288
 42
0.145756
  0
VERTEX
  8
0
 10
243.485306
 20
595.185189
 42
0.012198
  0
VERTEX
  8
0
 10
249.650295
 20
592.477210
 42
0.017014
  0
VERTEX
  8
0
 10
256.644426
 20
589.880801
 42
0.021536
  0
VERTEX
  8
0
 10
263.274113
 20
587.986117
 42
0.041886
  0
VERTEX
  8
0
 10
276.391994
 20
585.982356
 42
0.071168
  0
VERTEX
  8
0
 10
287.441847
 20
586.804220
 42
0.089950
  0
VERTEX
  8
0
 10
295.952122
 20
590.359797
 42
0.121702
  0
VERTEX
  8
0
 10
301.633307
 20
596.416566
 42
0.074895
  0
VERTEX
  8
0
 10
304.620266
 20
604.311645
 42
0.012617
  0
VERTEX
  8
0
 10
307.630270
 20
620.224690
 42
0.012657
  0
VERTEX
  8
0
 10
309.832576
 20
636.270447
 42
0.074206
  0
VERTEX
  8
0
 10
309.518233
 20
644.750000
 42
0.089653
  0
VERTEX
  8
0
 10
308.674069
 20
646.965644
 42
0.243390
  0
VERTEX
  8
0
 10
307.284257
 20
647.818609
 42
0.100014
  0
VERTEX
  8
0
 10
304.806141
 20
647.503673
 42
0.010405
  0
SEQEND
  0
POLYLINE
  8
0
 66
1
 70
1
  0
VERTEX
  8
0
 10
95.385635
 20
627.871228
 42
-0.004402
  0
VERTEX
  8
0
 10
95.781200
 20
626.449523
 42
-0.000624
  0
VERTEX
  8
0
 10
96.565217
 20
623.517876
 42
-0.000711
  0
VERTEX
  8
0
 10
97.483712
 20
620.046282
 42
-0.000605
  0
VERTEX
  8
0
 10
98.443108
 20
616.381115
 42
0.020441
  0
VERTEX
  8
0
 10
100.687359
 20
609.013517
 42
0.016108
  0
VERTEX
  8
0
 10
103.693815
 20
601.233855
 42
0.016474
  0
VERTEX
  8
0
 10
107.013380
 20
594.070159
 42
0.032504
  0
VERTEX
  8
0
 10
110.192557
 20
588.667254
 42
0.054057
  0
VERTEX
  8
0
 10
114.740919
 20
583.320167
 42
0.003270
  0
VERTEX
  8
0
 10
130.147177
 20
568.927707
 42
0.002935
  0
VERTEX
  8
0
 10
145.867878
 20
554.602673
 42
0.063243
  0
VERTEX
  8
0
 10
151.007623
 20
551.034885
 42
0.020937
  0
VERTEX
  8
0
 10
152.533276
 20
550.319228
 42
0.017169
  0
VERTEX
  8
0
 10
154.217018
 20
549.680830
 42
0.017507
  0
VERTEX
  8
0
 10
155.807151
 20
549.201002
 42
0.043126
  0
VERTEX
  8
0
 10
157.007623
 20
548.992636
 42
0.076569
  0
VERTEX
  8
0
 10
163.462049
 20
549.426901
 42
0.126236
  0
VERTEX
  8
0
 10
168.306186
 20
551.894652
 42
0.081093
  0
VERTEX
  8
0
 10
172.722403
 20
557.282040
 42
0.018574
  0
VERTEX
  8
0
 10
178.257166
 20
567.716840
 42
0.042492
  0
VERTEX
  8
0
 10
183.854950
 20
582.339541
 42
0.206980
  0
VERTEX
  8
0
 10
182.752164
 20
590.940211
 42
0.145625
  0
VERTEX
  8
0
 10
175.295298
 20
597.829523
 42
0.018282
  0
VERTEX
  8
0
 10
155.000000
 20
606.894808
 42
-0.005677
  0
VERTEX
  8
0
 10
148.442581
 20
609.627715
 42
-0.004773
  0
VERTEX
  8
0
 10
141.556250
 20
612.668137
 42
-0.004818
  0
VERTEX
  8
0
 10
135.321024
 20
615.565235
 42
-0.013251
  0
VERTEX
  8
0
 10
131.000000
 20
617.766108
 42
0.002988
  0
VERTEX
  8
0
 10
117.845652
 20
624.809818
 42
0.023604
  0
VERTEX
  8
0
 10
111.585854
 20
627.744900
 42
0.047144
  0
VERTEX
  8
0
 10
106.949752
 20
629.163909
 42
0.036606
  0
VERTEX
  8
0
 10
101.715388
 20
629.846240
 42
0.004053
  0
VERTEX
  8
0
 10
97.050549
 20
630.071909
 42
0.085880
  0
VERTEX
  8
0
 10
95.679986
 20
629.891182
 42
0.322126
  0
VERTEX
  8
0
 10
95.205209
 20
629.260233
 42
0.075644
  0
SEQEND
  0
POLYLINE
  8
0
 66
1
 70
1
  0
VERTEX
  8
0
 10
56.522550
 20
623.750000
 42
-0.000319
  0
VERTEX
  8
0
 10
55.621405
 20
621.624421
 42
-0.000024
  0
VERTEX
  8
0
 10
53.179563
 20
615.875716
 42
-0.000033
  0
VERTEX
  8
0
 10
50.266105
 20
609.018905
 42
-0.000025
  0
VERTEX
  8
0
 10
47.073577
 20
601.507756
 42
0.000000
  0
VERTEX
  8
0
 10
39.000000
 20
582.515512
 42
0.000000
  0
VERTEX
  8
0
 10
39.000000
 20
547.800101
 42
0.000000
  0
VERTEX
  8
0
 10
39.000000
 20
513.084690
 42
0.000000
  0
VERTEX
  8
0
 10
45.750000
 20
511.080137
 42
0.016590
  0
VERTEX
  8
0
 10
59.655255
 20
507.447983
 42
0.037675
  0
VERTEX
  8
0
 10
70.394922
 20
505.857705
 42
0.035936
  0
VERTEX
  8
0
 10
81.556103
 20
505.859373
 42
0.013871
  0
VERTEX
  8
0
 10
96.970141
 20
507.401750
 42
-0.005981
  0
VERTEX
  8
0
 10
102.243933
 20
508.013649
 42
-0.005213
  0
VERTEX
  8
0
 10
107.778197
 20
508.530514
 42
-0.005248
  0
VERTEX
  8
0
 10
112.793337
 20
508.893249
 42
-0.015428
  0
VERTEX
  8
0
 10
116.252260
 20
509.000000
 42
0.029488
  0
VERTEX
  8
0
 10
121.632240
 20
509.317566
 42
0.055614
  0
VERTEX
  8
0
 10
125.862235
 20
510.303667
 42
0.067642
  0
VERTEX
  8
0
 10
129.189736
 20
512.015838
 42
0.073628
  0
VERTEX
  8
0
 10
131.832100
 20
514.513679
 42
0.112486
  0
VERTEX
  8
0
 10
133.560441
 20
518.161338
 42
0.093474
  0
VERTEX
  8
0
 10
133.698338
 20
522.462439
 42
0.089499
  0
VERTEX
  8
0
 10
132.240650
 20
526.678507
 42
0.092002
  0
VERTEX
  8
0
 10
129.411172
 20
530.072833
 42
-0.056003
  0
VERTEX
  8
0
 10
128.461407
 20
531.059211
 42
-0.006462
  0
VERTEX
  8
0
 10
126.618089
 20
533.526335
 42
-0.007717
  0
VERTEX
  8
0
 10
124.501818
 20
536.532964
 42
-0.006226
  0
VERTEX
  8
0
 10
122.319109
 20
539.825330
 42
0.023870
  0
VERTEX
  8
0
 10
119.122553
 20
544.296130
 42
0.009554
  0
VERTEX
  8
0
 10
114.346140
 20
550.112333
 42
0.008641
  0
VERTEX
  8
0
 10
108.484960
 20
556.742183
 42
0.006527
  0
VERTEX
  8
0
 10
101.829554
 20
563.825330
 42
-0.004517
  0
VERTEX
  8
0
 10
95.795385
 20
570.195783
 42
-0.005225
  0
VERTEX
  8
0
 10
90.166741
 20
576.374901
 42
-0.004693
  0
VERTEX
  8
0
 10
85.507263
 20
581.698447
 42
-0.030481
  0
VERTEX
  8
0
 10
83.356164
 20
584.536036
 42
-0.037757
  0
VERTEX
  8
0
 10
81.710298
 20
587.463127
 42
-0.010018
  0
VERTEX
  8
0
 10
79.539670
 20
592.366961
 42
-0.009822
  0
VERTEX
  8
0
 10
77.225050
 20
598.212225
 42
-0.008535
  0
VERTEX
  8
0
 10
75.025841
 20
604.422863
 42
0.005548
  0
VERTEX
  8
0
 10
71.193485
 20
615.454534
 42
0.038761
  0
VERTEX
  8
0
 10
68.854482
 20
620.651239
 42
0.081883
  0
VERTEX
  8
0
 10
66.544589
 20
623.604171
 42
0.087170
  0
VERTEX
  8
0
 10
63.454338
 20
625.583526
 42
0.019585
  0
VERTEX
  8
0
 10
60.344751
 20
626.741980
 42
0.145013
  0
VERTEX
  8
0
 10
58.781630
 20
626.787999
 42
0.191399
  0
VERTEX
  8
0
 10
57.671071
 20
625.966630
 42
0.038874
  0
SEQEND
  0
POLYLINE
  8
0
 66
1
 70
1
  0
VERTEX
  8
0
 10
214.513105
 20
568.931780
 42
0.050132
  0
VERTEX
  8
0
 10
210.181476
 20
566.198894
 42
0.039775
  0
VERTEX
  8
0
 10
206.102647
 20
562.455598
 42
0.034699
  0
VERTEX
  8
0
 10
202.179400
 20
557.598008
 42
0.022537
  0
VERTEX
  8
0
 10
198.314047
 20
551.500000
 42
-0.008036
  0
VERTEX
  8
0
 10
196.311656
 20
548.128676
 42
-0.006718
  0
VERTEX
  8
0
 10
194.081284
 20
544.614004
 42
-0.006790
  0
VERTEX
  8
0
 10
191.954566
 20
541.454670
 42
-0.018382
  0
VERTEX
  8
0
 10
190.335135
 20
539.292354
 42
0.000000
  0
VERTEX
  8
0
 10
186.935513
 20
535.084708
 42
0.000000
  0
VERTEX
  8
0
 10
189.717756
 20
533.661919
 42
0.082123
  0
VERTEX
  8
0
 10
196.963366
 20
531.350274
 42
0.019069
  0
VERTEX
  8
0
 10
209.718110
 20
529.982593
 42
0.018059
  0
VERTEX
  8
0
 10
225.475416
 20
529.469112
 42
0.012736
  0
VERTEX
  8
0
 10
243.190811
 20
529.983140
 42
0.011661
  0
VERTEX
  8
0
 10
267.427129
 20
531.872503
 42
0.042856
  0
VERTEX
  8
0
 10
282.527517
 20
534.726213
 42
0.074348
  0
VERTEX
  8
0
 10
291.903311
 20
538.922882
 42
0.153390
  0
VERTEX
  8
0
 10
297.007829
 20
545.018900
 42
0.028476
  0
VERTEX
  8
0
 10
297.644693
 20
546.843847
 42
0.119627
  0
VERTEX
  8
0
 10
297.691601
 20
547.995605
 42
0.114585
  0
VERTEX
  8
0
 10
297.205908
 20
549.067072
 42
0.025110
  0
VERTEX
  8
0
 10
295.887536
 20
550.619726
 42
0.055676
  0
VERTEX
  8
0
 10
294.416184
 20
551.872606
 42
0.011591
  0
VERTEX
  8
0
 10
291.557589
 20
553.708736
 42
0.012034
  0
VERTEX
  8
0
 10
288.120647
 20
555.693561
 42
0.011107
  0
VERTEX
  8
0
 10
284.500000
 20
557.566691
 42
0.043419
  0
VERTEX
  8
0
 10
266.573927
 20
564.487237
 42
0.030175
  0
VERTEX
  8
0
 10
245.385607
 20
569.254641
 42
0.028593
  0
VERTEX
  8
0
 10
225.740392
 20
571.301429
 42
0.128018
  0
SEQEND
  0
POLYLINE
  8
0
 66
1
 70
1
  0
VERTEX
  8
0
 10
321.266607
 20
543.996429
 42
0.052331
  0
VERTEX
  8
0
 10
322.441323
 20
538.048692
 42
0.055996
  0
VERTEX
  8
0
 10
324.811315
 20
532.617198
 42
0.058038
  0
VERTEX
  8
0
 10
328.232532
 20
528.015035
 42
0.064697
  0
VERTEX
  8
0
 10
332.508693
 20
524.511726
 42
0.026147
  0
VERTEX
  8
0
 10
335.290919
 20
522.974102
 42
0.044909
  0
VERTEX
  8
0
 10
337.765929
 20
522.034459
 42
0.039686
  0
VERTEX
  8
0
 10
340.573284
 20
521.483611
 42
0.015994
  0
VERTEX
  8
0
 10
344.469691
 20
521.161664
 42
0.026247
  0
VERTEX
  8
0
 10
349.019816
 20
521.170889
 42
0.037282
  0
VERTEX
  8
0
 10
353.030284
 20
521.691288
 42
0.023045
  0
VERTEX
  8
0
 10
358.136455
 20
522.993211
 42
0.004349
  0
VERTEX
  8
0
 10
367.319316
 20
525.878460
 42
-0.004764
  0
VERTEX
  8
0
 10
373.745901
 20
527.891839
 42
-0.005052
  0
VERTEX
  8
0
 10
380.085366
 20
529.742078
 42
-0.004827
  0
VERTEX
  8
0
 10
385.574132
 20
531.227005
 42
-0.023010
  0
VERTEX
  8
0
 10
388.752238
 20
531.899569
 42
0.007976
  0
VERTEX
  8
0
 10
391.136004
 20
532.329616
 42
0.007584
  0
VERTEX
  8
0
 10
393.545394
 20
532.842168
 42
0.007555
  0
VERTEX
  8
0
 10
395.661124
 20
533.359662
 42
0.026478
  0
VERTEX
  8
0
 10
396.998040
 20
533.784875
 42
0.145201
  0
VERTEX
  8
0
 10
397.809468
 20
534.400788
 42
0.444103
  0
VERTEX
  8
0
 10
397.686545
 20
534.998783
 42
0.055434
  0
VERTEX
  8
0
 10
396.015364
 20
535.747953
 42
0.003701
  0
VERTEX
  8
0
 10
390.998040
 20
537.318001
 42
0.012774
  0
VERTEX
  8
0
 10
373.193698
 20
542.251683
 42
0.012300
  0
VERTEX
  8
0
 10
354.935614
 20
546.337919
 42
0.012631
  0
VERTEX
  8
0
 10
338.513297
 20
549.162255
 42
0.036279
  0
VERTEX
  8
0
 10
326.982774
 20
550.000000
 42
0.000000
  0
VERTEX
  8
0
 10
320.722223
 20
550.000000
 42
0.000000
  0
SEQEND
  0
POLYLINE
  8
0
 66
1
 70
1
  0
VERTEX
  8
0
 10
245.500000
 20
513.384785
 42
-0.001444
  0
VERTEX
  8
0
 10
243.192945
 20
513.182057
 42
-0.000254
  0
VERTEX
  8
0
 10
238.856250
 20
512.815815
 42
-0.000275
  0
VERTEX
  8
0
 10
233.770400
 20
512.391728
 42
-0.000247
  0
VERTEX
  8
0
 10
228.500000
 20
511.957802
 42
0.005694
  0
VERTEX
  8
0
 10
213.957123
 20
510.600815
 42
0.004076
  0
VERTEX
  8
0
 10
197.724753
 20
508.765640
 42
0.003783
  0
VERTEX
  8
0
 10
182.868174
 20
506.849067
 42
0.016181
  0
VERTEX
  8
0
 10
174.059098
 20
505.353054
 42
0.032767
  0
VERTEX
  8
0
 10
166.689898
 20
503.344558
 42
0.052620
  0
VERTEX
  8
0
 10
160.792881
 20
500.591793
 42
0.041241
  0
VERTEX
  8
0
 10
154.680565
 20
496.188173
 42
0.012884
  0
VERTEX
  8
0
 10
146.273504
 20
488.626299
 42
0.000000
  0
VERTEX
  8
0
 10
135.138506
 20
478.079285
 42
0.000000
  0
VERTEX
  8
0
 10
141.591066
 20
475.030597
 42
0.035304
  0
VERTEX
  8
0
 10
152.388143
 20
470.832759
 42
0.025641
  0
VERTEX
  8
0
 10
164.887527
 20
467.654994
 42
0.022983
  0
VERTEX
  8
0
 10
179.081149
 20
465.484709
 42
0.016761
  0
VERTEX
  8
0
 10
195.000000
 20
464.332507
 42
0.033281
  0
VERTEX
  8
0
 10
225.806665
 20
465.189187
 42
0.039404
  0
VERTEX
  8
0
 10
254.493992
 20
470.205307
 42
0.043911
  0
VERTEX
  8
0
 10
278.557643
 20
478.707703
 42
0.087001
  0
VERTEX
  8
0
 10
295.201531
 20
490.118059
 42
0.036722
  0
VERTEX
  8
0
 10
301.451831
 20
497.203537
 42
0.152819
  0
VERTEX
  8
0
 10
303.361589
 20
502.498561
 42
0.214011
  0
VERTEX
  8
0
 10
301.627377
 20
506.855577
 42
0.078617
  0
VERTEX
  8
0
 10
296.086563
 20
510.756414
 42
0.033784
  0
VERTEX
  8
0
 10
292.137083
 20
512.375087
 42
0.053034
  0
VERTEX
  8
0
 10
288.556717
 20
513.158652
 42
0.023728
  0
VERTEX
  8
0
 10
283.270079
 20
513.487039
 42
0.002135
  0
VERTEX
  8
0
 10
270.000000
 20
513.623960
 42
0.001738
  0
VERTEX
  8
0
 10
261.857066
 20
513.644893
 42
0.002214
  0
VERTEX
  8
0
 10
254.346875
 20
513.604836
 42
0.001725
  0
VERTEX
  8
0
 10
248.051201
 20
513.521656
 42
0.018471
  0
SEQEND
  0
POLYLINE
  8
0
 66
1
 70
1
  0
VERTEX
  8
0
 10
482.500000
 20
512.032700
 42
0.044579
  0
VERTEX
  8
0
 10
473.023921
 20
510.070363
 42
0.031347
  0
VERTEX
  8
0
 10
462.812638
 20
506.273709
 42
0.029841
  0
VERTEX
  8
0
 10
452.571892
 20
500.964249
 42
0.029510
  0
VERTEX
  8
0
 10
442.996136
 20
494.455520
 42
0.008020
  0
VERTEX
  8
0
 10
435.906524
 20
488.815398
 42
0.025368
  0
VERTEX
  8
0
 10
431.422191
 20
484.730792
 42
0.036455
  0
VERTEX
  8
0
 10
428.747884
 20
481.609404
 42
0.160234
  0
VERTEX
  8
0
 10
428.000000
 20
479.335596
 42
0.167923
  0
VERTEX
  8
0
 10
428.526515
 20
477.812079
 42
0.125637
  0
VERTEX
  8
0
 10
429.945033
 20
476.721696
 42
0.042672
  0
VERTEX
  8
0
 10
432.995124
 20
475.710617
 42
0.004336
  0
VERTEX
  8
0
 10
440.435307
 20
473.998919
 42
-0.017329
  0
VERTEX
  8
0
 10
443.555639
 20
473.195153
 42
-0.001593
  0
VERTEX
  8
0
 10
451.217152
 20
470.909270
 42
-0.002056
  0
VERTEX
  8
0
 10
460.336280
 20
468.115854
 42
-0.001610
  0
VERTEX
  8
0
 10
470.209029
 20
465.012230
 42
-0.003983
  0
VERTEX
  8
0
 10
481.780997
 20
461.231698
 42
-0.008814
  0
VERTEX
  8
0
 10
490.532023
 20
458.122754
 42
-0.010994
  0
VERTEX
  8
0
 10
497.045688
 20
455.513765
 42
-0.035748
  0
VERTEX
  8
0
 10
501.180565
 20
453.390312
 42
0.000000
  0
VERTEX
  8
0
 10
507.313687
 20
449.664638
 42
0.000000
  0
VERTEX
  8
0
 10
513.404196
 20
450.922612
 42
0.038782
  0
VERTEX
  8
0
 10
521.424743
 20
453.239450
 42
0.059654
  0
VERTEX
  8
0
 10
527.833123
 20
456.558635
 42
0.039818
  0
VERTEX
  8
0
 10
534.893064
 20
462.228849
 42
0.008805
  0
VERTEX
  8
0
 10
546.000000
 20
473.082488
 42
-0.004665
  0
VERTEX
  8
0
 10
552.433134
 20
479.473893
 42
-0.004752
  0
VERTEX
  8
0
 10
558.945025
 20
485.704299
 42
-0.004622
  0
VERTEX
  8
0
 10
564.704732
 20
491.011814
 42
-0.019588
  0
VERTEX
  8
0
 10
568.302212
 20
494.018303
 42
0.021707
  0
VERTEX
  8
0
 10
573.568407
 20
498.457381
 42
0.194163
  0
VERTEX
  8
0
 10
574.840861
 20
501.136181
 42
0.278994
  0
VERTEX
  8
0
 10
573.677994
 20
503.346849
 42
0.042196
  0
VERTEX
  8
0
 10
569.000000
 20
505.653213
 42
0.023304
  0
VERTEX
  8
0
 10
566.234534
 20
506.591529
 42
0.009017
  0
VERTEX
  8
0
 10
562.325000
 20
507.641914
 42
0.008905
  0
VERTEX
  8
0
 10
558.040264
 20
508.629945
 42
0.010885
  0
VERTEX
  8
0
 10
554.000000
 20
509.394634
 42
0.022085
  0
VERTEX
  8
0
 10
538.134562
 20
511.325741
 42
0.010020
  0
VERTEX
  8
0
 10
517.243447
 20
512.516123
 42
0.009827
  0
VERTEX
  8
0
 10
496.725563
 20
512.869596
 42
0.028175
  0
SEQEND
  0
POLYLINE
  8
0
 66
1
 70
1
  0
VERTEX
  8
0
 10
369.703547
 20
487.429011
 42
0.003225
  0
VERTEX
  8
0
 10
356.559289
 20
483.612622
 42
0.004802
  0
VERTEX
  8
0
 10
345.113177
 20
480.089085
 42
0.003366
  0
VERTEX
  8
0
 10
335.749750
 20
477.038351
 42
0.053178
  0
VERTEX
  8
0
 10
332.703547
 20
475.648829
 42
0.029289
  0
VERTEX
  8
0
 10
328.112505
 20
472.556403
 42
0.017271
  0
VERTEX
  8
0
 10
322.993493
 20
468.366906
 42
0.016045
  0
VERTEX
  8
0
 10
317.686071
 20
463.397724
 42
0.014408
  0
VERTEX
  8
0
 10
312.508355
 20
457.921627
 42
0.049662
  0
VERTEX
  8
0
 10
305.940313
 20
448.900917
 42
0.028287
  0
VERTEX
  8
0
 10
299.782619
 20
436.884206
 42
0.028168
  0
VERTEX
  8
0
 10
294.962789
 20
424.104835
 42
0.045041
  0
VERTEX
  8
0
 10
292.483512
 20
412.714333
 42
0.010949
  0
VERTEX
  8
0
 10
292.209743
 20
410.050178
 42
0.039119
  0
VERTEX
  8
0
 10
292.205796
 20
408.338489
 42
0.073504
  0
VERTEX
  8
0
 10
292.433688
 20
407.331853
 42
0.309724
  0
VERTEX
  8
0
 10
292.918020
 20
407.000000
 42
0.114954
  0
VERTEX
  8
0
 10
295.042933
 20
407.495076
 42
0.009403
  0
VERTEX
  8
0
 10
300.145549
 20
410.129612
 42
0.012913
  0
VERTEX
  8
0
 10
305.879962
 20
413.422368
 42
0.012502
  0
VERTEX
  8
0
 10
311.500000
 20
417.041049
 42
0.015484
  0
VERTEX
  8
0
 10
327.001975
 20
428.297202
 42
0.004414
  0
VERTEX
  8
0
 10
350.357466
 20
446.718364
 42
0.004351
  0
VERTEX
  8
0
 10
373.312407
 20
465.485539
 42
0.016641
  0
VERTEX
  8
0
 10
387.109916
 20
477.767235
 42
0.013151
  0
VERTEX
  8
0
 10
392.952540
 20
483.627652
 42
0.013936
  0
VERTEX
  8
0
 10
398.363612
 20
489.677652
 42
0.006161
  0
VERTEX
  8
0
 10
402.977309
 20
495.273233
 42
0.406242
  0
VERTEX
  8
0
 10
402.869669
 20
496.408211
 42
0.246900
  0
VERTEX
  8
0
 10
402.530949
 20
496.484086
 42
0.000162
  0
VERTEX
  8
0
 10
392.974632
 20
493.900184
 42
0.001825
  0
VERTEX
  8
0
 10
382.304995
 20
490.969701
 42
0.001108
  0
SEQEND
  0
POLYLINE
  8
0
 66
1
 70
1
  0
VERTEX
  8
0
 10
84.500000
 20
491.357975
 42
0.009532
  0
VERTEX
  8
0
 10
79.785527
 20
490.798073
 42
0.000487
  0
VERTEX
  8
0
 10
64.537272
 20
488.676513
 42
0.000722
  0
VERTEX
  8
0
 10
49.678132
 20
486.572458
 42
0.004751
  0
VERTEX
  8
0
 10
42.250000
 20
485.437567
 42
0.000000
  0
VERTEX
  8
0
 10
39.000000
 20
484.909374
 42
0.000000
  0
VERTEX
  8
0
 10
39.000000
 20
460.954687
 42
0.002186
  0
VERTEX
  8
0
 10
39.040154
 20
451.769288
 42
0.003645
  0
VERTEX
  8
0
 10
39.164135
 20
444.036689
 42
0.000535
  0
VERTEX
  8
0
 10
39.330370
 20
437.222646
 42
0.406776
  0
VERTEX
  8
0
 10
39.558758
 20
437.000000
 42
0.149077
  0
VERTEX
  8
0
 10
41.128980
 20
437.478807
 42
0.000269
  0
VERTEX
  8
0
 10
64.105190
 20
452.945454
 42
0.001141
  0
VERTEX
  8
0
 10
85.338600
 20
467.326057
 42
0.028982
  0
VERTEX
  8
0
 10
90.882059
 20
471.588817
 42
0.030965
  0
VERTEX
  8
0
 10
96.337255
 20
476.935907
 42
0.067218
  0
VERTEX
  8
0
 10
99.640113
 20
481.771352
 42
0.100997
  0
VERTEX
  8
0
 10
100.760490
 20
485.920851
 42
0.179878
  0
VERTEX
  8
0
 10
99.750000
 20
489.263761
 42
0.165825
  0
VERTEX
  8
0
 10
97.983941
 20
490.453006
 42
0.031889
  0
VERTEX
  8
0
 10
94.147547
 20
491.231591
 42
0.031546
  0
VERTEX
  8
0
 10
89.442265
 20
491.577588
 42
0.027376
  0
SEQEND
  0
POLYLINE
  8
0
 66
1
 70
1
  0
VERTEX
  8
0
 10
581.402466
 20
474.216024
 42
-0.002268
  0
VERTEX
  8
0
 10
576.634522
 20
469.653600
 42
-0.001842
  0
VERTEX
  8
0
 10
571.483420
 20
464.805004
 42
-0.001860
  0
VERTEX
  8
0
 10
566.702963
 20
460.371578
 42
-0.004839
  0
VERTEX
  8
0
 10
563.219273
 20
457.226544
 42
0.019199
  0
VERTEX
  8
0
 10
560.087503
 20
454.231606
 42
0.010853
  0
VERTEX
  8
0
 10
556.515781
 20
450.379368
 42
0.010822
  0
VERTEX
  8
0
 10
553.077472
 20
446.332581
 42
0.017450
  0
VERTEX
  8
0
 10
550.348946
 20
442.726544
 42
0.008511
  0
VERTEX
  8
0
 10
546.900969
 20
437.641275
 42
0.046951
  0
VERTEX
  8
0
 10
545.359764
 20
434.716518
 42
0.061892
  0
VERTEX
  8
0
 10
544.592910
 20
431.918661
 42
0.021364
  0
VERTEX
  8
0
 10
544.168744
 20
427.740290
 42
0.000000
  0
VERTEX
  8
0
 10
543.773209
 20
420.980581
 42
0.000000
  0
VERTEX
  8
0
 10
553.136605
 20
416.565056
 42
0.009790
  0
VERTEX
  8
0
 10
557.161230
 20
414.762608
 42
0.008115
  0
VERTEX
  8
0
 10
561.512003
 20
412.998271
 42
0.008211
  0
VERTEX
  8
0
 10
565.553395
 20
411.511098
 42
0.021779
  0
VERTEX
  8
0
 10
568.500000
 20
410.623333
 42
0.020561
  0
VERTEX
  8
0
 10
574.349898
 20
409.388901
 42
0.007522
  0
VERTEX
  8
0
 10
582.711355
 20
408.109734
 42
0.002071
  0
VERTEX
  8
0
 10
591.547153
 20
406.931000
 42
0.232529
  0
VERTEX
  8
0
 10
592.635116
 20
407.301782
 42
0.197925
  0
VERTEX
  8
0
 10
592.793052
 20
407.681035
 42
0.000138
  0
VERTEX
  8
0
 10
592.832676
 20
418.921133
 42
0.001559
  0
VERTEX
  8
0
 10
592.834334
 20
431.475528
 42
0.000949
  0
VERTEX
  8
0
 10
592.761887
 20
446.311244
 42
0.000000
  0
VERTEX
  8
0
 10
592.500000
 20
484.932048
 42
0.000000
  0
SEQEND
  0
POLYLINE
  8
0
 66
1
 70
1
  0
VERTEX
  8
0
 10
104.591996
 20
467.048393
 42
0.029649
  0
VERTEX
  8
0
 10
93.354510
 20
460.258211
 42
0.011532
  0
VERTEX
  8
0
 10
78.629311
 20
449.614580
 42
0.011647
  0
VERTEX
  8
0
 10
63.822778
 20
437.830184
 42
0.019482
  0
VERTEX
  8
0
 10
52.012391
 20
427.165146
 42
0.002994
  0
VERTEX
  8
0
 10
47.105344
 20
422.316324
 42
0.060098
  0
VERTEX
  8
0
 10
45.809890
 20
420.665378
 42
0.312445
  0
VERTEX
  8
0
 10
45.869150
 20
419.685380
 42
0.133934
  0
VERTEX
  8
0
 10
46.976494
 20
418.863585
 42
0.040792
  0
VERTEX
  8
0
 10
48.082169
 20
418.532886
 42
0.029292
  0
VERTEX
  8
0
 10
49.357496
 20
418.339464
 42
0.029774
  0
VERTEX
  8
0
 10
50.601685
 20
418.299113
 42
0.054753
  0
VERTEX
  8
0
 10
51.604402
 20
418.436847
 42
0.052330
  0
VERTEX
  8
0
 10
53.169312
 20
419.008917
 42
0.000663
  0
VERTEX
  8
0
 10
62.666737
 20
423.671433
 42
0.001933
  0
VERTEX
  8
0
 10
73.636104
 20
429.127427
 42
0.001265
  0
VERTEX
  8
0
 10
86.242281
 20
435.498456
 42
0.000000
  0
VERTEX
  8
0
 10
118.728746
 20
452.020093
 42
0.000000
  0
VERTEX
  8
0
 10
116.545024
 20
458.269521
 42
0.017729
  0
VERTEX
  8
0
 10
114.989867
 20
462.259907
 42
0.017419
  0
VERTEX
  8
0
 10
113.147497
 20
466.154068
 42
0.010000
  0
VERTEX
  8
0
 10
111.328226
 20
469.510192
 42
0.269789
  0
VERTEX
  8
0
 10
110.486536
 20
470.000000
 42
0.115770
  0
VERTEX
  8
0
 10
110.278849
 20
469.951259
 42
0.000803
  0
VERTEX
  8
0
 10
108.638094
 20
469.132965
 42
0.003059
  0
VERTEX
  8
0
 10
106.763264
 20
468.179781
 42
0.001946
  0
SEQEND
  0
POLYLINE
  8
0
 66
1
 70
1
  0
VERTEX
  8
0
 10
407.346687
 20
457.963875
 42
0.038639
  0
VERTEX
  8
0
 10
398.334019
 20
455.625782
 42
0.046196
  0
VERTEX
  8
0
 10
390.339338
 20
452.022989
 42
0.038049
  0
VERTEX
  8
0
 10
382.014655
 20
446.427655
 42
0.016514
  0
VERTEX
  8
0
 10
371.813977
 20
437.820636
 42
-0.004496
  0
VERTEX
  8
0
 10
367.170848
 20
433.707886
 42
-0.001753
  0
VERTEX
  8
0
 10
360.682856
 20
428.104131
 42
-0.001735
  0
VERTEX
  8
0
 10
353.616720
 20
422.086565
 42
-0.002154
  0
VERTEX
  8
0
 10
347.000000
 20
416.539925
 42
0.004809
  0
VERTEX
  8
0
 10
333.083983
 20
404.748084
 42
0.004879
  0
VERTEX
  8
0
 10
319.465318
 20
392.747230
 42
0.002697
  0
VERTEX
  8
0
 10
307.470126
 20
381.849685
 42
0.062048
  0
VERTEX
  8
0
 10
304.477331
 20
378.325058
 42
0.068246
  0
VERTEX
  8
0
 10
303.909247
 20
377.130049
 42
0.025395
  0
VERTEX
  8
0
 10
303.435973
 20
375.327035
 42
0.024601
  0
VERTEX
  8
0
 10
303.112907
 20
373.282633
 42
0.027248
  0
VERTEX
  8
0
 10
303.006833
 20
371.285183
 42
0.020331
  0
VERTEX
  8
0
 10
303.123634
 20
368.511420
 42
0.089266
  0
VERTEX
  8
0
 10
303.544575
 20
366.934150
 42
0.104444
  0
VERTEX
  8
0
 10
304.454791
 20
365.729325
 42
0.033183
  0
VERTEX
  8
0
 10
306.256833
 20
364.361326
 42
0.028096
  0
VERTEX
  8
0
 10
307.877979
 20
363.418413
 42
0.012146
  0
VERTEX
  8
0
 10
310.131497
 20
362.340006
 42
0.011975
  0
VERTEX
  8
0
 10
312.590670
 20
361.305799
 42
0.015548
  0
VERTEX
  8
0
 10
314.892943
 20
360.483481
 42
-0.019524
  0
VERTEX
  8
0
 10
317.361146
 20
359.579708
 42
-0.010345
  0
VERTEX
  8
0
 10
320.348782
 20
358.278569
 42
-0.010280
  0
VERTEX
  8
0
 10
323.353658
 20
356.819677
 42
-0.015669
  0
VERTEX
  8
0
 10
325.892943
 20
355.419636
 42
0.025331
  0
VERTEX
  8
0
 10
335.626852
 20
350.295441
 42
0.002114
  0
VERTEX
  8
0
 10
361.543597
 20
338.419286
 42
0.001743
  0
VERTEX
  8
0
 10
387.947627
 20
326.565382
 42
0.034074
  0
VERTEX
  8
0
 10
396.328732
 20
323.502556
 42
0.025669
  0
VERTEX
  8
0
 10
399.543554
 20
322.746713
 42
0.022652
  0
VERTEX
  8
0
 10
402.955916
 20
322.285675
 42
0.019725
  0
VERTEX
  8
0
 10
406.819483
 20
322.094064
 42
0.011807
  0
VERTEX
  8
0
 10
411.417200
 20
322.156153
 42
0.045900
  0
VERTEX
  8
0
 10
419.303730
 20
323.178012
 42
0.091693
  0
VERTEX
  8
0
 10
425.068006
 20
325.638666
 42
0.045016
  0
VERTEX
  8
0
 10
431.815539
 20
331.054040
 42
0.004542
  0
VERTEX
  8
0
 10
446.543345
 20
345.489121
 42
0.004772
  0
VERTEX
  8
0
 10
465.290901
 20
364.561580
 42
0.018655
  0
VERTEX
  8
0
 10
476.307671
 20
376.872975
 42
0.028240
  0
VERTEX
  8
0
 10
483.867261
 20
387.107507
 42
0.026924
  0
VERTEX
  8
0
 10
490.357035
 20
398.288946
 42
0.012928
  0
VERTEX
  8
0
 10
495.044941
 20
408.088617
 42
0.046236
  0
VERTEX
  8
0
 10
497.279699
 20
414.657172
 42
0.068158
  0
VERTEX
  8
0
 10
497.820053
 20
420.074032
 42
0.059147
  0
VERTEX
  8
0
 10
496.939296
 20
425.716813
 42
0.073611
  0
VERTEX
  8
0
 10
494.982999
 20
430.098104
 42
0.050623
  0
VERTEX
  8
0
 10
491.608033
 20
434.375037
 42
0.046400
  0
VERTEX
  8
0
 10
487.088777
 20
438.250356
 42
0.040295
  0
VERTEX
  8
0
 10
481.720762
 20
441.435793
 42
0.029895
  0
VERTEX
  8
0
 10
475.541066
 20
444.013933
 42
0.005633
  0
VERTEX
  8
0
 10
463.937844
 20
447.913313
 42
0.006259
  0
VERTEX
  8
0
 10
450.835608
 20
451.972310
 42
0.007434
  0
VERTEX
  8
0
 10
438.363831
 20
455.464722
 42
0.023488
  0
VERTEX
  8
0
 10
430.255165
 20
457.203175
 42
0.020961
  0
VERTEX
  8
0
 10
421.705154
 20
458.254215
 42
0.021813
  0
VERTEX
  8
0
 10
413.704531
 20
458.548616
 42
0.042463
  0
SEQEND
  0
POLYLINE
  8
0
 66
1
 70
1
  0
VERTEX
  8
0
 10
170.500000
 20
444.881237
 42
0.007588
  0
VERTEX
  8
0
 10
157.160589
 20
443.750168
 42
0.008629
  0
VERTEX
  8
0
 10
144.422943
 20
442.252755
 42
0.006702
  0
VERTEX
  8
0
 10
133.599011
 20
440.642542
 42
0.069221
  0
VERTEX
  8
0
 10
129.297366
 20
439.315153
 42
0.107368
  0
VERTEX
  8
0
 10
126.768416
 20
437.386856
 42
0.096222
  0
VERTEX
  8
0
 10
125.145706
 20
434.510048
 42
0.048556
  0
VERTEX
  8
0
 10
124.043218
 20
429.686175
 42
0.008696
  0
VERTEX
  8
0
 10
123.026201
 20
420.500000
 42
0.017138
  0
VERTEX
  8
0
 10
122.108835
 20
404.863043
 42
0.015377
  0
VERTEX
  8
0
 10
122.213167
 20
388.622426
 42
0.015171
  0
VERTEX
  8
0
 10
123.187598
 20
374.211699
 42
0.055286
  0
VERTEX
  8
0
 10
125.080919
 20
365.254812
 42
0.032731
  0
VERTEX
  8
0
 10
125.774948
 20
363.538221
 42
0.113060
  0
VERTEX
  8
0
 10
126.519636
 20
362.607506
 42
0.124594
  0
VERTEX
  8
0
 10
127.551622
 20
362.143047
 42
0.043777
  0
VERTEX
  8
0
 10
129.182325
 20
362.000000
 42
0.113228
  0
VERTEX
  8
0
 10
133.878642
 20
363.077320
 42
0.028174
  0
VERTEX
  8
0
 10
140.813709
 20
366.932174
 42
0.014464
  0
VERTEX
  8
0
 10
151.822723
 20
374.344569
 42
0.002151
  0
VERTEX
  8
0
 10
173.500000
 20
390.011151
 42
0.002582
  0
VERTEX
  8
0
 10
202.759833
 20
411.582381
 42
0.016598
  0
VERTEX
  8
0
 10
217.126458
 20
423.049670
 42
0.033550
  0
VERTEX
  8
0
 10
225.327283
 20
431.064112
 42
0.076055
  0
VERTEX
  8
0
 10
230.053655
 20
438.309691
 42
0.054906
  0
VERTEX
  8
0
 10
231.655072
 20
443.199744
 42
0.381526
  0
VERTEX
  8
0
 10
230.500714
 20
445.205698
 42
0.079444
  0
VERTEX
  8
0
 10
226.300214
 20
445.888300
 42
0.002072
  0
VERTEX
  8
0
 10
207.250000
 20
445.857772
 42
0.002712
  0
VERTEX
  8
0
 10
196.894223
 20
445.742088
 42
0.002493
  0
VERTEX
  8
0
 10
186.245312
 20
445.512246
 42
0.002489
  0
VERTEX
  8
0
 10
176.750703
 20
445.212639
 42
0.008223
  0
SEQEND
  0
POLYLINE
  8
0
 66
1
 70
1
  0
VERTEX
  8
0
 10
275.000000
 20
431.716702
 42
-0.234103
  0
VERTEX
  8
0
 10
274.841490
 20
431.396708
 42
-0.110684
  0
VERTEX
  8
0
 10
274.412095
 20
431.199530
 42
-0.073581
  0
VERTEX
  8
0
 10
273.765370
 20
431.158662
 42
-0.043023
  0
VERTEX
  8
0
 10
272.998620
 20
431.290110
 42
0.028884
  0
VERTEX
  8
0
 10
272.172701
 20
431.455835
 42
0.134027
  0
VERTEX
  8
0
 10
271.694454
 20
431.395162
 42
0.316691
  0
VERTEX
  8
0
 10
271.535916
 20
431.144934
 42
0.126904
  0
VERTEX
  8
0
 10
271.662665
 20
430.736802
 42
-0.084983
  0
VERTEX
  8
0
 10
271.827284
 20
430.329408
 42
-0.357063
  0
VERTEX
  8
0
 10
271.715890
 20
430.110897
 42
-0.167827
  0
VERTEX
  8
0
 10
271.346098
 20
430.080920
 42
-0.028693
  0
VERTEX
  8
0
 10
270.664045
 20
430.298676
 42
0.053235
  0
VERTEX
  8
0
 10
270.026720
 20
430.468244
 42
0.096133
  0
VERTEX
  8
0
 10
269.488813
 20
430.447788
 42
0.144650
  0
VERTEX
  8
0
 10
269.136142
 20
430.247266
 42
0.194004
  0
VERTEX
  8
0
 10
269.000000
 20
429.909598
 42
-0.113538
  0
VERTEX
  8
0
 10
268.921216
 20
429.567120
 42
-0.184509
  0
VERTEX
  8
0
 10
268.706250
 20
429.365380
 42
-0.157566
  0
VERTEX
  8
0
 10
268.382252
 20
429.340647
 42
-0.079467
  0
VERTEX
  8
0
 10
268.000000
 20
429.500000
 42
0.088621
  0
VERTEX
  8
0
 10
267.618194
 20
429.651081
 42
0.167455
  0
VERTEX
  8
0
 10
267.293750
 20
429.608064
 42
0.177706
  0
VERTEX
  8
0
 10
267.077418
 20
429.378351
 42
0.101261
  0
VERTEX
  8
0
 10
267.000000
 20
429.000000
 42
-0.101261
  0
VERTEX
  8
0
 10
266.922582
 20
428.621649
 42
-0.177706
  0
VERTEX
  8
0
 10
266.706250
 20
428.391936
 42
-0.167455
  0
VERTEX
  8
0
 10
266.381806
 20
428.348919
 42
-0.088621
  0
VERTEX
  8
0
 10
266.000000
 20
428.500000
 42
0.071422
  0
VERTEX
  8
0
 10
265.617363
 20
428.666749
 42
0.146914
  0
VERTEX
  8
0
 10
265.293750
 20
428.659184
 42
0.189231
  0
VERTEX
  8
0
 10
265.080211
 20
428.483247
 42
0.127587
  0
VERTEX
  8
0
 10
265.000000
 20
428.174027
 42
-0.165370
  0
VERTEX
  8
0
 10
264.839824
 20
427.702976
 42
-0.030599
  0
VERTEX
  8
0
 10
264.229457
 20
427.002443
 42
-0.029884
  0
VERTEX
  8
0
 10
263.381215
 20
426.238522
 42
-0.023342
  0
VERTEX
  8
0
 10
262.376876
 20
425.511283
 42
-0.012313
  0
VERTEX
  8
0
 10
261.199785
 20
424.780803
 42
-0.085778
  0
VERTEX
  8
0
 10
260.568195
 20
424.543320
 42
-0.456385
  0
VERTEX
  8
0
 10
260.365445
 20
424.703220
 42
-0.133202
  0
VERTEX
  8
0
 10
260.463653
 20
425.146273
 42
0.250723
  0
VERTEX
  8
0
 10
260.462038
 20
425.340024
 42
0.463328
  0
VERTEX
  8
0
 10
260.326539
 20
425.367968
 42
0.038455
  0
VERTEX
  8
0
 10
259.797356
 20
424.883552
 42
0.009251
  0
VERTEX
  8
0
 10
259.000000
 20
424.000000
 42
-0.011424
  0
VERTEX
  8
0
 10
258.201377
 20
423.122737
 42
-0.051866
  0
VERTEX
  8
0
 10
257.676021
 20
422.675000
 42
-0.508187
  0
VERTEX
  8
0
 10
257.524042
 20
422.728451
 42
-0.186888
  0
VERTEX
  8
0
 10
257.545063
 20
423.000000
 42
0.559863
  0
VERTEX
  8
0
 10
257.445883
 20
423.153382
 42
0.165064
  0
VERTEX
  8
0
 10
257.112489
 20
423.031250
 42
0.028693
  0
VERTEX
  8
0
 10
256.250192
 20
422.250674
 42
0.009257
  0
VERTEX
  8
0
 10
255.063351
 20
421.000000
 42
-0.008643
  0
VERTEX
  8
0
 10
253.878857
 20
419.748724
 42
-0.027226
  0
VERTEX
  8
0
 10
253.026500
 20
418.968750
 42
-0.169780
  0
VERTEX
  8
0
 10
252.714156
 20
418.854632
 42
-0.563943
  0
VERTEX
  8
0
 10
252.623470
 20
419.000000
 42
0.010763
  0
VERTEX
  8
0
 10
253.026941
 20
419.840222
 42
0.489221
  0
VERTEX
  8
0
 10
252.949109
 20
419.988339
 42
0.212515
  0
VERTEX
  8
0
 10
252.696000
 20
419.925916
 42
0.005161
  0
VERTEX
  8
0
 10
251.730684
 20
419.159695
 42
0.043150
  0
VERTEX
  8
0
 10
251.052637
 20
418.505511
 42
0.027916
  0
VERTEX
  8
0
 10
250.382578
 20
417.644366
 42
0.028029
  0
VERTEX
  8
0
 10
249.817990
 20
416.722225
 42
0.046536
  0
VERTEX
  8
0
 10
249.462948
 20
415.883260
 42
-0.065093
  0
VERTEX
  8
0
 10
249.126577
 20
415.163793
 42
-0.076079
  0
VERTEX
  8
0
 10
248.630323
 20
414.597071
 42
-0.088073
  0
VERTEX
  8
0
 10
248.056192
 20
414.265262
 42
-0.138194
  0
VERTEX
  8
0
 10
247.491398
 20
414.223565
 42
0.198942
  0
VERTEX
  8
0
 10
246.713751
 20
414.072554
 42
0.019186
  0
VERTEX
  8
0
 10
245.117939
 20
412.926227
 42
0.022059
  0
VERTEX
  8
0
 10
243.261273
 20
411.345149
 42
0.015636
  0
VERTEX
  8
0
 10
241.317176
 20
409.418909
 42
-0.005247
  0
VERTEX
  8
0
 10
239.529910
 20
407.572915
 42
-0.014102
  0
VERTEX
  8
0
 10
238.208796
 20
406.310034
 42
-0.050198
  0
VERTEX
  8
0
 10
237.604005
 20
405.865027
 42
-0.781869
  0
VERTEX
  8
0
 10
237.500000
 20
405.970654
 42
0.480318
  0
VERTEX
  8
0
 10
237.445896
 20
406.120712
 42
0.259064
  0
VERTEX
  8
0
 10
237.222212
 20
406.080519
 42
0.025277
  0
VERTEX
  8
0
 10
236.379737
 20
405.318468
 42
0.007193
  0
VERTEX
  8
0
 10
235.150085
 20
404.051745
 42
-0.009971
  0
VERTEX
  8
0
 10
233.904236
 20
402.782518
 42
-0.029707
  0
VERTEX
  8
0
 10
232.985166
 20
401.983950
 42
-0.146200
  0
VERTEX
  8
0
 10
232.598687
 20
401.835994
 42
-0.570560
  0
VERTEX
  8
0
 10
232.484283
 20
402.000000
 42
0.555185
  0
VERTEX
  8
0
 10
232.379678
 20
402.157682
 42
0.163753
  0
VERTEX
  8
0
 10
232.036722
 20
402.031250
 42
0.029674
  0
VERTEX
  8
0
 10
231.176603
 20
401.250368
 42
0.009651
  0
VERTEX
  8
0
 10
230.000000
 20
400.000000
 42
-0.009505
  0
VERTEX
  8
0
 10
228.823954
 20
398.749491
 42
-0.029335
  0
VERTEX
  8
0
 10
227.966167
 20
397.968750
 42
-0.164801
  0
VERTEX
  8
0
 10
227.628089
 20
397.844157
 42
-0.556254
  0
VERTEX
  8
0
 10
227.525549
 20
398.000000
 42
0.391366
  0
VERTEX
  8
0
 10
227.462829
 20
398.193946
 42
0.297949
  0
VERTEX
  8
0
 10
227.227787
 20
398.178125
 42
0.038022
  0
VERTEX
  8
0
 10
226.528850
 20
397.562178
 42
0.010730
  0
VERTEX
  8
0
 10
225.537413
 20
396.500000
 42
-0.010939
  0
VERTEX
  8
0
 10
224.545357
 20
395.438048
 42
-0.038528
  0
VERTEX
  8
0
 10
223.843555
 20
394.821875
 42
-0.293216
  0
VERTEX
  8
0
 10
223.602999
 20
394.804269
 42
-0.393680
  0
VERTEX
  8
0
 10
223.537413
 20
395.000000
 42
0.393680
  0
VERTEX
  8
0
 10
223.471828
 20
395.195731
 42
0.293216
  0
VERTEX
  8
0
 10
223.231272
 20
395.178125
 42
0.038528
  0
VERTEX
  8
0
 10
222.529470
 20
394.561952
 42
0.010939
  0
VERTEX
  8
0
 10
221.537413
 20
393.500000
 42
-0.011568
  0
VERTEX
  8
0
 10
220.543483
 20
392.438720
 42
-0.040013
  0
VERTEX
  8
0
 10
219.833100
 20
391.821875
 42
-0.279966
  0
VERTEX
  8
0
 10
219.576027
 20
391.798909
 42
-0.399668
  0
VERTEX
  8
0
 10
219.501823
 20
392.000000
 42
0.068643
  0
VERTEX
  8
0
 10
219.613453
 20
392.403557
 42
0.595179
  0
VERTEX
  8
0
 10
219.495999
 20
392.489168
 42
0.098042
  0
VERTEX
  8
0
 10
219.153106
 20
392.234222
 42
0.013655
  0
VERTEX
  8
0
 10
218.574157
 20
391.558870
 42
0.016249
  0
VERTEX
  8
0
 10
217.971459
 20
390.764225
 42
0.019808
  0
VERTEX
  8
0
 10
217.462409
 20
389.981770
 42
0.018712
  0
VERTEX
  8
0
 10
217.090599
 20
389.300774
 42
0.116100
  0
VERTEX
  8
0
 10
217.000000
 20
388.915859
 42
-0.167799
  0
VERTEX
  8
0
 10
216.892567
 20
388.604749
 42
-0.052419
  0
VERTEX
  8
0
 10
216.544118
 20
388.245217
 42
-0.045715
  0
VERTEX
  8
0
 10
216.042029
 20
387.898065
 42
-0.036808
  0
VERTEX
  8
0
 10
215.448062
 20
387.618443
 42
-0.034234
  0
VERTEX
  8
0
 10
214.787447
 20
387.415562
 42
-0.217079
  0
VERTEX
  8
0
 10
214.451404
 20
387.482981
 42
-0.310815
  0
VERTEX
  8
0
 10
214.356213
 20
387.749895
 42
-0.057700
  0
VERTEX
  8
0
 10
214.557810
 20
388.261454
 42
0.603951
  0
VERTEX
  8
0
 10
214.487558
 20
388.365033
 42
0.152470
  0
VERTEX
  8
0
 10
214.237263
 20
388.254927
 42
0.023568
  0
VERTEX
  8
0
 10
213.528472
 20
387.575617
 42
0.007500
  0
VERTEX
  8
0
 10
212.537413
 20
386.500000
 42
-0.010939
  0
VERTEX
  8
0
 10
211.545357
 20
385.438048
 42
-0.038528
  0
VERTEX
  8
0
 10
210.843555
 20
384.821875
 42
-0.293216
  0
VERTEX
  8
0
 10
210.602999
 20
384.804269
 42
-0.393680
  0
VERTEX
  8
0
 10
210.537413
 20
385.000000
 42
0.393680
  0
VERTEX
  8
0
 10
210.471828
 20
385.195731
 42
0.293216
  0
VERTEX
  8
0
 10
210.231272
 20
385.178125
 42
0.038528
  0
VERTEX
  8
0
 10
209.529470
 20
384.561952
 42
0.010939
  0
VERTEX
  8
0
 10
208.537413
 20
383.500000
 42
-0.010939
  0
VERTEX
  8
0
 10
207.545357
 20
382.438048
 42
-0.038528
  0
VERTEX
  8
0
 10
206.843555
 20
381.821875
 42
-0.293216
  0
VERTEX
  8
0
 10
206.602999
 20
381.804269
 42
-0.393680
  0
VERTEX
  8
0
 10
206.537413
 20
382.000000
 42
0.393680
  0
VERTEX
  8
0
 10
206.471828
 20
382.195731
 42
0.293216
  0
VERTEX
  8
0
 10
206.231272
 20
382.178125
 42
0.038528
  0
VERTEX
  8
0
 10
205.529470
 20
381.561952
 42
0.010939
  0
VERTEX
  8
0
 10
204.537413
 20
380.500000
 42
-0.009927
  0
VERTEX
  8
0
 10
203.548342
 20
379.436939
 42
-0.036013
  0
VERTEX
  8
0
 10
202.860489
 20
378.821875
 42
-0.317926
  0
VERTEX
  8
0
 10
202.646736
 20
378.812902
 42
-0.380766
  0
VERTEX
  8
0
 10
202.595060
 20
379.000000
 42
0.669197
  0
VERTEX
  8
0
 10
202.470341
 20
379.141814
 42
0.087814
  0
VERTEX
  8
0
 10
201.966759
 20
378.863271
 42
0.022805
  0
VERTEX
  8
0
 10
200.876342
 20
377.895228
 42
0.008277
  0
VERTEX
  8
0
 10
199.417394
 20
376.428157
 42
-0.005438
  0
VERTEX
  8
0
 10
197.993134
 20
374.979610
 42
-0.022951
  0
VERTEX
  8
0
 10
197.091360
 20
374.161021
 42
-0.541127
  0
VERTEX
  8
0
 10
196.960121
 20
374.201736
 42
-0.230089
  0
VERTEX
  8
0
 10
197.000000
 20
374.428157
 42
0.001227
  0
VERTEX
  8
0
 10
198.062162
 20
375.902850
 42
0.553583
  0
VERTEX
  8
0
 10
198.023983
 20
375.995879
 42
0.221053
  0
VERTEX
  8
0
 10
197.856716
 20
375.950498
 42
0.000759
  0
VERTEX
  8
0
 10
196.214733
 20
374.563096
 42
0.041437
  0
VERTEX
  8
0
 10
195.377470
 20
373.724986
 42
0.050209
  0
VERTEX
  8
0
 10
194.748778
 20
372.809436
 42
0.058144
  0
VERTEX
  8
0
 10
194.402110
 20
371.954522
 42
0.160223
  0
VERTEX
  8
0
 10
194.433348
 20
371.313096
 42
-0.069547
  0
VERTEX
  8
0
 10
194.549625
 20
370.810922
 42
-0.117586
  0
VERTEX
  8
0
 10
194.487348
 20
370.385722
 42
-0.152607
  0
VERTEX
  8
0
 10
194.259631
 20
370.105506
 42
-0.147433
  0
VERTEX
  8
0
 10
193.909598
 20
370.000000
 42
0.124300
  0
VERTEX
  8
0
 10
193.571630
 20
369.914663
 42
0.188383
  0
VERTEX
  8
0
 10
193.377757
 20
369.686224
 42
0.149328
  0
VERTEX
  8
0
 10
193.365698
 20
369.340464
 42
0.073123
  0
VERTEX
  8
0
 10
193.542134
 20
368.931826
 42
0.109884
  0
VERTEX
  8
0
 10
193.900093
 20
368.564485
 42
0.081902
  0
VERTEX
  8
0
 10
194.419289
 20
368.335110
 42
0.076891
  0
VERTEX
  8
0
 10
195.017004
 20
368.275690
 42
0.078162
  0
VERTEX
  8
0
 10
195.601151
 20
368.400442
 42
-0.079069
  0
VERTEX
  8
0
 10
196.136768
 20
368.513819
 42
-0.125667
  0
VERTEX
  8
0
 10
196.593586
 20
368.421580
 42
-0.149452
  0
VERTEX
  8
0
 10
196.898617
 20
368.139704
 42
-0.129608
  0
VERTEX
  8
0
 10
197.015313
 20
367.718615
 42
0.052332
  0
VERTEX
  8
0
 10
197.071033
 20
367.245091
 42
0.403838
  0
VERTEX
  8
0
 10
197.240518
 20
367.133692
 42
0.187063
  0
VERTEX
  8
0
 10
197.499677
 20
367.294731
 42
0.020104
  0
VERTEX
  8
0
 10
197.908945
 20
367.886911
 42
-0.113081
  0
VERTEX
  8
0
 10
198.447553
 20
368.420856
 42
-0.075765
  0
VERTEX
  8
0
 10
199.248114
 20
368.763684
 42
-0.064262
  0
VERTEX
  8
0
 10
200.245977
 20
368.889089
 42
-0.046422
  0
VERTEX
  8
0
 10
201.363370
 20
368.781367
 42
0.025643
  0
VERTEX
  8
0
 10
202.387511
 20
368.639541
 42
0.083784
  0
VERTEX
  8
0
 10
203.067026
 20
368.694596
 42
0.226267
  0
VERTEX
  8
0
 10
203.348877
 20
368.928672
 42
0.251689
  0
VERTEX
  8
0
 10
203.327689
 20
369.278805
 42
-0.313194
  0
VERTEX
  8
0
 10
203.346829
 20
369.636480
 42
-0.177918
  0
VERTEX
  8
0
 10
203.730961
 20
369.876324
 42
-0.066650
  0
VERTEX
  8
0
 10
204.587193
 20
369.938852
 42
-0.021384
  0
VERTEX
  8
0
 10
205.857952
 20
369.807540
 42
0.027815
  0
VERTEX
  8
0
 10
207.062276
 20
369.698720
 42
0.046491
  0
VERTEX
  8
0
 10
208.077023
 20
369.758065
 42
0.062201
  0
VERTEX
  8
0
 10
208.781594
 20
369.957294
 42
0.301406
  0
VERTEX
  8
0
 10
209.000000
 20
370.286692
 42
-0.293514
  0
VERTEX
  8
0
 10
209.211929
 20
370.616611
 42
-0.066012
  0
VERTEX
  8
0
 10
209.881250
 20
370.821444
 42
-0.048600
  0
VERTEX
  8
0
 10
210.850191
 20
370.887458
 42
-0.029166
  0
VERTEX
  8
0
 10
212.000000
 20
370.786692
 42
0.029166
  0
VERTEX
  8
0
 10
213.149809
 20
370.685927
 42
0.048600
  0
VERTEX
  8
0
 10
214.118750
 20
370.751941
 42
0.066012
  0
VERTEX
  8
0
 10
214.788071
 20
370.956774
 42
0.293514
  0
VERTEX
  8
0
 10
215.000000
 20
371.286692
 42
-0.293514
  0
VERTEX
  8
0
 10
215.211929
 20
371.616611
 42
-0.066012
  0
VERTEX
  8
0
 10
215.881250
 20
371.821444
 42
-0.048600
  0
VERTEX
  8
0
 10
216.850191
 20
371.887458
 42
-0.029166
  0
VERTEX
  8
0
 10
218.000000
 20
371.786692
 42
0.029166
  0
VERTEX
  8
0
 10
219.149809
 20
371.685927
 42
0.048600
  0
VERTEX
  8
0
 10
220.118750
 20
371.751941
 42
0.066012
  0
VERTEX
  8
0
 10
220.788071
 20
371.956774
 42
0.293514
  0
VERTEX
  8
0
 10
221.000000
 20
372.286692
 42
-0.293514
  0
VERTEX
  8
0
 10
221.211929
 20
372.616611
 42
-0.066012
  0
VERTEX
  8
0
 10
221.881250
 20
372.821444
 42
-0.048600
  0
VERTEX
  8
0
 10
222.850191
 20
372.887458
 42
-0.029166
  0
VERTEX
  8
0
 10
224.000000
 20
372.786692
 42
0.029166
  0
VERTEX
  8
0
 10
225.149809
 20
372.685927
 42
0.048600
  0
VERTEX
  8
0
 10
226.118750
 20
372.751941
 42
0.066012
  0
VERTEX
  8
0
 10
226.788071
 20
372.956774
 42
0.293514
  0
VERTEX
  8
0
 10
227.000000
 20
373.286692
 42
-0.290434
  0
VERTEX
  8
0
 10
227.209426
 20
373.616820
 42
-0.067491
  0
VERTEX
  8
0
 10
227.865736
 20
373.823721
 42
-0.049431
  0
VERTEX
  8
0
 10
228.817648
 20
373.892212
 42
-0.029702
  0
VERTEX
  8
0
 10
229.947187
 20
373.794443
 42
0.024476
  0
VERTEX
  8
0
 10
231.089344
 20
373.683552
 42
0.066408
  0
VERTEX
  8
0
 10
231.898218
 20
373.752292
 42
0.163409
  0
VERTEX
  8
0
 10
232.279752
 20
373.981698
 42
0.325590
  0
VERTEX
  8
0
 10
232.305139
 20
374.315292
 42
-0.342492
  0
VERTEX
  8
0
 10
232.340811
 20
374.649393
 42
-0.153908
  0
VERTEX
  8
0
 10
232.752853
 20
374.873993
 42
-0.062227
  0
VERTEX
  8
0
 10
233.614492
 20
374.933847
 42
-0.022701
  0
VERTEX
  8
0
 10
234.833543
 20
374.811123
 42
0.024994
  0
VERTEX
  8
0
 10
236.047816
 20
374.694498
 42
0.037052
  0
VERTEX
  8
0
 10
237.115984
 20
374.724729
 42
0.041366
  0
VERTEX
  8
0
 10
237.924423
 20
374.876062
 42
0.248674
  0
VERTEX
  8
0
 10
238.225592
 20
375.159566
 42
-0.195931
  0
VERTEX
  8
0
 10
238.514611
 20
375.492369
 42
-0.033634
  0
VERTEX
  8
0
 10
239.300643
 20
375.826079
 42
-0.032269
  0
VERTEX
  8
0
 10
240.331102
 20
376.110970
 42
-0.023827
  0
VERTEX
  8
0
 10
241.500000
 20
376.296695
 42
0.072916
  0
VERTEX
  8
0
 10
242.997097
 20
376.687751
 42
0.034906
  0
VERTEX
  8
0
 10
244.772197
 20
377.591362
 42
0.031386
  0
VERTEX
  8
0
 10
246.656839
 20
378.890130
 42
0.025722
  0
VERTEX
  8
0
 10
248.500000
 20
380.498833
 42
0.006472
  0
VERTEX
  8
0
 10
249.919804
 20
381.908902
 42
0.027181
  0
VERTEX
  8
0
 10
250.713679
 20
382.811234
 42
0.512003
  0
VERTEX
  8
0
 10
250.668901
 20
382.967418
 42
0.241757
  0
VERTEX
  8
0
 10
250.418909
 20
382.934929
 42
-0.649016
  0
VERTEX
  8
0
 10
250.293737
 20
383.011280
 42
-0.150443
  0
VERTEX
  8
0
 10
250.441709
 20
383.336556
 42
-0.016593
  0
VERTEX
  8
0
 10
251.593395
 20
384.551292
 42
-0.005027
  0
VERTEX
  8
0
 10
253.418909
 20
386.317176
 42
0.014036
  0
VERTEX
  8
0
 10
255.347646
 20
388.251372
 42
0.020140
  0
VERTEX
  8
0
 10
256.935460
 20
390.077731
 42
0.016505
  0
VERTEX
  8
0
 10
258.106611
 20
391.642982
 42
0.204666
  0
VERTEX
  8
0
 10
258.254997
 20
392.354521
 42
-0.181772
  0
VERTEX
  8
0
 10
258.349683
 20
392.935851
 42
-0.050791
  0
VERTEX
  8
0
 10
258.896217
 20
393.697256
 42
-0.044171
  0
VERTEX
  8
0
 10
259.738850
 20
394.495648
 42
-0.034162
  0
VERTEX
  8
0
 10
260.781919
 20
395.212105
 42
0.024983
  0
VERTEX
  8
0
 10
261.986897
 20
396.007646
 42
0.015580
  0
VERTEX
  8
0
 10
263.319182
 20
397.051569
 42
0.015627
  0
VERTEX
  8
0
 10
264.571433
 20
398.165581
 42
0.027220
  0
VERTEX
  8
0
 10
265.526922
 20
399.174760
 42
0.000000
  0
VERTEX
  8
0
 10
267.500000
 20
401.500000
 42
0.000000
  0
VERTEX
  8
0
 10
265.026894
 20
399.500000
 42
-0.005900
  0
VERTEX
  8
0
 10
263.643766
 20
398.408207
 42
-0.732936
  0
VERTEX
  8
0
 10
263.520467
 20
398.494118
 42
-0.095388
  0
VERTEX
  8
0
 10
263.768405
 20
398.955675
 42
-0.001765
  0
VERTEX
  8
0
 10
265.526894
 20
401.100794
 42
-0.014674
  0
VERTEX
  8
0
 10
266.713872
 20
402.455370
 42
-0.022971
  0
VERTEX
  8
0
 10
267.819568
 20
403.540403
 42
-0.019159
  0
VERTEX
  8
0
 10
268.757424
 20
404.317162
 42
-0.294503
  0
VERTEX
  8
0
 10
269.156741
 20
404.349414
 42
0.401728
  0
VERTEX
  8
0
 10
269.355282
 20
404.404740
 42
0.121559
  0
VERTEX
  8
0
 10
269.454812
 20
404.734531
 42
0.053637
  0
VERTEX
  8
0
 10
269.420295
 20
405.350275
 42
0.023156
  0
VERTEX
  8
0
 10
269.249218
 20
406.154992
 42
-0.025901
  0
VERTEX
  8
0
 10
269.063111
 20
407.054644
 42
-0.119045
  0
VERTEX
  8
0
 10
269.107888
 20
407.581548
 42
-0.314906
  0
VERTEX
  8
0
 10
269.350820
 20
407.762005
 42
-0.146617
  0
VERTEX
  8
0
 10
269.749218
 20
407.654992
 42
0.146617
  0
VERTEX
  8
0
 10
270.147615
 20
407.547979
 42
0.314906
  0
VERTEX
  8
0
 10
270.390548
 20
407.728436
 42
0.119045
  0
VERTEX
  8
0
 10
270.435324
 20
408.255340
 42
0.025901
  0
VERTEX
  8
0
 10
270.249218
 20
409.154992
 42
-0.023599
  0
VERTEX
  8
0
 10
270.048002
 20
410.105610
 42
-0.136619
  0
VERTEX
  8
0
 10
270.103872
 20
410.610748
 42
-0.340440
  0
VERTEX
  8
0
 10
270.368998
 20
410.767095
 42
-0.107948
  0
VERTEX
  8
0
 10
270.831022
 20
410.604434
 42
0.060363
  0
VERTEX
  8
0
 10
271.290422
 20
410.392076
 42
0.338347
  0
VERTEX
  8
0
 10
271.529702
 20
410.476744
 42
0.208053
  0
VERTEX
  8
0
 10
271.584723
 20
410.801291
 42
0.031032
  0
VERTEX
  8
0
 10
271.381557
 20
411.448062
 42
-0.060550
  0
VERTEX
  8
0
 10
271.232753
 20
412.042076
 42
-0.106526
  0
VERTEX
  8
0
 10
271.276919
 20
412.544118
 42
-0.150272
  0
VERTEX
  8
0
 10
271.501689
 20
412.873856
 42
-0.170157
  0
VERTEX
  8
0
 10
271.861626
 20
413.000000
 42
0.163532
  0
VERTEX
  8
0
 10
272.223415
 20
413.121579
 42
0.151303
  0
VERTEX
  8
0
 10
272.452188
 20
413.440625
 42
0.109632
  0
VERTEX
  8
0
 10
272.502534
 20
413.925990
 42
0.062927
  0
VERTEX
  8
0
 10
272.361626
 20
414.500000
 42
-0.069008
  0
VERTEX
  8
0
 10
272.228143
 20
415.073683
 42
-0.116977
  0
VERTEX
  8
0
 10
272.297620
 20
415.559375
 42
-0.152575
  0
VERTEX
  8
0
 10
272.555236
 20
415.879387
 42
-0.148627
  0
VERTEX
  8
0
 10
272.952028
 20
416.000000
 42
0.095723
  0
VERTEX
  8
0
 10
273.349370
 20
416.076773
 42
0.173661
  0
VERTEX
  8
0
 10
273.593972
 20
416.293750
 42
0.171987
  0
VERTEX
  8
0
 10
273.646585
 20
416.618437
 42
0.093667
  0
VERTEX
  8
0
 10
273.500000
 20
417.000000
 42
-0.066654
  0
VERTEX
  8
0
 10
273.328814
 20
417.382857
 42
-0.139668
  0
VERTEX
  8
0
 10
273.325641
 20
417.706250
 42
-0.191008
  0
VERTEX
  8
0
 10
273.485653
 20
417.918846
 42
-0.137896
  0
VERTEX
  8
0
 10
273.774316
 20
418.000000
 42
0.210786
  0
VERTEX
  8
0
 10
274.365147
 20
418.260658
 42
0.122965
  0
VERTEX
  8
0
 10
274.739546
 20
418.954019
 42
0.030699
  0
VERTEX
  8
0
 10
275.039715
 20
420.522967
 42
0.001885
  0
VERTEX
  8
0
 10
275.627958
 20
425.246936
 42
-0.018972
  0
VERTEX
  8
0
 10
275.911924
 20
427.028571
 42
-0.035485
  0
VERTEX
  8
0
 10
276.296841
 20
428.436148
 42
-0.047660
  0
VERTEX
  8
0
 10
276.715692
 20
429.341955
 42
-0.421615
  0
VERTEX
  8
0
 10
277.100450
 20
429.437919
 42
0.208293
  0
VERTEX
  8
0
 10
277.440525
 20
429.389002
 42
0.179514
  0
VERTEX
  8
0
 10
277.735757
 20
429.601155
 42
0.101759
  0
VERTEX
  8
0
 10
277.935717
 20
430.088118
 42
0.046737
  0
VERTEX
  8
0
 10
278.000000
 20
430.774316
 42
0.077755
  0
VERTEX
  8
0
 10
277.886896
 20
431.497228
 42
0.090208
  0
VERTEX
  8
0
 10
277.559375
 20
432.110789
 42
0.100780
  0
VERTEX
  8
0
 10
277.072062
 20
432.520966
 42
0.125346
  0
VERTEX
  8
0
 10
276.500000
 20
432.666667
 42
0.061458
  0
VERTEX
  8
0
 10
275.926423
 20
432.595898
 42
0.079927
  0
VERTEX
  8
0
 10
275.440625
 20
432.387615
 42
0.097650
  0
VERTEX
  8
0
 10
275.115434
 20
432.079009
 42
0.155454
  0
SEQEND
  0
POLYLINE
  8
0
 66
1
 70
1
  0
VERTEX
  8
0
 10
258.000000
 20
391.622445
 42
-0.184603
  0
VERTEX
  8
0
 10
257.918850
 20
391.410139
 42
-0.013803
  0
VERTEX
  8
0
 10
257.485937
 20
390.952641
 42
-0.017649
  0
VERTEX
  8
0
 10
256.920402
 20
390.425681
 42
-0.012436
  0
VERTEX
  8
0
 10
256.250000
 20
389.872445
 42
-0.001576
  0
VERTEX
  8
0
 10
255.120493
 20
388.992360
 42
-0.377591
  0
VERTEX
  8
0
 10
255.000000
 20
389.000000
 42
-0.377591
  0
VERTEX
  8
0
 10
254.992360
 20
389.120493
 42
-0.001576
  0
VERTEX
  8
0
 10
255.872445
 20
390.250000
 42
-0.017685
  0
VERTEX
  8
0
 10
256.763320
 20
391.306759
 42
-0.065617
  0
VERTEX
  8
0
 10
257.426111
 20
391.869516
 42
-0.241985
  0
VERTEX
  8
0
 10
257.806605
 20
391.906950
 42
-0.307699
  0
SEQEND
  0
POLYLINE
  8
0
 66
1
 70
1
  0
VERTEX
  8
0
 10
88.000000
 20
418.137885
 42
0.019274
  0
VERTEX
  8
0
 10
85.274361
 20
417.128580
 42
0.006918
  0
VERTEX
  8
0
 10
81.471875
 20
415.489346
 42
0.006851
  0
VERTEX
  8
0
 10
77.348947
 20
413.575688
 42
0.008063
  0
VERTEX
  8
0
 10
73.500000
 20
411.647662
 42
-0.011377
  0
VERTEX
  8
0
 10
69.166631
 20
409.512784
 42
-0.005338
  0
VERTEX
  8
0
 10
63.471875
 20
406.940028
 42
-0.005286
  0
VERTEX
  8
0
 10
57.443428
 20
404.369305
 42
-0.007397
  0
VERTEX
  8
0
 10
52.000000
 20
402.209528
 42
0.000000
  0
VERTEX
  8
0
 10
39.500000
 20
397.462744
 42
0.000000
  0
VERTEX
  8
0
 10
39.235444
 20
366.659364
 42
0.001015
  0
VERTEX
  8
0
 10
39.109774
 20
347.498987
 42
0.013504
  0
VERTEX
  8
0
 10
39.268315
 20
340.446505
 42
0.037498
  0
VERTEX
  8
0
 10
39.699882
 20
336.996431
 42
0.439073
  0
VERTEX
  8
0
 10
40.735444
 20
336.370135
 42
-0.025603
  0
VERTEX
  8
0
 10
44.342648
 20
337.223613
 42
-0.001802
  0
VERTEX
  8
0
 10
54.553818
 20
339.055701
 42
-0.002811
  0
VERTEX
  8
0
 10
64.924651
 20
340.817831
 42
-0.007084
  0
VERTEX
  8
0
 10
72.500000
 20
341.951223
 42
0.034431
  0
VERTEX
  8
0
 10
79.782044
 20
343.451492
 42
0.046516
  0
VERTEX
  8
0
 10
86.059076
 20
345.849944
 42
0.047159
  0
VERTEX
  8
0
 10
91.719091
 20
349.337234
 42
0.036841
  0
VERTEX
  8
0
 10
97.149104
 20
354.100593
 42
0.072218
  0
VERTEX
  8
0
 10
103.425280
 20
362.656805
 42
0.077224
  0
VERTEX
  8
0
 10
106.830933
 20
372.454152
 42
0.055419
  0
VERTEX
  8
0
 10
107.730271
 20
385.340500
 42
0.019063
  0
VERTEX
  8
0
 10
106.249937
 20
404.000000
 42
0.000000
  0
VERTEX
  8
0
 10
104.423564
 20
419.500000
 42
0.000000
  0
VERTEX
  8
0
 10
98.961782
 20
419.718380
 42
0.027827
  0
VERTEX
  8
0
 10
96.418530
 20
419.678506
 42
0.017972
  0
VERTEX
  8
0
 10
93.489132
 20
419.363102
 42
0.017865
  0
VERTEX
  8
0
 10
90.556667
 20
418.832749
 42
0.025369
  0
SEQEND
  0
POLYLINE
  8
0
 66
1
 70
1
  0
VERTEX
  8
0
 10
528.549339
 20
387.886769
 42
0.067621
  0
VERTEX
  8
0
 10
517.000101
 20
382.074711
 42
0.070202
  0
VERTEX
  8
0
 10
507.585136
 20
373.452976
 42
0.040658
  0
VERTEX
  8
0
 10
497.491334
 20
358.946270
 42
0.008345
  0
VERTEX
  8
0
 10
482.250000
 20
331.694741
 42
0.000189
  0
VERTEX
  8
0
 10
475.635713
 20
319.379606
 42
0.000314
  0
VERTEX
  8
0
 10
470.067187
 20
308.986479
 42
0.000008
  0
VERTEX
  8
0
 10
465.030083
 20
299.570614
 42
0.123422
  0
VERTEX
  8
0
 10
465.000000
 20
299.450600
 42
0.386380
  0
VERTEX
  8
0
 10
465.062214
 20
299.382111
 42
0.000318
  0
VERTEX
  8
0
 10
467.524171
 20
299.146723
 42
0.002806
  0
VERTEX
  8
0
 10
470.298012
 20
298.898997
 42
0.001686
  0
VERTEX
  8
0
 10
473.592921
 20
298.634550
 42
-0.014791
  0
VERTEX
  8
0
 10
477.950602
 20
298.169601
 42
-0.005009
  0
VERTEX
  8
0
 10
484.260938
 20
297.242385
 42
-0.004977
  0
VERTEX
  8
0
 10
491.218388
 20
296.077693
 42
-0.005699
  0
VERTEX
  8
0
 10
497.842921
 20
294.822779
 42
0.008363
  0
VERTEX
  8
0
 10
507.465807
 20
293.052922
 42
0.018095
  0
VERTEX
  8
0
 10
514.926299
 20
292.085310
 42
0.013962
  0
VERTEX
  8
0
 10
523.536508
 20
291.525970
 42
0.003261
  0
VERTEX
  8
0
 10
538.000000
 20
291.085756
 42
0.004478
  0
VERTEX
  8
0
 10
558.913032
 20
290.773107
 42
0.014826
  0
VERTEX
  8
0
 10
572.677327
 20
291.098774
 42
0.021687
  0
VERTEX
  8
0
 10
582.172835
 20
292.019601
 42
0.070079
  0
VERTEX
  8
0
 10
588.250000
 20
293.766907
 42
0.000000
  0
VERTEX
  8
0
 10
593.000000
 20
295.887539
 42
0.000000
  0
VERTEX
  8
0
 10
593.000000
 20
338.282717
 42
0.000000
  0
VERTEX
  8
0
 10
593.000000
 20
380.677895
 42
0.000000
  0
VERTEX
  8
0
 10
582.231363
 20
383.842769
 42
0.008546
  0
VERTEX
  8
0
 10
570.889134
 20
386.966658
 42
0.021178
  0
VERTEX
  8
0
 10
562.460101
 20
388.757233
 42
0.024970
  0
VERTEX
  8
0
 10
554.775704
 20
389.660733
 42
0.017129
  0
VERTEX
  8
0
 10
546.000000
 20
389.949142
 42
0.008250
  0
VERTEX
  8
0
 10
540.005786
 20
389.841814
 42
0.020811
  0
VERTEX
  8
0
 10
535.655118
 20
389.510435
 42
0.026786
  0
VERTEX
  8
0
 10
532.062573
 20
388.889327
 42
0.026618
  0
SEQEND
  0
POLYLINE
  8
0
 66
1
 70
1
  0
VERTEX
  8
0
 10
237.701173
 20
359.954698
 42
0.011718
  0
VERTEX
  8
0
 10
229.008197
 20
357.866870
 42
0.004802
  0
VERTEX
  8
0
 10
217.307733
 20
354.644417
 42
0.003083
  0
VERTEX
  8
0
 10
200.494429
 20
349.727286
 42
0.000824
  0
VERTEX
  8
0
 10
173.803814
 20
341.694545
 42
0.003472
  0
VERTEX
  8
0
 10
161.074108
 20
337.743846
 42
0.007792
  0
VERTEX
  8
0
 10
151.481260
 20
334.528059
 42
0.009314
  0
VERTEX
  8
0
 10
144.410327
 20
331.885370
 42
0.039873
  0
VERTEX
  8
0
 10
140.371993
 20
329.904676
 42
0.036714
  0
VERTEX
  8
0
 10
134.194808
 20
325.595638
 42
0.026775
  0
VERTEX
  8
0
 10
127.988830
 20
319.974077
 42
0.027233
  0
VERTEX
  8
0
 10
122.721917
 20
314.050454
 42
0.059232
  0
VERTEX
  8
0
 10
119.525963
 20
308.884249
 42
0.015907
  0
VERTEX
  8
0
 10
117.507461
 20
304.161030
 42
0.118138
  0
VERTEX
  8
0
 10
117.176379
 20
301.757161
 42
0.219388
  0
VERTEX
  8
0
 10
118.084572
 20
300.208014
 42
0.072587
  0
VERTEX
  8
0
 10
120.500939
 20
298.999690
 42
-0.038341
  0
VERTEX
  8
0
 10
122.044660
 20
298.355334
 42
-0.022137
  0
VERTEX
  8
0
 10
123.796133
 20
297.361023
 42
-0.022027
  0
VERTEX
  8
0
 10
125.475456
 20
296.200651
 42
-0.034190
  0
VERTEX
  8
0
 10
126.802410
 20
295.043744
 42
0.055017
  0
VERTEX
  8
0
 10
130.507102
 20
292.075522
 42
0.040155
  0
VERTEX
  8
0
 10
135.176279
 20
289.613240
 42
0.026501
  0
VERTEX
  8
0
 10
141.827881
 20
287.169908
 42
0.007857
  0
VERTEX
  8
0
 10
152.238328
 20
284.138811
 42
0.017429
  0
VERTEX
  8
0
 10
167.999256
 20
280.402609
 42
0.049029
  0
VERTEX
  8
0
 10
179.261224
 20
279.273514
 42
0.068899
  0
VERTEX
  8
0
 10
188.129782
 20
280.483848
 42
0.074462
  0
VERTEX
  8
0
 10
196.083524
 20
284.053597
 42
0.050408
  0
VERTEX
  8
0
 10
200.285605
 20
287.391260
 42
0.029611
  0
VERTEX
  8
0
 10
204.616160
 20
292.137709
 42
0.016646
  0
VERTEX
  8
0
 10
210.339419
 20
299.711488
 42
0.003403
  0
VERTEX
  8
0
 10
219.915524
 20
313.500000
 42
-0.002011
  0
VERTEX
  8
0
 10
224.388145
 20
319.978493
 42
-0.002216
  0
VERTEX
  8
0
 10
228.771020
 20
326.213597
 42
-0.002061
  0
VERTEX
  8
0
 10
232.560607
 20
331.507852
 42
-0.011288
  0
VERTEX
  8
0
 10
234.683428
 20
334.312244
 42
0.000610
  0
VERTEX
  8
0
 10
236.382146
 20
336.459499
 42
0.000398
  0
VERTEX
  8
0
 10
238.337206
 20
338.941045
 42
0.000400
  0
VERTEX
  8
0
 10
240.239505
 20
341.363568
 42
0.000766
  0
VERTEX
  8
0
 10
241.762381
 20
343.312244
 42
-0.003723
  0
VERTEX
  8
0
 10
243.330116
 20
345.294050
 42
-0.001750
  0
VERTEX
  8
0
 10
245.384676
 20
347.833626
 42
-0.001734
  0
VERTEX
  8
0
 10
247.555907
 20
350.479501
 42
-0.002439
  0
VERTEX
  8
0
 10
249.512381
 20
352.823505
 42
0.020285
  0
VERTEX
  8
0
 10
253.000059
 20
357.318801
 42
0.135422
  0
VERTEX
  8
0
 10
253.962131
 20
359.953841
 42
0.331379
  0
VERTEX
  8
0
 10
253.038572
 20
361.429830
 42
0.098203
  0
VERTEX
  8
0
 10
250.250000
 20
361.925516
 42
0.027060
  0
VERTEX
  8
0
 10
248.242505
 20
361.776758
 42
0.006927
  0
VERTEX
  8
0
 10
245.016907
 20
361.315864
 42
0.007036
  0
VERTEX
  8
0
 10
241.344867
 20
360.686098
 42
0.007088
  0
SEQEND
  0
POLYLINE
  8
0
 66
1
 70
1
  0
VERTEX
  8
0
 10
283.697765
 20
344.566668
 42
0.045121
  0
VERTEX
  8
0
 10
272.705611
 20
338.839802
 42
0.037351
  0
VERTEX
  8
0
 10
262.153657
 20
330.898593
 42
0.032123
  0
VERTEX
  8
0
 10
251.525671
 20
320.299381
 42
0.019368
  0
VERTEX
  8
0
 10
240.279695
 20
306.500000
 42
-0.004092
  0
VERTEX
  8
0
 10
236.623018
 20
301.722188
 42
-0.004915
  0
VERTEX
  8
0
 10
233.102967
 20
297.290625
 42
-0.004234
  0
VERTEX
  8
0
 10
230.071931
 20
293.614858
 42
-0.032497
  0
VERTEX
  8
0
 10
228.527838
 20
292.000000
 42
0.051632
  0
VERTEX
  8
0
 10
225.946920
 20
289.085674
 42
0.043717
  0
VERTEX
  8
0
 10
223.850637
 20
285.542504
 42
0.044982
  0
VERTEX
  8
0
 10
222.462450
 20
281.820282
 42
0.066866
  0
VERTEX
  8
0
 10
222.000000
 20
278.377696
 42
0.198691
  0
VERTEX
  8
0
 10
226.598245
 20
267.263183
 42
0.066746
  0
VERTEX
  8
0
 10
240.823997
 20
256.382256
 42
0.047151
  0
VERTEX
  8
0
 10
263.427020
 20
246.140883
 42
0.022121
  0
VERTEX
  8
0
 10
294.242850
 20
237.046970
 42
0.010407
  0
VERTEX
  8
0
 10
315.566258
 20
232.235824
 42
0.012266
  0
VERTEX
  8
0
 10
335.937226
 20
228.601113
 42
0.011673
  0
VERTEX
  8
0
 10
353.212364
 20
226.365582
 42
0.063635
  0
VERTEX
  8
0
 10
362.619840
 20
226.570242
 42
0.046262
  0
VERTEX
  8
0
 10
365.374677
 20
227.248219
 42
0.077898
  0
VERTEX
  8
0
 10
367.471421
 20
228.364574
 42
0.046879
  0
VERTEX
  8
0
 10
369.761591
 20
230.449076
 42
0.007994
  0
VERTEX
  8
0
 10
373.664718
 20
234.875121
 42
0.019830
  0
VERTEX
  8
0
 10
379.119480
 20
241.802043
 42
0.028173
  0
VERTEX
  8
0
 10
383.355623
 20
248.395492
 42
0.027735
  0
VERTEX
  8
0
 10
386.870763
 20
255.503169
 42
0.018389
  0
VERTEX
  8
0
 10
390.137594
 20
264.000000
 42
0.011438
  0
VERTEX
  8
0
 10
391.859529
 20
269.423990
 42
0.028024
  0
VERTEX
  8
0
 10
392.807434
 20
273.500000
 42
0.028883
  0
VERTEX
  8
0
 10
393.277905
 20
277.583319
 42
0.012853
  0
VERTEX
  8
0
 10
393.447265
 20
283.000000
 42
0.048589
  0
VERTEX
  8
0
 10
392.559165
 20
292.673482
 42
0.121299
  0
VERTEX
  8
0
 10
389.620079
 20
299.080790
 42
0.089070
  0
VERTEX
  8
0
 10
383.419303
 20
304.537239
 42
0.018743
  0
VERTEX
  8
0
 10
370.744156
 20
311.568727
 42
-0.004244
  0
VERTEX
  8
0
 10
364.542367
 20
314.777651
 42
-0.002117
  0
VERTEX
  8
0
 10
356.742792
 20
318.939922
 42
-0.002101
  0
VERTEX
  8
0
 10
348.701341
 20
323.318810
 42
-0.003093
  0
VERTEX
  8
0
 10
341.678114
 20
327.238361
 42
0.010980
  0
VERTEX
  8
0
 10
319.091465
 20
339.380447
 42
0.045251
  0
VERTEX
  8
0
 10
304.697120
 20
345.144033
 42
0.076922
  0
VERTEX
  8
0
 10
293.784615
 20
346.647056
 42
0.093635
  0
SEQEND
  0
POLYLINE
  8
0
 66
1
 70
1
  0
VERTEX
  8
0
 10
63.972340
 20
318.868247
 42
-0.004324
  0
VERTEX
  8
0
 10
56.788658
 20
316.345669
 42
-0.016403
  0
VERTEX
  8
0
 10
52.237391
 20
314.956471
 42
-0.026005
  0
VERTEX
  8
0
 10
48.883562
 20
314.236545
 42
-0.039884
  0
VERTEX
  8
0
 10
45.922857
 20
314.000000
 42
0.032329
  0
VERTEX
  8
0
 10
41.688796
 20
313.725946
 42
0.213868
  0
VERTEX
  8
0
 10
39.925644
 20
312.643347
 42
0.139118
  0
VERTEX
  8
0
 10
39.148061
 20
310.314750
 42
0.011456
  0
VERTEX
  8
0
 10
39.000000
 20
303.853648
 42
0.000000
  0
VERTEX
  8
0
 10
39.000000
 20
294.921274
 42
0.000000
  0
VERTEX
  8
0
 10
46.750000
 20
300.627654
 42
0.004977
  0
VERTEX
  8
0
 10
52.264415
 20
304.773237
 42
0.002161
  0
VERTEX
  8
0
 10
59.516524
 20
310.388996
 42
0.001934
  0
VERTEX
  8
0
 10
66.476854
 20
315.870602
 42
0.009488
  0
VERTEX
  8
0
 10
70.337132
 20
319.056290
 42
0.333084
  0
VERTEX
  8
0
 10
70.512074
 20
319.842965
 42
0.302802
  0
VERTEX
  8
0
 10
69.795968
 20
320.290447
 42
0.058435
  0
VERTEX
  8
0
 10
67.348022
 20
319.929804
 42
0.020838
  0
SEQEND
  0
POLYLINE
  8
0
 66
1
 70
1
  0
VERTEX
  8
0
 10
448.485970
 20
274.042127
 42
0.003353
  0
VERTEX
  8
0
 10
442.518212
 20
272.111290
 42
0.004188
  0
VERTEX
  8
0
 10
437.005182
 20
270.235263
 42
0.003403
  0
VERTEX
  8
0
 10
432.405766
 20
268.591807
 42
0.032033
  0
VERTEX
  8
0
 10
430.485970
 20
267.748193
 42
0.048117
  0
VERTEX
  8
0
 10
426.531668
 20
265.189936
 42
0.022834
  0
VERTEX
  8
0
 10
421.949716
 20
261.203137
 42
0.022110
  0
VERTEX
  8
0
 10
417.425751
 20
256.489513
 42
0.026138
  0
VERTEX
  8
0
 10
413.597211
 20
251.641061
 42
0.022220
  0
VERTEX
  8
0
 10
408.286289
 20
243.386126
 42
0.009255
  0
VERTEX
  8
0
 10
401.832708
 20
231.814801
 42
0.003191
  0
VERTEX
  8
0
 10
395.493820
 20
219.752846
 42
0.214158
  0
VERTEX
  8
0
 10
395.367699
 20
217.484175
 42
0.243631
  0
VERTEX
  8
0
 10
396.565159
 20
216.420205
 42
0.061877
  0
VERTEX
  8
0
 10
399.227778
 20
216.085932
 42
0.039439
  0
VERTEX
  8
0
 10
403.268097
 20
216.399869
 42
0.013805
  0
VERTEX
  8
0
 10
409.000000
 20
217.466550
 42
-0.028869
  0
VERTEX
  8
0
 10
413.124043
 20
218.106200
 42
-0.015786
  0
VERTEX
  8
0
 10
418.232060
 20
218.436564
 42
-0.011346
  0
VERTEX
  8
0
 10
424.986117
 20
218.506309
 42
-0.004197
  0
VERTEX
  8
0
 10
434.500000
 20
218.308784
 42
0.012452
  0
VERTEX
  8
0
 10
449.985851
 20
218.242973
 42
0.032049
  0
VERTEX
  8
0
 10
461.131399
 20
219.189585
 42
0.029970
  0
VERTEX
  8
0
 10
472.484294
 20
221.594259
 42
0.009746
  0
VERTEX
  8
0
 10
488.929319
 20
226.468390
 42
0.007918
  0
VERTEX
  8
0
 10
498.633231
 20
229.721553
 42
0.015182
  0
VERTEX
  8
0
 10
506.289000
 20
232.687988
 42
0.014779
  0
VERTEX
  8
0
 10
513.883074
 20
236.166936
 42
0.007082
  0
VERTEX
  8
0
 10
523.429319
 20
241.055803
 42
0.005822
  0
VERTEX
  8
0
 10
536.672549
 20
248.275287
 42
0.024535
  0
VERTEX
  8
0
 10
544.339021
 20
253.079762
 42
0.041748
  0
VERTEX
  8
0
 10
549.077811
 20
257.009354
 42
0.080999
  0
VERTEX
  8
0
 10
551.981314
 20
260.963373
 42
0.000000
  0
VERTEX
  8
0
 10
554.011430
 20
264.942729
 42
0.000000
  0
VERTEX
  8
0
 10
551.255715
 20
266.366491
 42
0.036520
  0
VERTEX
  8
0
 10
546.188558
 20
268.532044
 42
0.018404
  0
VERTEX
  8
0
 10
539.532121
 20
270.547909
 42
0.015910
  0
VERTEX
  8
0
 10
531.512102
 20
272.387229
 42
0.010568
  0
VERTEX
  8
0
 10
522.213133
 20
274.007301
 42
-0.007318
  0
VERTEX
  8
0
 10
516.799556
 20
274.914244
 42
-0.009550
  0
VERTEX
  8
0
 10
511.877630
 20
275.910554
 42
-0.007473
  0
VERTEX
  8
0
 10
507.808862
 20
276.879414
 42
-0.082972
  0
VERTEX
  8
0
 10
506.285183
 20
277.549416
 42
0.109874
  0
VERTEX
  8
0
 10
504.309453
 20
278.295283
 42
0.020602
  0
VERTEX
  8
0
 10
500.438373
 20
278.687224
 42
0.013349
  0
VERTEX
  8
0
 10
494.341695
 20
278.888557
 42
0.002880
  0
VERTEX
  8
0
 10
483.785183
 20
278.894422
 42
0.000000
  0
VERTEX
  8
0
 10
463.500000
 20
278.788844
 42
0.000000
  0
SEQEND
  0
POLYLINE
  8
0
 66
1
 70
1
  0
VERTEX
  8
0
 10
95.734467
 20
273.911949
 42
0.038514
  0
VERTEX
  8
0
 10
91.284046
 20
272.494357
 42
0.042206
  0
VERTEX
  8
0
 10
87.245025
 20
270.444087
 42
0.039020
  0
VERTEX
  8
0
 10
83.355106
 20
267.595465
 42
0.025802
  0
VERTEX
  8
0
 10
79.344793
 20
263.771051
 42
0.030010
  0
VERTEX
  8
0
 10
75.438619
 20
259.110138
 42
0.031642
  0
VERTEX
  8
0
 10
72.193175
 20
254.093987
 42
0.025336
  0
VERTEX
  8
0
 10
69.082026
 20
247.819845
 42
0.010734
  0
VERTEX
  8
0
 10
65.525357
 20
239.123012
 42
-0.009471
  0
VERTEX
  8
0
 10
63.721651
 20
234.680564
 42
-0.002903
  0
VERTEX
  8
0
 10
60.831746
 20
228.039260
 42
-0.002904
  0
VERTEX
  8
0
 10
57.509741
 20
220.640984
 42
-0.003176
  0
VERTEX
  8
0
 10
54.198355
 20
213.500000
 42
0.004061
  0
VERTEX
  8
0
 10
48.159594
 20
200.416832
 42
0.023483
  0
VERTEX
  8
0
 10
45.355054
 20
193.340828
 42
0.045002
  0
VERTEX
  8
0
 10
44.283857
 20
188.972049
 42
0.213987
  0
VERTEX
  8
0
 10
44.956350
 20
186.552595
 42
0.152065
  0
VERTEX
  8
0
 10
51.139447
 20
182.534643
 42
0.003104
  0
VERTEX
  8
0
 10
87.283680
 20
172.600313
 42
0.006623
  0
VERTEX
  8
0
 10
121.706248
 20
163.855654
 42
0.045325
  0
VERTEX
  8
0
 10
139.000000
 20
161.331331
 42
0.000000
  0
VERTEX
  8
0
 10
148.500000
 20
160.814435
 42
0.000000
  0
VERTEX
  8
0
 10
152.191401
 20
166.657218
 42
0.027944
  0
VERTEX
  8
0
 10
156.859009
 20
175.049158
 42
0.028043
  0
VERTEX
  8
0
 10
160.555549
 20
183.899538
 42
0.018212
  0
VERTEX
  8
0
 10
164.317851
 20
195.927495
 42
0.004556
  0
VERTEX
  8
0
 10
169.560763
 20
215.826312
 42
0.002621
  0
VERTEX
  8
0
 10
175.197845
 20
238.539535
 42
0.051522
  0
VERTEX
  8
0
 10
176.166314
 20
245.665714
 42
0.165348
  0
VERTEX
  8
0
 10
174.865875
 20
249.936031
 42
0.080045
  0
VERTEX
  8
0
 10
170.788474
 20
254.032328
 42
0.062962
  0
VERTEX
  8
0
 10
164.224093
 20
257.637262
 42
0.006230
  0
VERTEX
  8
0
 10
147.382249
 20
264.053291
 42
0.008160
  0
VERTEX
  8
0
 10
130.293992
 20
270.005984
 42
0.029471
  0
VERTEX
  8
0
 10
119.159834
 20
272.967428
 42
0.014319
  0
VERTEX
  8
0
 10
111.872124
 20
274.236409
 42
0.025871
  0
VERTEX
  8
0
 10
105.840806
 20
274.793044
 42
0.030761
  0
VERTEX
  8
0
 10
100.596457
 20
274.681826
 42
0.037185
  0
SEQEND
  0
POLYLINE
  8
0
 66
1
 70
1
  0
VERTEX
  8
0
 10
45.000000
 20
262.500000
 42
-0.025298
  0
VERTEX
  8
0
 10
43.914448
 20
261.950313
 42
-0.021574
  0
VERTEX
  8
0
 10
42.720312
 20
261.480268
 42
-0.022132
  0
VERTEX
  8
0
 10
41.595337
 20
261.147497
 42
-0.055833
  0
VERTEX
  8
0
 10
40.750000
 20
261.035435
 42
0.264990
  0
VERTEX
  8
0
 10
39.805418
 20
260.471382
 42
0.095177
  0
VERTEX
  8
0
 10
39.287216
 20
258.931536
 42
0.030833
  0
VERTEX
  8
0
 10
39.054259
 20
255.754530
 42
0.003191
  0
VERTEX
  8
0
 10
39.015479
 20
248.250000
 42
0.000000
  0
VERTEX
  8
0
 10
39.030958
 20
235.500000
 42
0.000000
  0
VERTEX
  8
0
 10
42.835173
 20
244.000000
 42
-0.007508
  0
VERTEX
  8
0
 10
44.521307
 20
247.620636
 42
-0.006002
  0
VERTEX
  8
0
 10
46.443102
 20
251.471875
 42
-0.006071
  0
VERTEX
  8
0
 10
48.308021
 20
254.993649
 42
-0.015261
  0
VERTEX
  8
0
 10
49.775395
 20
257.500000
 42
0.007493
  0
VERTEX
  8
0
 10
51.550240
 20
260.426310
 42
0.070997
  0
VERTEX
  8
0
 10
52.104078
 20
261.779619
 42
0.218039
  0
VERTEX
  8
0
 10
51.954863
 20
262.587415
 42
0.145915
  0
VERTEX
  8
0
 10
51.205702
 20
263.179715
 42
0.035196
  0
VERTEX
  8
0
 10
49.500823
 20
263.723666
 42
0.087114
  0
VERTEX
  8
0
 10
48.196516
 20
263.808164
 42
0.078222
  0
VERTEX
  8
0
 10
46.858073
 20
263.444614
 42
0.024496
  0
SEQEND
  0
POLYLINE
  8
0
 66
1
 70
1
  0
VERTEX
  8
0
 10
555.541539
 20
239.542191
 42
0.010946
  0
VERTEX
  8
0
 10
549.655721
 20
235.977264
 42
0.033081
  0
VERTEX
  8
0
 10
545.877034
 20
233.207006
 42
0.041071
  0
VERTEX
  8
0
 10
542.959851
 20
230.316246
 42
0.025572
  0
VERTEX
  8
0
 10
540.018054
 20
226.500000
 42
0.037189
  0
VERTEX
  8
0
 10
537.639128
 20
222.451371
 42
0.032068
  0
VERTEX
  8
0
 10
535.750312
 20
217.892473
 42
0.029950
  0
VERTEX
  8
0
 10
534.352990
 20
212.819671
 42
0.024066
  0
VERTEX
  8
0
 10
533.446658
 20
207.231292
 42
0.000000
  0
VERTEX
  8
0
 10
532.756228
 20
201.128695
 42
0.000000
  0
VERTEX
  8
0
 10
536.251660
 20
199.668210
 42
-0.065662
  0
VERTEX
  8
0
 10
538.102611
 20
198.591364
 42
-0.012038
  0
VERTEX
  8
0
 10
541.180893
 20
196.091240
 42
-0.012753
  0
VERTEX
  8
0
 10
544.660245
 20
192.966815
 42
-0.011288
  0
VERTEX
  8
0
 10
548.123547
 20
189.542184
 42
0.010541
  0
VERTEX
  8
0
 10
551.695259
 20
185.999787
 42
0.009797
  0
VERTEX
  8
0
 10
555.499837
 20
182.521669
 42
0.009829
  0
VERTEX
  8
0
 10
559.003542
 20
179.562442
 42
0.032303
  0
VERTEX
  8
0
 10
561.471643
 20
177.811188
 42
-0.030983
  0
VERTEX
  8
0
 10
564.160744
 20
175.913760
 42
-0.006104
  0
VERTEX
  8
0
 10
568.723391
 20
172.158554
 42
-0.006450
  0
VERTEX
  8
0
 10
573.937259
 20
167.643116
 42
-0.005949
  0
VERTEX
  8
0
 10
579.176990
 20
162.872865
 42
0.001997
  0
VERTEX
  8
0
 10
584.097928
 20
158.321195
 42
0.003217
  0
VERTEX
  8
0
 10
588.330160
 20
154.487654
 42
0.000610
  0
VERTEX
  8
0
 10
592.080265
 20
151.142712
 42
0.183813
  0
VERTEX
  8
0
 10
592.455347
 20
151.000000
 42
0.410124
  0
VERTEX
  8
0
 10
592.678833
 20
151.220382
 42
0.000174
  0
VERTEX
  8
0
 10
592.840008
 20
163.040065
 42
0.002077
  0
VERTEX
  8
0
 10
592.960861
 20
176.270804
 42
0.001245
  0
VERTEX
  8
0
 10
593.000000
 20
191.987455
 42
0.000000
  0
VERTEX
  8
0
 10
593.000000
 20
232.974911
 42
0.000000
  0
VERTEX
  8
0
 10
589.250000
 20
235.329409
 42
0.032364
  0
VERTEX
  8
0
 10
584.475207
 20
237.912852
 42
0.015910
  0
VERTEX
  8
0
 10
578.108221
 20
240.600498
 42
0.015340
  0
VERTEX
  8
0
 10
571.809845
 20
242.806778
 42
0.050351
  0
VERTEX
  8
0
 10
567.500000
 20
243.705774
 42
0.052052
  0
VERTEX
  8
0
 10
565.060046
 20
243.708252
 42
0.058077
  0
VERTEX
  8
0
 10
562.764652
 20
243.197320
 42
0.037592
  0
VERTEX
  8
0
 10
559.947783
 20
241.972375
 42
0.009339
  0
SEQEND
  0
POLYLINE
  8
0
 66
1
 70
1
  0
VERTEX
  8
0
 10
215.406712
 20
233.038401
 42
0.058321
  0
VERTEX
  8
0
 10
206.264890
 20
229.923284
 42
0.076355
  0
VERTEX
  8
0
 10
198.976932
 20
224.965735
 42
0.073329
  0
VERTEX
  8
0
 10
193.306506
 20
217.876333
 42
0.049058
  0
VERTEX
  8
0
 10
188.966862
 20
208.419275
 42
0.023044
  0
VERTEX
  8
0
 10
187.963041
 20
205.006834
 42
0.004371
  0
VERTEX
  8
0
 10
186.476842
 20
198.695652
 42
0.004659
  0
VERTEX
  8
0
 10
184.873122
 20
191.288288
 42
0.004262
  0
VERTEX
  8
0
 10
183.357540
 20
183.629752
 42
0.000000
  0
VERTEX
  8
0
 10
179.790112
 20
164.759504
 42
0.000000
  0
VERTEX
  8
0
 10
182.690418
 20
160.629752
 42
0.089129
  0
VERTEX
  8
0
 10
187.857629
 20
155.510419
 42
0.041979
  0
VERTEX
  8
0
 10
196.044078
 20
150.833528
 42
0.020739
  0
VERTEX
  8
0
 10
209.936346
 20
145.063439
 42
0.003319
  0
VERTEX
  8
0
 10
237.602613
 20
135.103605
 42
0.001692
  0
VERTEX
  8
0
 10
265.656574
 20
125.320608
 42
0.013688
  0
VERTEX
  8
0
 10
278.656019
 20
121.231262
 42
0.030634
  0
VERTEX
  8
0
 10
286.797601
 20
119.443494
 42
0.059481
  0
VERTEX
  8
0
 10
293.442019
 20
119.203634
 42
0.057454
  0
VERTEX
  8
0
 10
299.143433
 20
120.344658
 42
0.052396
  0
VERTEX
  8
0
 10
304.627248
 20
122.773867
 42
0.041740
  0
VERTEX
  8
0
 10
310.478106
 20
126.820847
 42
0.019453
  0
VERTEX
  8
0
 10
317.372387
 20
132.959182
 42
0.021925
  0
VERTEX
  8
0
 10
327.190004
 20
143.276305
 42
0.025200
  0
VERTEX
  8
0
 10
335.593033
 20
153.962400
 42
0.023758
  0
VERTEX
  8
0
 10
343.265368
 20
165.972813
 42
0.016094
  0
VERTEX
  8
0
 10
350.891624
 20
180.312916
 42
0.000000
  0
VERTEX
  8
0
 10
359.641423
 20
198.125833
 42
0.000000
  0
VERTEX
  8
0
 10
355.303672
 20
200.667924
 42
0.039277
  0
VERTEX
  8
0
 10
338.008743
 20
209.056014
 42
0.015640
  0
VERTEX
  8
0
 10
313.152863
 20
217.898473
 42
0.015483
  0
VERTEX
  8
0
 10
285.896297
 20
225.722811
 42
0.020168
  0
VERTEX
  8
0
 10
260.500000
 20
231.089410
 42
0.020327
  0
VERTEX
  8
0
 10
249.324180
 20
232.519506
 42
0.010858
  0
VERTEX
  8
0
 10
235.424167
 20
233.423014
 42
0.009284
  0
VERTEX
  8
0
 10
222.268016
 20
233.747082
 42
0.054545
  0
SEQEND
  0
POLYLINE
  8
0
 66
1
 70
1
  0
VERTEX
  8
0
 10
443.500000
 20
201.325972
 42
0.009129
  0
VERTEX
  8
0
 10
433.326420
 20
200.279384
 42
0.006752
  0
VERTEX
  8
0
 10
422.115231
 20
198.764915
 42
0.006728
  0
VERTEX
  8
0
 10
411.724045
 20
197.074859
 42
0.018438
  0
VERTEX
  8
0
 10
404.455249
 20
195.513721
 42
0.038274
  0
VERTEX
  8
0
 10
392.843734
 20
191.602013
 42
0.071801
  0
VERTEX
  8
0
 10
384.389899
 20
186.479127
 42
0.057725
  0
VERTEX
  8
0
 10
376.607125
 20
178.409595
 42
0.017438
  0
VERTEX
  8
0
 10
366.737338
 20
164.500000
 42
0.009623
  0
VERTEX
  8
0
 10
359.028895
 20
152.286451
 42
0.021536
  0
VERTEX
  8
0
 10
353.762081
 20
142.661435
 42
0.028182
  0
VERTEX
  8
0
 10
350.489709
 20
134.949040
 42
0.067669
  0
VERTEX
  8
0
 10
349.199531
 20
128.889925
 42
0.033625
  0
VERTEX
  8
0
 10
349.169209
 20
124.815804
 42
0.068650
  0
VERTEX
  8
0
 10
349.793455
 20
121.685987
 42
0.105018
  0
VERTEX
  8
0
 10
350.984159
 20
119.714029
 42
0.207479
  0
VERTEX
  8
0
 10
352.630813
 20
119.000000
 42
-0.083933
  0
VERTEX
  8
0
 10
353.420666
 20
118.866470
 42
-0.024202
  0
VERTEX
  8
0
 10
354.573116
 20
118.401698
 42
-0.023612
  0
VERTEX
  8
0
 10
355.841993
 20
117.742799
 42
-0.023157
  0
VERTEX
  8
0
 10
357.051643
 20
116.963227
 42
0.040043
  0
VERTEX
  8
0
 10
361.317645
 20
114.413407
 42
0.030040
  0
VERTEX
  8
0
 10
366.361926
 20
112.288882
 42
0.023598
  0
VERTEX
  8
0
 10
372.734115
 20
110.377769
 42
0.010917
  0
VERTEX
  8
0
 10
381.171290
 20
108.470143
 42
-0.008180
  0
VERTEX
  8
0
 10
387.092179
 20
107.165464
 42
-0.003615
  0
VERTEX
  8
0
 10
394.872191
 20
105.257633
 42
-0.003577
  0
VERTEX
  8
0
 10
403.089674
 20
103.116753
 42
-0.004808
  0
VERTEX
  8
0
 10
410.500000
 20
101.052864
 42
0.004848
  0
VERTEX
  8
0
 10
424.671088
 20
97.107239
 42
0.018689
  0
VERTEX
  8
0
 10
433.578504
 20
95.073415
 42
0.029396
  0
VERTEX
  8
0
 10
440.253678
 20
94.212037
 42
0.037431
  0
VERTEX
  8
0
 10
446.460314
 20
94.244751
 42
0.063132
  0
VERTEX
  8
0
 10
454.640885
 20
95.955873
 42
0.073093
  0
VERTEX
  8
0
 10
461.701613
 20
99.615801
 42
0.063688
  0
VERTEX
  8
0
 10
468.120741
 20
105.612043
 42
0.034845
  0
VERTEX
  8
0
 10
474.409984
 20
114.373717
 42
0.048649
  0
VERTEX
  8
0
 10
479.730270
 20
125.229165
 42
0.016977
  0
VERTEX
  8
0
 10
485.284336
 20
141.738512
 42
0.017270
  0
VERTEX
  8
0
 10
489.775468
 20
158.894422
 42
0.038949
  0
VERTEX
  8
0
 10
491.697846
 20
172.185268
 42
0.022961
  0
VERTEX
  8
0
 10
491.830481
 20
178.859222
 42
0.038737
  0
VERTEX
  8
0
 10
491.252587
 20
184.423935
 42
0.038207
  0
VERTEX
  8
0
 10
489.815508
 20
189.885550
 42
0.021637
  0
VERTEX
  8
0
 10
487.296057
 20
196.250000
 42
0.000000
  0
VERTEX
  8
0
 10
484.726873
 20
202.000000
 42
0.000000
  0
VERTEX
  8
0
 10
466.113436
 20
201.831897
 42
0.001487
  0
VERTEX
  8
0
 10
458.693219
 20
201.742814
 42
0.001848
  0
VERTEX
  8
0
 10
451.792697
 20
201.613939
 42
0.001504
  0
VERTEX
  8
0
 10
445.999639
 20
201.466900
 42
0.013969
  0
SEQEND
  0
POLYLINE
  8
0
 66
1
 70
1
  0
VERTEX
  8
0
 10
511.711255
 20
182.102154
 42
0.028209
  0
VERTEX
  8
0
 10
509.719336
 20
179.630389
 42
0.069988
  0
VERTEX
  8
0
 10
508.643822
 20
177.575363
 42
0.053269
  0
VERTEX
  8
0
 10
508.021335
 20
174.986562
 42
0.011205
  0
VERTEX
  8
0
 10
507.522946
 20
170.352154
 42
-0.012400
  0
VERTEX
  8
0
 10
506.540478
 20
161.417363
 42
-0.020133
  0
VERTEX
  8
0
 10
505.214126
 20
153.897253
 42
-0.016547
  0
VERTEX
  8
0
 10
503.100676
 20
145.548203
 42
-0.005649
  0
VERTEX
  8
0
 10
499.499190
 20
133.580651
 42
0.003112
  0
VERTEX
  8
0
 10
495.511773
 20
120.570225
 42
0.005451
  0
VERTEX
  8
0
 10
492.395682
 20
109.744463
 42
0.001308
  0
VERTEX
  8
0
 10
489.850592
 20
100.430664
 42
0.309768
  0
VERTEX
  8
0
 10
490.128313
 20
99.637124
 42
0.022459
  0
VERTEX
  8
0
 10
495.059495
 20
96.346524
 42
0.014726
  0
VERTEX
  8
0
 10
501.007633
 20
92.987413
 42
0.014015
  0
VERTEX
  8
0
 10
506.708912
 20
90.186786
 42
0.052151
  0
VERTEX
  8
0
 10
510.495206
 20
88.913659
 42
0.066373
  0
VERTEX
  8
0
 10
521.701045
 20
87.929376
 42
0.027963
  0
VERTEX
  8
0
 10
536.772773
 20
89.454533
 42
0.028051
  0
VERTEX
  8
0
 10
551.909418
 20
92.725884
 42
0.053203
  0
VERTEX
  8
0
 10
563.500000
 20
97.291473
 42
0.052105
  0
VERTEX
  8
0
 10
569.229998
 20
101.092147
 42
0.015308
  0
VERTEX
  8
0
 10
577.172307
 20
108.063618
 42
0.008988
  0
VERTEX
  8
0
 10
584.836952
 20
115.480653
 42
0.198507
  0
VERTEX
  8
0
 10
586.000000
 20
118.294703
 42
0.154976
  0
VERTEX
  8
0
 10
585.322106
 20
120.429274
 42
0.035384
  0
VERTEX
  8
0
 10
582.892261
 20
123.398964
 42
0.030628
  0
VERTEX
  8
0
 10
579.263558
 20
126.800327
 42
0.018014
  0
VERTEX
  8
0
 10
574.548746
 20
130.427964
 42
-0.038547
  0
VERTEX
  8
0
 10
567.824398
 20
136.055580
 42
-0.009916
  0
VERTEX
  8
0
 10
557.887199
 20
146.159680
 42
-0.010094
  0
VERTEX
  8
0
 10
548.323569
 20
156.695784
 42
-0.035248
  0
VERTEX
  8
0
 10
542.797165
 20
164.019991
 42
0.030485
  0
VERTEX
  8
0
 10
538.815558
 20
169.402634
 42
0.033575
  0
VERTEX
  8
0
 10
534.326431
 20
174.079118
 42
0.032758
  0
VERTEX
  8
0
 10
529.150481
 20
178.206975
 42
0.026539
  0
VERTEX
  8
0
 10
523.111512
 20
181.948334
 42
0.001309
  0
VERTEX
  8
0
 10
520.261394
 20
183.501578
 42
0.002101
  0
VERTEX
  8
0
 10
517.821379
 20
184.809823
 42
0.000369
  0
VERTEX
  8
0
 10
515.660558
 20
185.954666
 42
0.122223
  0
VERTEX
  8
0
 10
515.477874
 20
186.000000
 42
0.201880
  0
VERTEX
  8
0
 10
515.317469
 20
185.932483
 42
0.001427
  0
VERTEX
  8
0
 10
514.270306
 20
184.855008
 42
0.005152
  0
VERTEX
  8
0
 10
513.078849
 20
183.596342
 42
0.003239
  0
SEQEND
  0
POLYLINE
  8
0
 66
1
 70
1
  0
VERTEX
  8
0
 10
49.333398
 20
152.522150
 42
0.036888
  0
VERTEX
  8
0
 10
42.349359
 20
150.428899
 42
0.228782
  0
VERTEX
  8
0
 10
39.852937
 20
147.781373
 42
0.077123
  0
VERTEX
  8
0
 10
39.072936
 20
142.698410
 42
0.002166
  0
VERTEX
  8
0
 10
39.206372
 20
120.489957
 42
0.002723
  0
VERTEX
  8
0
 10
39.393336
 20
108.648233
 42
0.005787
  0
VERTEX
  8
0
 10
39.693961
 20
99.488140
 42
0.002254
  0
VERTEX
  8
0
 10
40.054920
 20
92.110896
 42
0.185264
  0
VERTEX
  8
0
 10
40.512201
 20
91.086289
 42
0.206047
  0
VERTEX
  8
0
 10
41.327975
 20
90.762116
 42
0.039079
  0
VERTEX
  8
0
 10
42.955038
 20
90.935691
 42
0.029514
  0
VERTEX
  8
0
 10
45.236172
 20
91.502171
 42
0.011443
  0
VERTEX
  8
0
 10
48.321683
 20
92.542878
 42
0.012339
  0
VERTEX
  8
0
 10
54.484268
 20
94.953481
 42
0.025874
  0
VERTEX
  8
0
 10
59.117606
 20
97.187541
 42
0.018528
  0
VERTEX
  8
0
 10
64.363576
 20
100.318386
 42
0.003733
  0
VERTEX
  8
0
 10
73.437550
 20
106.296989
 42
-0.008061
  0
VERTEX
  8
0
 10
78.951529
 20
109.861957
 42
-0.004630
  0
VERTEX
  8
0
 10
85.705539
 20
113.989443
 42
-0.004624
  0
VERTEX
  8
0
 10
92.570735
 20
118.012295
 42
-0.007691
  0
VERTEX
  8
0
 10
98.437550
 20
121.258728
 42
0.008046
  0
VERTEX
  8
0
 10
107.339745
 20
126.193064
 42
0.013834
  0
VERTEX
  8
0
 10
114.568849
 20
130.624099
 42
0.008672
  0
VERTEX
  8
0
 10
120.209487
 20
134.440920
 42
0.244335
  0
VERTEX
  8
0
 10
121.000000
 20
135.962025
 42
0.248224
  0
VERTEX
  8
0
 10
120.786541
 20
136.365505
 42
0.015331
  0
VERTEX
  8
0
 10
119.604687
 20
137.117894
 42
0.019857
  0
VERTEX
  8
0
 10
118.070164
 20
137.949335
 42
0.013176
  0
VERTEX
  8
0
 10
116.250000
 20
138.785169
 42
0.024866
  0
VERTEX
  8
0
 10
109.530229
 20
141.271741
 42
0.005142
  0
VERTEX
  8
0
 10
97.458816
 20
144.932027
 42
0.003050
  0
VERTEX
  8
0
 10
84.987619
 20
148.491485
 42
0.068085
  0
VERTEX
  8
0
 10
81.270531
 20
149.000000
 42
-0.039753
  0
VERTEX
  8
0
 10
79.877770
 20
149.110907
 42
-0.007045
  0
VERTEX
  8
0
 10
77.297117
 20
149.561913
 42
-0.007585
  0
VERTEX
  8
0
 10
74.280521
 20
150.180566
 42
-0.006767
  0
VERTEX
  8
0
 10
71.166613
 20
150.912896
 42
0.010088
  0
VERTEX
  8
0
 10
63.616006
 20
152.635823
 42
0.032660
  0
VERTEX
  8
0
 10
58.526156
 20
153.347235
 42
0.042959
  0
VERTEX
  8
0
 10
54.182853
 20
153.293845
 42
0.029834
  0
SEQEND
  0
POLYLINE
  8
0
 66
1
 70
1
  0
VERTEX
  8
0
 10
152.157723
 20
126.521810
 42
0.017737
  0
VERTEX
  8
0
 10
139.426210
 20
123.028188
 42
0.035661
  0
VERTEX
  8
0
 10
129.735633
 20
119.218430
 42
0.021853
  0
VERTEX
  8
0
 10
118.084465
 20
113.010270
 42
0.003218
  0
VERTEX
  8
0
 10
95.164460
 20
99.280536
 42
-0.000554
  0
VERTEX
  8
0
 10
84.698529
 20
92.935122
 42
-0.000597
  0
VERTEX
  8
0
 10
74.474137
 20
86.768285
 42
-0.000563
  0
VERTEX
  8
0
 10
65.685928
 20
81.495434
 42
-0.002856
  0
VERTEX
  8
0
 10
60.768774
 20
78.590728
 42
0.004626
  0
VERTEX
  8
0
 10
57.420446
 20
76.596750
 42
0.007356
  0
VERTEX
  8
0
 10
54.596831
 20
74.822240
 42
0.002529
  0
VERTEX
  8
0
 10
52.211647
 20
73.256653
 42
0.242877
  0
VERTEX
  8
0
 10
52.018774
 20
72.910515
 42
0.327477
  0
VERTEX
  8
0
 10
52.799049
 20
71.772687
 42
0.024809
  0
VERTEX
  8
0
 10
56.597598
 20
70.650954
 42
0.022441
  0
VERTEX
  8
0
 10
62.240348
 20
69.550155
 42
0.008264
  0
VERTEX
  8
0
 10
70.284999
 20
68.488110
 42
-0.006650
  0
VERTEX
  8
0
 10
82.724388
 20
66.886702
 42
-0.016695
  0
VERTEX
  8
0
 10
91.729702
 20
65.297085
 42
-0.010897
  0
VERTEX
  8
0
 10
102.552088
 20
62.764239
 42
-0.001545
  0
VERTEX
  8
0
 10
124.666386
 20
57.004722
 42
0.000000
  0
VERTEX
  8
0
 10
155.016540
 20
49.000000
 42
0.000000
  0
VERTEX
  8
0
 10
185.258270
 20
49.018304
 42
0.000000
  0
VERTEX
  8
0
 10
215.500000
 20
49.036609
 42
0.000000
  0
VERTEX
  8
0
 10
224.000000
 20
54.460061
 42
0.003219
  0
VERTEX
  8
0
 10
227.413442
 20
56.669065
 42
0.003706
  0
VERTEX
  8
0
 10
230.640671
 20
58.821546
 42
0.003331
  0
VERTEX
  8
0
 10
233.349334
 20
60.683761
 42
0.021423
  0
VERTEX
  8
0
 10
234.670369
 20
61.691757
 42
0.005634
  0
VERTEX
  8
0
 10
242.317193
 20
68.210081
 42
0.000868
  0
VERTEX
  8
0
 10
257.331640
 20
81.349651
 42
0.000071
  0
VERTEX
  8
0
 10
274.294721
 20
96.250855
 42
0.115851
  0
VERTEX
  8
0
 10
274.749893
 20
96.889511
 42
0.433684
  0
VERTEX
  8
0
 10
274.599559
 20
97.217410
 42
0.000428
  0
VERTEX
  8
0
 10
266.040474
 20
100.069519
 42
0.003252
  0
VERTEX
  8
0
 10
256.331450
 20
103.225624
 42
0.001945
  0
VERTEX
  8
0
 10
244.749893
 20
106.857786
 42
-0.002449
  0
VERTEX
  8
0
 10
231.958738
 20
110.883469
 42
-0.002102
  0
VERTEX
  8
0
 10
218.539031
 20
115.241615
 42
-0.002117
  0
VERTEX
  8
0
 10
206.386693
 20
119.301863
 42
-0.006085
  0
VERTEX
  8
0
 10
198.000000
 20
122.257762
 42
0.004398
  0
VERTEX
  8
0
 10
188.110711
 20
125.780826
 42
0.023236
  0
VERTEX
  8
0
 10
182.592091
 20
127.409480
 42
0.034081
  0
VERTEX
  8
0
 10
177.937584
 20
128.219838
 42
0.017262
  0
VERTEX
  8
0
 10
172.000000
 20
128.634462
 42
0.013589
  0
VERTEX
  8
0
 10
166.777672
 20
128.676351
 42
0.021733
  0
VERTEX
  8
0
 10
162.326902
 20
128.397306
 42
0.020670
  0
VERTEX
  8
0
 10
157.761986
 20
127.719492
 42
0.010901
  0
SEQEND
  0
POLYLINE
  8
0
 66
1
 70
1
  0
VERTEX
  8
0
 10
296.423207
 20
83.636503
 42
0.017523
  0
VERTEX
  8
0
 10
291.686884
 20
81.684105
 42
0.022399
  0
VERTEX
  8
0
 10
287.481357
 20
79.543460
 42
0.014456
  0
VERTEX
  8
0
 10
282.274285
 20
76.390045
 42
0.003154
  0
VERTEX
  8
0
 10
273.500000
 20
70.644576
 42
0.009365
  0
VERTEX
  8
0
 10
265.759836
 20
65.294698
 42
0.004303
  0
VERTEX
  8
0
 10
255.868026
 20
58.050268
 42
0.000664
  0
VERTEX
  8
0
 10
245.424073
 20
50.240892
 42
0.236100
  0
VERTEX
  8
0
 10
245.000000
 20
49.392874
 42
0.409495
  0
VERTEX
  8
0
 10
245.158506
 20
49.231789
 42
0.000228
  0
VERTEX
  8
0
 10
252.579659
 20
49.115407
 42
0.002379
  0
VERTEX
  8
0
 10
260.908896
 20
49.028232
 42
0.001427
  0
VERTEX
  8
0
 10
270.803095
 20
49.000000
 42
0.000000
  0
VERTEX
  8
0
 10
296.606190
 20
49.000000
 42
0.000000
  0
VERTEX
  8
0
 10
300.414071
 20
59.250000
 42
0.011253
  0
VERTEX
  8
0
 10
302.260995
 20
64.586426
 42
0.020095
  0
VERTEX
  8
0
 10
303.501662
 20
69.060518
 42
0.022397
  0
VERTEX
  8
0
 10
304.290885
 20
73.265449
 42
0.019150
  0
VERTEX
  8
0
 10
304.751933
 20
77.750000
 42
0.010143
  0
VERTEX
  8
0
 10
305.027826
 20
84.035431
 42
0.249789
  0
VERTEX
  8
0
 10
304.270595
 20
85.541100
 42
0.237892
  0
VERTEX
  8
0
 10
302.573339
 20
85.794411
 42
0.009251
  0
SEQEND
  0
POLYLINE
  8
0
 66
1
 70
1
  0
VERTEX
  8
0
 10
354.427316
 20
84.534980
 42
0.014546
  0
VERTEX
  8
0
 10
351.363104
 20
83.885874
 42
0.010636
  0
VERTEX
  8
0
 10
348.001006
 20
82.994687
 42
0.010764
  0
VERTEX
  8
0
 10
344.849411
 20
82.013189
 42
0.023263
  0
VERTEX
  8
0
 10
342.482370
 20
81.095226
 42
0.040729
  0
VERTEX
  8
0
 10
335.933641
 20
77.535601
 42
0.076912
  0
VERTEX
  8
0
 10
331.475662
 20
73.523384
 42
0.065315
  0
VERTEX
  8
0
 10
327.999667
 20
67.904577
 42
0.022579
  0
VERTEX
  8
0
 10
324.467053
 20
59.019176
 42
-0.001325
  0
VERTEX
  8
0
 10
323.550806
 20
56.394923
 42
-0.001534
  0
VERTEX
  8
0
 10
322.664014
 20
53.900945
 42
-0.001367
  0
VERTEX
  8
0
 10
321.900831
 20
51.793423
 42
-0.009074
  0
VERTEX
  8
0
 10
321.498146
 20
50.750000
 42
0.513040
  0
VERTEX
  8
0
 10
322.205928
 20
49.625037
 42
0.008759
  0
VERTEX
  8
0
 10
330.705809
 20
49.253834
 42
0.006082
  0
VERTEX
  8
0
 10
346.161239
 20
49.038026
 42
0.000449
  0
VERTEX
  8
0
 10
388.463605
 20
49.000000
 42
0.000000
  0
VERTEX
  8
0
 10
456.141188
 20
49.000000
 42
0.000000
  0
VERTEX
  8
0
 10
460.996257
 20
53.093855
 42
0.000000
  0
VERTEX
  8
0
 10
465.851327
 20
57.187710
 42
0.000000
  0
VERTEX
  8
0
 10
463.675663
 20
63.251534
 42
0.034209
  0
VERTEX
  8
0
 10
461.224681
 20
68.846627
 42
0.087406
  0
VERTEX
  8
0
 10
458.535934
 20
72.342393
 42
0.090721
  0
VERTEX
  8
0
 10
454.879047
 20
74.634261
 42
0.038833
  0
VERTEX
  8
0
 10
449.350887
 20
76.352001
 42
0.011632
  0
VERTEX
  8
0
 10
438.619663
 20
78.531543
 42
0.004012
  0
VERTEX
  8
0
 10
423.016621
 20
81.195287
 42
0.004006
  0
VERTEX
  8
0
 10
407.384851
 20
83.606621
 42
0.011769
  0
VERTEX
  8
0
 10
396.576322
 20
84.926397
 42
0.014856
  0
VERTEX
  8
0
 10
385.466184
 20
85.685940
 42
0.011960
  0
VERTEX
  8
0
 10
373.494637
 20
85.861116
 42
0.012126
  0
VERTEX
  8
0
 10
362.433797
 20
85.490028
 42
0.030477
  0
SEQEND
  0
POLYLINE
  8
0
 66
1
 70
1
  0
VERTEX
  8
0
 10
585.500000
 20
80.149287
 42
0.032581
  0
VERTEX
  8
0
 10
580.870347
 20
76.749058
 42
0.017364
  0
VERTEX
  8
0
 10
575.588726
 20
71.990626
 42
0.010569
  0
VERTEX
  8
0
 10
570.790692
 20
67.156008
 42
0.192440
  0
VERTEX
  8
0
 10
570.000000
 20
65.177700
 42
0.151664
  0
VERTEX
  8
0
 10
570.415448
 20
63.839571
 42
0.014571
  0
VERTEX
  8
0
 10
572.451531
 20
61.054099
 42
0.016389
  0
VERTEX
  8
0
 10
575.274203
 20
57.655742
 42
0.009482
  0
VERTEX
  8
0
 10
578.875464
 20
53.750000
 42
0.013924
  0
VERTEX
  8
0
 10
581.669764
 20
50.990540
 42
0.070283
  0
VERTEX
  8
0
 10
583.461711
 20
49.735597
 42
0.088586
  0
VERTEX
  8
0
 10
585.334290
 20
49.168835
 42
0.029306
  0
VERTEX
  8
0
 10
588.212408
 20
49.000000
 42
0.000000
  0
VERTEX
  8
0
 10
593.000000
 20
49.000000
 42
0.000000
  0
VERTEX
  8
0
 10
593.000000
 20
66.500000
 42
0.004017
  0
VERTEX
  8
0
 10
592.946098
 20
73.209627
 42
0.006697
  0
VERTEX
  8
0
 10
592.779688
 20
78.856584
 42
0.001796
  0
VERTEX
  8
0
 10
592.554356
 20
83.704653
 42
0.403310
  0
VERTEX
  8
0
 10
592.250000
 20
83.990500
 42
0.122675
  0
VERTEX
  8
0
 10
591.751732
 20
83.859658
 42
0.004110
  0
VERTEX
  8
0
 10
589.957812
 20
82.858224
 42
0.007567
  0
VERTEX
  8
0
 10
587.853401
 20
81.618142
 42
0.005176
  0
SEQEND
  0
POLYLINE
  8
0
 66
1
 70
1
  0
VERTEX
  8
0
 10
521.547238
 20
72.899177
 42
0.013890
  0
VERTEX
  8
0
 10
516.850938
 20
72.072693
 42
0.020774
  0
VERTEX
  8
0
 10
512.807959
 20
71.068198
 42
0.015394
  0
VERTEX
  8
0
 10
508.075392
 20
69.521638
 42
0.004268
  0
VERTEX
  8
0
 10
500.750000
 20
66.804629
 42
0.000000
  0
VERTEX
  8
0
 10
493.000000
 20
63.854628
 42
0.000000
  0
VERTEX
  8
0
 10
493.000000
 20
57.525501
 42
0.000000
  0
VERTEX
  8
0
 10
493.000000
 20
51.196374
 42
0.000000
  0
VERTEX
  8
0
 10
498.750000
 20
50.554824
 42
0.047191
  0
VERTEX
  8
0
 10
503.716137
 20
50.471370
 42
0.032862
  0
VERTEX
  8
0
 10
509.269105
 20
51.272092
 42
0.015860
  0
VERTEX
  8
0
 10
517.669389
 20
53.333381
 42
0.002257
  0
VERTEX
  8
0
 10
534.750000
 20
58.186984
 42
0.004320
  0
VERTEX
  8
0
 10
540.213378
 20
59.817416
 42
0.007052
  0
VERTEX
  8
0
 10
544.814062
 20
61.305151
 42
0.002065
  0
VERTEX
  8
0
 10
548.741913
 20
62.654898
 42
0.319135
  0
VERTEX
  8
0
 10
549.000000
 20
63.018070
 42
0.171229
  0
VERTEX
  8
0
 10
548.429302
 20
64.635685
 42
0.033883
  0
VERTEX
  8
0
 10
546.311184
 20
66.927284
 42
0.035285
  0
VERTEX
  8
0
 10
543.575415
 20
69.168878
 42
0.044423
  0
VERTEX
  8
0
 10
540.746107
 20
70.815657
 42
0.043407
  0
VERTEX
  8
0
 10
536.532308
 20
72.361294
 42
0.039197
  0
VERTEX
  8
0
 10
531.968250
 20
73.222278
 42
0.036253
  0
VERTEX
  8
0
 10
526.992926
 20
73.399602
 42
0.027401
  0
SEQEND
  0
POLYLINE
  8
0
 66
1
 70
1
  0
VERTEX
  8
0
 10
53.969218
 20
53.685198
 42
0.018076
  0
VERTEX
  8
0
 10
52.055576
 20
53.075679
 42
0.014697
  0
VERTEX
  8
0
 10
50.052097
 20
52.289620
 42
0.014950
  0
VERTEX
  8
0
 10
48.247826
 20
51.455189
 42
0.037001
  0
VERTEX
  8
0
 10
46.996712
 20
50.710250
 42
0.389827
  0
VERTEX
  8
0
 10
46.806380
 20
49.844369
 42
0.241504
  0
VERTEX
  8
0
 10
47.748151
 20
49.240957
 42
0.022717
  0
VERTEX
  8
0
 10
51.875088
 20
49.032514
 42
0.001260
  0
VERTEX
  8
0
 10
64.777494
 20
49.000000
 42
0.001809
  0
VERTEX
  8
0
 10
72.531805
 20
49.028058
 42
0.003017
  0
VERTEX
  8
0
 10
79.059639
 20
49.114695
 42
0.000367
  0
VERTEX
  8
0
 10
84.843448
 20
49.230611
 42
0.408142
  0
VERTEX
  8
0
 10
85.000000
 20
49.390450
 42
0.344676
  0
VERTEX
  8
0
 10
84.481593
 20
50.053129
 42
0.002085
  0
VERTEX
  8
0
 10
76.526805
 20
51.990775
 42
0.008150
  0
VERTEX
  8
0
 10
69.043099
 20
53.652181
 42
0.026219
  0
VERTEX
  8
0
 10
64.000000
 20
54.413003
 42
0.024386
  0
VERTEX
  8
0
 10
61.520842
 20
54.533450
 42
0.018055
  0
VERTEX
  8
0
 10
58.777668
 20
54.433763
 42
0.018329
  0
VERTEX
  8
0
 10
56.133567
 20
54.144186
 42
0.031628
  0
SEQEND
  0
ENDSEC
  0
EOF
