<?xml version="1.0" encoding="utf-8"?>
<!-- Generator: Adobe Illustrator 25.0.0, SVG Export Plug-In . SVG Version: 6.00 Build 0)  -->
<svg version="1.1" id="Layer_1" xmlns="http://www.w3.org/2000/svg" xmlns:xlink="http://www.w3.org/1999/xlink" x="0px" y="0px"
	 viewBox="0 0 636.67 1251.85" style="enable-background:new 0 0 636.67 1251.85;" xml:space="preserve">
<style type="text/css">
	
		.st0{fill-rule:evenodd;clip-rule:evenodd;fill:none;stroke:#1E2225;stroke-width:0.2551;stroke-linejoin:bevel;stroke-miterlimit:22.9256;}
</style>
<polygon class="st0" points="10.71,12.73 620.68,12.73 620.68,1232.68 10.71,1232.68 10.71,12.73 "/>
<path class="st0" d="M181.95,41.78c-0.02,0.93-0.01,1.91,0.01,2.98c11.75,6.85,97.88,21.53,120.33,21.07
	c-2.44-6.26-9.84-14.99-18.77-24.05H181.95L181.95,41.78z"/>
<path class="st0" d="M317.15,41.78c16.31,15.33,18.26,25.78,35.05,7.17c2.51-2.79,4.65-5.14,6.49-7.17H317.15L317.15,41.78z"/>
<path class="st0" d="M419.8,41.78l35.07,73.08c5.67,19.05,15.23,87.01,26.07,93c11.51,6.37,19.48,2.09,29.79-4.41
	c13.94-8.78,28.65-20,41.87-29.54c31.51-20.42,43.97-29.12,15.35-87.31c-7.65-15.55-6.28-14.75-11.28-30.61l-4.76-14.22H419.8
	L419.8,41.78z"/>
<path class="st0" d="M571.87,41.78l17.08,43.28c1.06,2.75,2.42,5.85,4.01,9.11V41.78H571.87L571.87,41.78z"/>
<path class="st0" d="M592.96,171.19c-20.82,10.98-52.09,32.23-71.67,46.3c4.13,14.76,56.63,30.8,71.67,37.3V171.19L592.96,171.19z"
	/>
<path class="st0" d="M592.96,275.47l-19.49-5.93c-11.71-3.89-18.33-8.9-22.16-8.29c3.12,8.03,32.61,25.58,41.65,30.9V275.47
	L592.96,275.47z"/>
<path class="st0" d="M592.96,316.48c-1.97-1.4-70.46-54.16-82.47-55.57c-0.26,8.92,1.34,12.47,5.23,22.38l22.66,41.38
	c10.05,16.21,8.32,12.79,31.92,12.86c8.63,0.03,13.56,0.85,20.32-1.81c0.07-0.03,1.08-0.56,2.34-1.22V316.48L592.96,316.48z"/>
<path class="st0" d="M592.96,358.61c-8.22-6.42-29.33-1.6-37.1,5c-10.71,9.09-8.02,62.34,5.63,69.35c5.27-2.46,9.66-7.61,13.7-12.32
	c5.66-6.59,6.37-10.44,9.57-17.41l8.21-18.06V358.61L592.96,358.61z"/>
<path class="st0" d="M592.96,519.91c-4.48-3.36-9.27-6.16-12.44-6.04c-1.25,10.31,6.29,10.86,10.45,30.27l1.99,7.79V519.91
	L592.96,519.91z"/>
<path class="st0" d="M592.96,641.12c-1.77-9.59-2.17-14.64-10.17-40.6c-9.02-29.27-10.43-26.9-19.38-60.46l-5.28-14.85
	c-1.86-3.05-1.58-2.3-3.24-4.29c-10.35,0.04-11.55,1.7-18.99,5.65c-9.61,5.11-8.56,5.93-15.77,11.62
	c-11.29,8.91-19.16,15.79-27.73,27.1c1.48,6.97,3.9,13.84,9.94,18.2c17.93,12.99,8.11,2.58,30.96,27.46l19.29,23.54
	c1.58,1.83,1.16,1.03,2.98,3.84c1.95,3.01,0.41,0.83,2.39,4.48c5.03,9.28,6.8,8.58,13.22,16.12c7.04,9.46,14.19,21.22,17.78,25.07
	c1.04,1.11,2.49,2.04,4.01,2.79V641.12L592.96,641.12z"/>
<path class="st0" d="M592.96,765.46c-1.63,1.32-3.61,3.14-6.27,5.92c-6.07,6.37-10.61,12.12-17.02,16.76
	c-10.96,7.94-13.11,10.77-20.76,21.91c-6.1,8.88-5.91,6.87-5.72,20.87c4.25,2.45,7.12,3.48,11.65,5.92
	c11.87,6.41,24.88,7.22,38.11,8.73V765.46L592.96,765.46z"/>
<path class="st0" d="M592.96,870.72l-20.16-6.01c-14.23-3.63-32.73-6.27-47.29-0.42c-13.11,5.26-18.95,13.96-27.06,24.18
	l-34.74,64.65c25.35,0.65,43.88,7.72,55.85,7.91c46.77,0.73,62.62,3.15,73.4-4.77V870.72L592.96,870.72z"/>
<path class="st0" d="M592.96,1018.4c-3.8-3.1-9.57-5.94-18.6-9.09c-11.61-4.05-10.51-2.03-20.9,3.41
	c-14.54,7.61-21.37,20.14-21.03,38.56c6.53,3.43,2.47-0.24,8.72,4.87c3.17,2.6,6.05,6.13,8.98,9.35
	c9.53,10.47,10.46,7.21,18.9,14.71c4.62,4.11,14.43,14.72,23.94,22.13V1018.4L592.96,1018.4z"/>
<path class="st0" d="M592.96,1166.43c-0.25,0.14-0.48,0.27-0.68,0.38c-9.36,5.11-18.73,11.31-23.52,20.37
	c3.31,4.83,8.71,11.2,14.62,16.46h9.58V1166.43L592.96,1166.43z"/>
<path class="st0" d="M456.73,1203.63c4.45-4.19,4.06-4.79,9.51-8.4c-3.57-10.2-4.31-17.78-14.72-19.81
	c-25.62-4.98-110.18-24.42-124.43,8.15l-7.25,20.05H456.73L456.73,1203.63z"/>
<path class="st0" d="M296.57,1203.63l4.88-12.49c3.3-9.14,4.63-14.25,4.29-26.63l-12.87,4.08c-13.32,6.83-34.16,21.19-50.43,35.03
	H296.57L296.57,1203.63z"/>
<path class="st0" d="M215.12,1203.63l12.99-8.75c8.31-4.29,3.84-1.77,10.26-7.59l38.25-32.91l-66.09-20.55
	c-28.67-10.01-32.15-15.71-58.36-9.01l-12.23,3c-16.93,5.61-29.82,15.36-45.18,24.03l-31.81,19.59c-5.96,4.13-7.56,3.64-12.48,7.34
	c6.75,6.65,20.62,3.39,44.17,8.77l60.22,15.88l0.46,0.2H215.12L215.12,1203.63z"/>
<path class="st0" d="M89.85,1203.63c-15.72-5.76-34.6-12.25-47.02-0.09l-0.09,0.09H89.85L89.85,1203.63z"/>
<path class="st0" d="M38.43,1156.57l1.99,6.7c6.7-4.32,11.38-2.94,20.95-9.24c23.94-15.78,22.19-15.67,50.55-29.9l10.7-8.36
	c-1.15-0.69-5.25-3.31-8.06-4.3l-30.16-8.92c-16.57,0.04-22.99-10.71-45.96-0.21V1156.57L38.43,1156.57z"/>
<path class="st0" d="M38.43,1019.64c3.62-9.21,6.62-17.77,15.15-30.55c-8.56-3.27-6.25-0.56-12.08,1.02
	c-0.72,0.19-1.77,0.35-3.07,0.5V1019.64L38.43,1019.64z"/>
<path class="st0" d="M38.43,957.74c3.94-2.56,7.98-5.5,12.33-8.72L72.15,932c-4.25-2.35-0.43-1.77-5.79-0.51
	c-8.22,1.93-8.24,5.63-25.96,6.4l-1.97,0.36V957.74L38.43,957.74z"/>
<path class="st0" d="M38.43,916.29l26.15-4.98c14.55-0.06,25.43-4.3,34.78-14.79c15.47-17.36,6.75-42.54,5.41-64.78
	c-12.85-2.23-23.83,3.81-33.84,9.28c-10.33,5.65-21.81,8.41-32.5,13.5V916.29L38.43,916.29z"/>
<path class="st0" d="M38.43,816.79c1.04-0.82,2.27-1.74,3.76-2.79l32.65-21.4c6.15-4.4,19.35-12.95,22.73-18.07
	c5.4-8.18,4.81-9.62,1.76-13.08c-5.02-5.7-49.57,4.56-60.91,4.68V816.79L38.43,816.79z"/>
<path class="st0" d="M38.43,739.37l20.76,5.93c20.72,4.99,36.39-2.36,64.77-2.34c0.46,0,11.92-2.13,10.34-13.5
	c-0.95-6.87-5.63-7.32-9.99-14.96c-7.96-13.94-11.15-15.16-23.56-28.17c-21.23-22.23-18.71-18.16-28.22-48.08
	c-3.07-9.64-4.72-12.89-15.08-13.85l-19.01,44.48V739.37L38.43,739.37z"/>
<path class="st0" d="M38.43,623.55c0.37-0.5,0.75-1.01,1.17-1.54c4.71-5.99,4.82-2.74,7.12-10.65c-1.38-5.79-4.5-8.67-8.29-11.41
	V623.55L38.43,623.55z"/>
<path class="st0" d="M38.43,570.63c8.91,2.31,14.51,0.38,9.65-13.17c-0.71-1.97-1.88-5.04-2.58-7.17c-0.21-0.65-0.38-1.23-0.59-1.88
	l-1.12-3.69c-1.9-6.05-3.6-10.92-5.37-14.92V570.63L38.43,570.63z"/>
<path class="st0" d="M56.99,509.89c2.03,6.23,1.45,3.82,2.9,7.96l18.8,43.91c3.74,5.22,13.59,12.77,21.03,12.68
	c5.63-0.06,0.01,0.31,3.88-1.04c35.85-12.46,116.89-15.16,157.91-18.41c1.94-15.19-9.31-18.24-19.82-23.69
	c-49.24-25.52-87.72-59.09-131.75-91.79c-14.99-6.7-19.51-6.36-36.59-6.41c-16.87-0.06-16.68,1.97-34.92,3.66
	C38.43,459.85,50.28,488.35,56.99,509.89L56.99,509.89z"/>
<path class="st0" d="M38.43,416.34c2.68-0.97,5.79-2.05,11.86-2.07l-11.46-6.65l-0.4-0.14V416.34L38.43,416.34z"/>
<path class="st0" d="M38.43,388.5l41.54,12.2c0.53,0.23,1.28,0.7,1.71,0.9c0.43,0.21,1.13,0.66,1.69,0.99
	c-0.21-19.56-1.36-12.41-5.74-23.75c-3.27-8.45-0.98-12.15-8.79-18.11c-5.09-3.88-17.61-4.68-30.41-4.64V388.5L38.43,388.5z"/>
<path class="st0" d="M38.43,296.3l19.52,13.32c23.32,25,38.96-3.99,47.2-17.48c6.73-11.02,6.95-7.52,7.27-23.44
	c-16.11-9.51-0.52-4.67-31.64-15.64l-42.34-9.73V296.3L38.43,296.3z"/>
<path class="st0" d="M38.43,221.37c13.55,2.75,9.3-0.3,32.36,5.55c7.73,1.96,15.09,5.53,22.65,6.93
	c16.98,3.14,32.31,9.15,48.18-0.09c-3.44-7.14-4.46-7.56-11.37-11.2l-7.16-3.68c-15.8-8.65-15.49-6.46-25.1-11.24l-59.56-21.28
	V221.37L38.43,221.37z"/>
<path class="st0" d="M38.43,163.29c11.68,3.63,51.09,24.68,61.79,24.96c11.09,0.28,4.97-0.24,7.22-2.23
	c-25.23-22.03-45.4-41.26-69.01-64.75V163.29L38.43,163.29z"/>
<path class="st0" d="M38.43,69.37c26.73-1.67,82.52-11.33,106.7-15.84c-2.09-3.75-6.26-7.87-10.21-11.75H38.43V69.37L38.43,69.37z"
	/>
<path class="st0" d="M42.82,90.09c0.49,13.02,3.51,12.93,10.21,19.74c21.76,22.09,53.49,46.36,78.02,70.31
	c7.14,7.52,8.42,6.84,16.76,12.38c4,2.65,15.74,12,25.15,9.8c10.59-2.48,10.76-3.36,15.18-7.34c17.4-15.68,34.3-38.14,53.62-49.81
	l37.42-27.44c6.64-4.12,13.77-7.14,16.58-14.89C307.65,70.02,75.03,59.21,42.82,90.09L42.82,90.09z"/>
<path class="st0" d="M302.23,885.44c10.67,9.29,10.62,2.18,26.35,13.71l61.13,27.9c0.51,0.18,1.1,0.4,1.61,0.57
	c8.53,2.97,20.14,4.83,30.02,1.62c9.41-3.06,59.85-57.86,62.62-62.4l12.6-24.47c11.24-32.15-31.36-37.71-41.98-41.57
	c-28.76-10.47-55.29-14.26-79.35,9.28c-7.96,7.78-35.25,30.6-44.81,38.07L308,868.65C301.84,875.08,302.23,873.63,302.23,885.44
	L302.23,885.44z"/>
<path class="st0" d="M346.22,287.38c-0.31-51.5-5.71-117.12-15.59-167.57c-11.37-0.69-17.63-0.38-24.41,3.22
	c-3.85,2.05-4.62,2.66-8.81,4.93l-41.66,31.89c-15.63,16.55-69.12,53.58-69.98,76.25C184.68,265.21,331.62,287.94,346.22,287.38
	L346.22,287.38z"/>
<path class="st0" d="M360.56,1053.96c-27.44-19.14-126.79-47.68-155.28-32.41l-2.75,1.57c-10.21,6.51-14.78,19.13-17.22,30.46
	l-6.01,32.47c2.94,9.97,11.29,13.48,19.39,17.65l75.97,26.82c11.36,3.25,19.49,5,30-0.57c13.94-7.4,36.51-35.83,43.46-50.99
	C352.15,1070.18,356,1060.4,360.56,1053.96L360.56,1053.96z"/>
<path class="st0" d="M132.76,348.87c-2.57,0-26.92,6.14-30.09,12c-2.38,8.51-1.77,6.91,0.09,14.18c4,15.68,5.44,23.06,17.62,37.42
	c33,38.91,76.93,65.13,118.79,92.42c18.31,4.56,12.86-35.4,10.23-45.55c-10.91-49.33-6.91-61.15-34.57-99.84
	C189.22,327.33,160.5,348.85,132.76,348.87L132.76,348.87z"/>
<path class="st0" d="M359.33,1026.19c8.95-0.86,7.06-0.81,12.05-5.95c10.51-10.83,15.01-19.4,19.92-34.42
	c5.38-16.48,5.2-32.44-9.9-40.56c-9.19-4.94-17.61-8.93-26.33-13.62c-21.29-11.44-50.82-31.45-66.93-26.69
	c-23.01,6.8-39.51,27.14-53.02,46.46c-3.05,4.37-6.33,6.36-9.53,10.58C193.74,1004.05,344.79,1027.59,359.33,1026.19L359.33,1026.19
	z"/>
<path class="st0" d="M484.39,1049.07c-24.3-0.76-84.92,1.13-101.27,15.77c-2,1.8-6.08,6.15-7.63,8.16l-6.3,9.71
	c-5.26,7.01-22.26,32.38-21.12,42.03c1.47,12.46,1.56,5.52,8.15,10.39c11.71,8.65,19.17,6.55,40.97,12.47
	c34.06,9.26,57.31,22.05,76.08-7.13c7.24-11.25,6.54-12.09,10.82-25.35c0.17-0.54,0.37-1.16,0.55-1.7l2.59-8.46
	C494.36,1077.29,495.68,1069.88,484.39,1049.07L484.39,1049.07z"/>
<path class="st0" d="M368.74,280.11c11.18-2.52,38.83-30.87,47.39-39.84c6.63-6.94,15.32-14.84,20.88-21.88l8.71-14.31
	c10.92-22.65,2.24-66.78-20.09-79.15c-18.15-10.05-51.57-15.63-71.91-12.45C352.25,140.92,352.5,262.05,368.74,280.11L368.74,280.11
	z"/>
<path class="st0" d="M333.56,602.64c-3.36,9.29-8.67,24.18-9.39,33.96c-0.96,12.85-1.45,31.78,1.13,42.26l29.87,10.33
	c0.66,0.23,2.56,0.91,3.22,1.14l15.53,4.25c24.68,6.59,31.11,12.57,60.16,9.4c10.78-20.82,7.06-24.51,7.06-55.77
	c-0.01-67.84,12.33-71.08-53.27-53.86C367.51,599.69,367.82,593.6,333.56,602.64L333.56,602.64z"/>
<path class="st0" d="M43.01,1065.1c6.11,5.85,66.28,20.95,87.79,25.4c5.8,1.2,12.07,0.66,18.04,0.63
	c3.16-5.71,6.47-9.06,10.29-17.08c1.9-3.99,2.95-6.78,3.69-9.72l14.93-59.12c-5.19-7.43-4.5-6.94-12.78-11.28l-35.11-13.27
	c-17.62-3.96-43.33-12.93-59.57,18.94c-2.95,5.79-3.44,7.35-5.3,12.72C58.78,1030.26,43.41,1054.79,43.01,1065.1L43.01,1065.1z"/>
<path class="st0" d="M217.94,337.27c4.02,5.95,8.42,9.35,13.19,14.42c29.12,26.23,36.67,33.48,76.6,48.27l23.39,8.03
	c15.79,5.66,30.34,9.78,45.69,9.78c10.78,0,10.13-2.43,16.06-9.1c-10.96-31.94-17-63.07-35.74-89.81
	c-7.61-9.31-22.65-3.63-32.11,0.78C304.12,329.4,230.53,325.98,217.94,337.27L217.94,337.27z"/>
<path class="st0" d="M298.65,569.3l22.1,12.33c15.07,3.66,25.97-2.47,31.63-3.19c11.22-1.41,26.15,1.1,37.46-0.19l26.79-6.19
	c10.77-4.39,15.89-10.02,22.63-17.3c7.61-8.22,9.23-13.27,9.14-28.66c-0.05-8.63,0.01-8.96-1.8-15.88l-8.19-29.84
	c-3.85-8.21-4.54-6.34-7.97-12.83C407.22,470.24,300.01,556.14,298.65,569.3L298.65,569.3z"/>
<path class="st0" d="M408.22,443.22c-8.68-6.26-11.93-5.37-23.57-8.74c-25.49-7.37-41.55,1.61-88.6-14.34
	c-0.62-0.21-1.18-0.39-1.81-0.6c-14.85-5.15-11-6.24-27.36-5.18c-9.59,28.21,3.39,75.04,17.3,98.88
	c10.53,18.05,41.68-3.59,54.45-11.41C355.72,491.18,402.73,462.64,408.22,443.22L408.22,443.22z"/>
<path class="st0" d="M459.36,629.78c0,24.95,1.39,23.48-2.04,45.12c-1.1,6.91,1.93,8.24,1.92,29.75
	c27.7,2.68,89.41,17.54,113.34,5.91c8.15-3.96,3.6-1.97,7.32-6.1l-63.24-76.12c-6.67-7.18-6.45-10.75-12.53-16.82l-30.6-25.49
	c-10.12,8.57-8.55,11.85-11.67,24.43L459.36,629.78L459.36,629.78z"/>
<path class="st0" d="M517.15,329.53c-8.52-24.87,1.11-6.13-15.16-40.4l-6.42-16.25c-2.9-9.08-14.72-35.27-25.09-38.08
	c-5.05-1.37-14.93,4.72-19.43,7.3c-5.5,3.15-2.87,1.43-7.73,5.89c-9.59,8.81-50.31,35.52-53.27,48.51
	c-3.29,14.4,9.98,15.88,34.85,22.22l32.09,8.35C473.76,330.98,499.19,339.76,517.15,329.53L517.15,329.53z"/>
<path class="st0" d="M416.38,1033.77c25.37,0.03,35.28,3.21,58.43-3.39l30.6-9.73c0.5-0.21,1.07-0.45,1.56-0.67l27.96-14.58
	c12.11-7.24,16.19-9.16,19.22-18.61c-13.59-8.59-30.68-8.89-42.5-10.9c-9.13-1.55-0.75-3.57-13.94-3.58l-32.98-0.03l-31.06,9.65
	c-19.09,8.07-26.62,27.99-36.58,45.15C387.6,1043.47,406.56,1033.76,416.38,1033.77L416.38,1033.77z"/>
<path class="st0" d="M170.52,746.62c-6.69,1.54-8.01,2.58-13.49,5.55l-22.82,21.51c38.43,24.36,138.24,18.39,165.23-15.47
	c8.27-10.38,5.03-14.61-6.66-19.22C276.41,733.05,189.46,742.26,170.52,746.62L170.52,746.62z"/>
<path class="st0" d="M116.4,952.24c0.7,0.22,3.64,1.02,4.12,1.25c11.69,5.47,2.03,4.8,16.68,10.59l20.52,5.88
	c39.26,10.9,44.71-5.83,61.87-30.36c2.77-3.97,1.41-1.88,4.02-5.06l6.17-9.67c4.66-8.71,8.82-10.06,13.72-17.48
	c10.34-15.63,11.08-9.42,10.95-18.3c-8.96-1.06-43.98,8.94-58.46,13.89l-39.36,11.79c-8.63,1.94-11.9,3.52-19.01,8.12
	C129.16,928.37,115.87,940.57,116.4,952.24L116.4,952.24z"/>
<path class="st0" d="M576.18,749.55c-13.44-12.31-78.85-11.44-93.84-10.44c-10.49,0.7-29,8.99-36.85,15.53l-15.36,12.11
	c-10.15,11.78,4.39,8.63,22.23,14.92c0.72,0.25,3.96,1.49,4.77,1.75l35.12,11.07c16.11,6.96,9.92,10.23,25.31,6.08
	c21.34-5.75,28.93-26.7,51.88-42.99C573.8,754.49,573.87,755.39,576.18,749.55L576.18,749.55z"/>
<path class="st0" d="M488.93,1152.17c11.44,6.36,19.13,18.78,55.66,9.32c6.73-1.74,7.98-1.5,13.44-3.81
	c15.24-6.44,17.3-11.56,29.05-23.48c-3.38-9.13-10.81-11.1-17.73-17.33c-6.1-5.5-11.81-12.26-17.73-18.4
	c-9.94-10.31-6.91-11.15-15.81-20.27c-8.59-8.8-14.94-7.99-20.5-13.72c-6.57,9.6-7.74,4.21-8.59,16.68
	c-0.81,11.83-1.45,17.07-4.52,26l-7.46,23.73c-0.16,0.53-0.37,1.14-0.52,1.66L488.93,1152.17L488.93,1152.17z"/>
<path class="st0" d="M125.86,890.79c5.16,0.78,11.44-2.46,15.72-5.13l63.68-46.34c7.81-6.98,26.3-17.39,27.58-33.92
	c-27.53-1.03-76.6,0.41-102.68,5.85c-5.61,3.06-4.79,2.32-6.32,7.73C120.83,835.28,119.11,876.79,125.86,890.79L125.86,890.79z"/>
<path class="st0" d="M395.73,357.04c3.39,10.91,9.73,24.1,16.67,32.78c7.52,9.41,16.4,19.54,25.06,18.09
	c2.31-0.39,9.05-4.18,10.54-5.05c7.51-4.34,12.7-6.58,20.22-10.67c7.68-4.18,2.73-1.35,8.47-5.54
	c12.08-8.84,32.88-22.22,16.24-35.12c-14.24-11.03-15.35-1.29-45.45-11.36c-7.58-2.54-24.35-2.44-32.23-6.72
	C380.83,317.69,384.13,321.09,395.73,357.04L395.73,357.04z"/>
<path class="st0" d="M108.46,597.53c5.06,10.72,12.44,10.22,28.08,16.59c8.29,3.38,7.25,4.09,15.55,6.99l13.49,4.68
	c12.1,4.17,32.09,9.79,43.98,3.25c15.24-8.38,22.95-25.94,25.66-44.17C239.69,554.89,108.98,597.03,108.46,597.53L108.46,597.53z"/>
<path class="st0" d="M444.57,434.77c12.08,6.14,73.19,20.47,88.71,16.03c6.94-13.42,3.61-37.49-2.03-53.39
	c-2.32-6.54-3.55-8.64-6.83-14.15c-9.84,0.2-6.17,0.33-13.03,2.63c-18.39,6.15-53.53,28.76-60.99,40.07
	C445.77,432.96,448.71,428.5,444.57,434.77L444.57,434.77z"/>
<path class="st0" d="M94.37,621.48c0.59,10.5,0.13,0.41,1.53,5.78l1.93,9.24c1.51,8.02,9.16,24.75,14.45,30.91l35.06,32.33
	c11.69,7.75,21.05,4.41,26.78-5.86c0.14-0.25,2.68-5.64,2.89-6.09c7.63-16.68,19.94-29.04-19.95-42.27l-21.78-9.26
	C119.77,628.12,108.97,618.4,94.37,621.48L94.37,621.48z"/>
<path class="st0" d="M475.74,536.11c37.98-21.02,22.06-16.95,53.72-39.06c5.02-3.51,12.93-11.52,12.32-16.9
	c-3.18-8.03-75.94-20.16-89.23-19.76c-0.42,7.56,0.37,3.81,4,18.98C460.02,493.98,463.87,523.99,475.74,536.11L475.74,536.11z"/>
<path class="st0" d="M185.4,716.57c9.96,10.44,77.16,5.99,91.85,2.62c12.83-2.94,18.47-5.7,21.36-15.7
	c-11.67-16.26-69.72-26.62-81.17-22.53C197.55,688.06,199.14,705.89,185.4,716.57L185.4,716.57z"/>
<path class="st0" d="M291.7,845.68c8.01,0.08,36.64-22.36,44.48-28.39c17.36-15.39,61.82-46.28,67.86-63.15l-68.29,19.38
	c-11.22,5.67-27.17,21.08-32.61,32.48C297.29,818.29,290.67,831.62,291.7,845.68L291.7,845.68z"/>
<path class="st0" d="M239.83,655.12l6.58,3.72c16.3,7.51,49.2,15.8,57.35-6.48c3.65-9.99,9.26-47.51,4.44-49.82l-10.91,3.94
	C277.66,614.35,246.9,638.64,239.83,655.12L239.83,655.12z"/>
<path class="st0" d="M178.06,275.08c2.35,7.62,3.53,7.2,8.72,12.54c20.33,20.88,91.89,29.61,111.68,17.4
	c-1.42-8.73,2.05-3.2-26.14-10.63l-61.88-15.4c-12.19-3.1-20.01-7.37-26.77-6.18C178.77,273.67,180.93,273.2,178.06,275.08
	L178.06,275.08z"/>
<path class="st0" d="M193,884.59l47.4-8.2c5.05-2.12,0.59,0.86,5.9-3.26l22.22-25.26c0.22-0.53,0.38-1.18,0.58-1.73l3.42-9.85
	c4.38-10,3.96-3.19,4.31-16.75c-16.06,2.56-34.64,23.5-43.77,30.16l-35.77,27.38C191.51,883.85,196.43,876.4,193,884.59L193,884.59z
	"/>
<path class="st0" d="M360.64,81.61c7.43,9.77,19.4,9.83,34.44,13.41l38.24,8.84l-13.66-23.44c-15.08-19.1-14.94-33.82-41.32-17.77
	C372.65,66.1,362.8,75.55,360.64,81.61L360.64,81.61z"/>
<path class="st0" d="M400.44,717.3c-15.35-6.08-64.94-18.75-79.69-15.45c-0.2,7.04-0.8,7.5,1.15,13.32l1.32,3.05
	c5.23,10.74,15.8,15.39,29.24,13.06c6.19-1.07,14.74-5.48,24.07-7.79c7.21-1.78,5.17-1.8,11.81-2.94c2.14-0.37,3.97-0.32,5.77-0.73
	L400.44,717.3L400.44,717.3z"/>
<path class="st0" d="M112.34,326.23c4.03-0.11,10.09,0.16,13.84-0.27l30.41-8.06c22.94-5.64,3.12-32.38-8.43-37.82l-33.46,40.38
	C114.38,321.33,112.68,325.54,112.34,326.23L112.34,326.23z"/>
<path class="st0" d="M43.84,832.47c5.81,3.11,9.38,1.03,10.1,0.87l65.65-33.26c-5.5-10.38-0.7-8.66-8.8-18.53
	C98.44,784.16,52.43,820.24,43.84,832.47L43.84,832.47z"/>
<path class="st0" d="M492.3,1187.88l0.19,13.64c14.33,1.07,14.04,0.68,22.05-1.7l7.02-1.89c9.88-2.51,18.63-5.21,28.51-8.45
	C537.21,1164.62,495.97,1186.72,492.3,1187.88L492.3,1187.88z"/>
<path class="st0" d="M255.62,613.62c7.28-2.77,19.78-22.05,31.91-26.61l-22.05-11.51C266.58,590.94,260.16,602.29,255.62,613.62
	L255.62,613.62z"/>
</svg>
